<svg width="100" height="135" viewBox="0 0 100 135" fill="none" xmlns="http://www.w3.org/2000/svg">
<path fill-rule="evenodd" clip-rule="evenodd" d="M29.0908 10H89.9999V104.517H80.9092V114.517H89.9999H99.9999V104.517V10V0H89.9999H29.0908H19.0908V10V20.4828H10H0V30.4828V125V135H10H70.9091H80.9091V125V30.4828V20.4828H70.9091H29.0908V10ZM70.9091 30.4828H10V125H70.9091V30.4828ZM21 52C17.6863 52 15 54.6863 15 58C15 61.3137 17.6863 64 21 64H59C62.3137 64 65 61.3137 65 58C65 54.6863 62.3137 52 59 52H21ZM15 81C15 77.6863 17.6863 75 21 75H59C62.3137 75 65 77.6863 65 81C65 84.3137 62.3137 87 59 87H21C17.6863 87 15 84.3137 15 81ZM21 98C17.6863 98 15 100.686 15 104C15 107.314 17.6863 110 21 110H59C62.3137 110 65 107.314 65 104C65 100.686 62.3137 98 59 98H21Z" fill="black" fill-opacity="0.55"/>
</svg>
