<svg width="100" height="135" viewBox="0 0 100 135" fill="none" xmlns="http://www.w3.org/2000/svg">
<path fill-rule="evenodd" clip-rule="evenodd" d="M83 10H90V100C90 105.506 86.8247 111.514 79.6207 116.556C72.4483 121.577 62.007 125 50 125C37.993 125 27.5517 121.577 20.3793 116.556C13.1753 111.514 10 105.506 10 100V10H63L63.0001 30V38.6602L73 32.8868L83 38.6603L83 30V10ZM100 0H90H10H0V10V100C0 119.33 22.3858 135 50 135C77.6142 135 100 119.33 100 100V10V0ZM31 56C31 59.3137 28.3137 62 25 62C21.6863 62 19 59.3137 19 56C19 52.6863 21.6863 50 25 50C28.3137 50 31 52.6863 31 56ZM25 80C28.3137 80 31 77.3137 31 74C31 70.6863 28.3137 68 25 68C21.6863 68 19 70.6863 19 74C19 77.3137 21.6863 80 25 80ZM31 92C31 95.3137 28.3137 98 25 98C21.6863 98 19 95.3137 19 92C19 88.6863 21.6863 86 25 86C28.3137 86 31 88.6863 31 92ZM43 50C39.6863 50 37 52.6863 37 56C37 59.3137 39.6863 62 43 62H74C77.3137 62 80 59.3137 80 56C80 52.6863 77.3137 50 74 50H43ZM37 74C37 70.6863 39.6863 68 43 68H74C77.3137 68 80 70.6863 80 74C80 77.3137 77.3137 80 74 80H43C39.6863 80 37 77.3137 37 74ZM43 86C39.6863 86 37 88.6863 37 92C37 95.3137 39.6863 98 43 98H74C77.3137 98 80 95.3137 80 92C80 88.6863 77.3137 86 74 86H43Z" fill="black" fill-opacity="0.55"/>
</svg>
