<svg width="140" height="64" viewBox="0 0 140 64" fill="none" xmlns="http://www.w3.org/2000/svg">
<path fill-rule="evenodd" clip-rule="evenodd" d="M55.1719 31.2444H62.6047H77.3953H84.828L86.9708 38.3616C89.6989 47.4234 98.108 54 108.02 54C120.153 54 130 44.1562 130 32C130 19.8437 120.153 10 108.02 10C107.374 10 106.736 10.0277 106.108 10.0816L105.147 10.1639L104.189 10.0613C103.812 10.021 103.427 10 103.033 10H36.2568C35.9196 10 35.5887 10.0154 35.2643 10.0451L34.4431 10.1203L33.6206 10.0599C33.0805 10.0203 32.5334 10 31.9797 10C19.8466 10 10 19.8438 10 32C10 44.1562 19.8466 54 31.9797 54C41.8919 54 50.301 47.4234 53.0292 38.3616L55.1719 31.2444ZM105.253 0.118136C104.524 0.0400524 103.783 0 103.033 0H36.2568C35.6148 0 34.9796 0.0293402 34.3526 0.0867543C33.5691 0.0292558 32.7778 0 31.9797 0C14.3178 0 0 14.3269 0 32C0 49.6731 14.3178 64 31.9797 64C46.4295 64 58.6409 54.4104 62.6047 41.2444H77.3953C81.3591 54.4104 93.5705 64 108.02 64C125.682 64 140 49.6731 140 32C140 14.3269 125.682 0 108.02 0C107.088 0 106.165 0.0399169 105.253 0.118136ZM29.5432 21.3333C27.8611 21.3333 26.4975 22.6969 26.4975 24.379V29.2571H22.2355C20.5523 29.2571 19.1878 30.6216 19.1878 32.3048C19.1878 33.9879 20.5523 35.3524 22.2355 35.3524H26.4975V39.621C26.4975 41.3031 27.8611 42.6667 29.5432 42.6667C31.2252 42.6667 32.5888 41.3031 32.5888 39.621V35.3524H37.46C39.1432 35.3524 40.5076 33.9879 40.5076 32.3048C40.5076 30.6216 39.1432 29.2571 37.46 29.2571H32.5888V24.379C32.5888 22.6969 31.2252 21.3333 29.5432 21.3333ZM112.284 24.8889C112.284 26.8526 110.693 28.4445 108.731 28.4445C106.768 28.4445 105.178 26.8526 105.178 24.8889C105.178 22.9252 106.768 21.3333 108.731 21.3333C110.693 21.3333 112.284 22.9252 112.284 24.8889ZM105.178 32C105.178 33.9637 103.587 35.5556 101.624 35.5556C99.662 35.5556 98.0711 33.9637 98.0711 32C98.0711 30.0363 99.662 28.4444 101.624 28.4444C103.587 28.4444 105.178 30.0363 105.178 32ZM115.837 35.5556C117.8 35.5556 119.391 33.9637 119.391 32C119.391 30.0363 117.8 28.4445 115.837 28.4445C113.875 28.4445 112.284 30.0363 112.284 32C112.284 33.9637 113.875 35.5556 115.837 35.5556ZM112.284 39.1111C112.284 41.0748 110.693 42.6667 108.731 42.6667C106.768 42.6667 105.178 41.0748 105.178 39.1111C105.178 37.1474 106.768 35.5555 108.731 35.5555C110.693 35.5555 112.284 37.1474 112.284 39.1111Z" fill="black" fill-opacity="0.55"/>
</svg>
