<svg width="110" height="110" viewBox="0 0 110 110" fill="none" xmlns="http://www.w3.org/2000/svg">
<path fill-rule="evenodd" clip-rule="evenodd" d="M100 55C100 79.8528 79.8528 100 55 100C45.1967 100 36.1255 96.8652 28.7343 91.5433L91.5433 28.7343C96.8652 36.1255 100 45.1967 100 55ZM21.3063 84.8292L84.8292 21.3063C76.8885 14.2712 66.4431 10 55 10C30.1472 10 10 30.1472 10 55C10 66.4431 14.2712 76.8885 21.3063 84.8292ZM110 55C110 85.3757 85.3757 110 55 110C24.6243 110 0 85.3757 0 55C0 24.6243 24.6243 0 55 0C85.3757 0 110 24.6243 110 55Z" fill="black" fill-opacity="0.55"/>
</svg>
