<svg width="400" height="400" viewBox="0 0 400 400" fill="none" xmlns="http://www.w3.org/2000/svg">
<rect x="200" width="282.843" height="282.843" rx="80" transform="rotate(45 200 0)" fill="#1E6CFF"/>
<rect x="132.725" y="171.504" width="16.2938" height="57.0077" fill="white"/>
<path fill-rule="evenodd" clip-rule="evenodd" d="M116.182 229.417C133.171 229.417 145.37 214.845 145.37 199.998C145.37 185.973 133.252 170.578 116.182 170.578C99.858 170.578 87.4639 183.75 87.4639 199.998C87.4639 216.245 99.858 229.417 116.182 229.417ZM117.971 214.546C126.341 214.546 132.725 208.311 132.725 199.997C132.725 191.684 126.341 185.448 117.971 185.448C109.602 185.448 103.119 191.962 103.119 199.997C103.119 208.033 109.602 214.546 117.971 214.546Z" fill="white"/>
<path fill-rule="evenodd" clip-rule="evenodd" d="M214.472 187.397L199.552 194.328C197.648 190.041 193.635 186.59 188.208 186.59C180.491 186.59 174.515 192.595 174.515 200.003C174.515 207.411 180.491 213.416 188.208 213.416C193.759 213.416 197.831 210.308 199.679 205.805L214.568 212.826C209.994 222.649 200.179 229.422 187.943 229.422C171.468 229.422 158.523 216.251 158.523 200.003C158.523 183.755 172.056 170.583 187.943 170.583C199.419 170.583 209.666 177.456 214.472 187.397Z" fill="white"/>
<rect x="223.698" y="171.493" width="16.2938" height="57.028" fill="white"/>
<path d="M259.906 193.67L276.2 192.312V228.521H259.906V193.67Z" fill="white"/>
<path d="M296.115 193.67L312.409 192.312V228.521H296.115V193.67Z" fill="white"/>
<path d="M254.596 170.583C269.015 170.583 276.201 181.631 276.201 193.214L259.907 196.243C259.907 191.234 255.381 186.725 249.95 186.725C244.519 186.725 239.993 191.407 239.993 196.838L235.677 190.747C233.979 186.725 240.134 170.583 254.596 170.583Z" fill="white"/>
<path d="M290.804 170.583C305.223 170.583 312.409 181.631 312.409 193.214L296.115 196.243C296.115 191.234 291.589 186.725 286.158 186.725C280.727 186.725 276.201 191.407 276.201 196.838L271.885 190.747C270.187 186.725 276.342 170.583 290.804 170.583Z" fill="white"/>
<path d="M290.804 170.583C305.223 170.583 312.409 181.631 312.409 193.214L296.115 194.572C296.115 189.563 291.589 185.52 286.158 185.52C280.727 185.52 276.201 189.14 276.201 194.572L268.054 185.972C271.675 177.825 276.342 170.583 290.804 170.583Z" fill="white"/>
</svg>
