<svg width="357" height="290" viewBox="0 0 357 290" fill="none" xmlns="http://www.w3.org/2000/svg">
<g clip-path="url(#clip0_938_115)">
<path d="M342.398 188.474C342.101 199.525 340.24 210.479 336.87 221.013C336.793 221.258 336.712 221.498 336.632 221.743H316.001C316.023 221.524 316.045 221.279 316.067 221.013C317.442 205.284 325.373 109.551 315.891 93.1792C316.72 94.5073 343.998 138.495 342.398 188.474Z" fill="#F0F0F0"/>
<path d="M340.85 221.013C340.678 221.258 340.498 221.502 340.315 221.743H324.838C324.955 221.535 325.091 221.29 325.249 221.013C327.806 216.423 335.373 202.701 342.398 188.474C349.948 173.187 356.874 157.319 356.29 151.576C356.47 152.871 361.694 192.357 340.85 221.013Z" fill="#F0F0F0"/>
<path d="M41.1095 31.0234C31.6268 47.3949 39.5578 143.128 40.9334 158.857C40.9554 159.124 40.9775 159.368 40.9995 159.587H20.3686C20.2878 159.343 20.2071 159.102 20.1301 158.857C16.7603 148.323 14.8993 137.369 14.6018 126.319C13.0025 76.3395 40.2804 32.3515 41.1095 31.0234Z" fill="#F0F0F0"/>
<path d="M0.709867 89.42C0.126566 95.1629 7.05247 111.031 14.602 126.319C21.6269 140.545 29.1947 154.267 31.7516 158.857C31.9093 159.135 32.045 159.379 32.1624 159.587H16.6856C16.5022 159.346 16.3224 159.102 16.15 158.857C-4.69371 130.201 0.530066 90.7152 0.709867 89.42Z" fill="#F0F0F0"/>
<path d="M354.236 17.988H8.10491C7.97167 17.988 7.8439 17.9353 7.74969 17.8416C7.65547 17.7479 7.60254 17.6208 7.60254 17.4883C7.60254 17.3558 7.65547 17.2287 7.74969 17.135C7.8439 17.0413 7.97167 16.9887 8.10491 16.9887H354.236C354.369 16.9887 354.497 17.0413 354.591 17.135C354.685 17.2287 354.738 17.3558 354.738 17.4883C354.738 17.6208 354.685 17.7479 354.591 17.8416C354.497 17.9353 354.369 17.988 354.236 17.988Z" fill="#CACACA"/>
<path d="M19.4118 10.9926C22.4637 10.9926 24.9378 8.53186 24.9378 5.49632C24.9378 2.46079 22.4637 0 19.4118 0C16.3598 0 13.8857 2.46079 13.8857 5.49632C13.8857 8.53186 16.3598 10.9926 19.4118 10.9926Z" fill="#3F3D56"/>
<path d="M38.5016 10.9926C41.5536 10.9926 44.0277 8.53186 44.0277 5.49632C44.0277 2.46079 41.5536 0 38.5016 0C35.4497 0 32.9756 2.46079 32.9756 5.49632C32.9756 8.53186 35.4497 10.9926 38.5016 10.9926Z" fill="#3F3D56"/>
<path d="M57.5915 10.9926C60.6434 10.9926 63.1175 8.53186 63.1175 5.49632C63.1175 2.46079 60.6434 0 57.5915 0C54.5395 0 52.0654 2.46079 52.0654 5.49632C52.0654 8.53186 54.5395 10.9926 57.5915 10.9926Z" fill="#3F3D56"/>
<path d="M342.798 3.36193H329.234C329.102 3.36223 328.971 3.33661 328.848 3.28653C328.726 3.23644 328.615 3.16288 328.522 3.07005C328.428 2.97723 328.354 2.86696 328.303 2.74556C328.253 2.62416 328.227 2.49403 328.227 2.3626C328.227 2.23117 328.253 2.10102 328.303 1.97963C328.354 1.85823 328.428 1.74796 328.522 1.65513C328.615 1.56231 328.726 1.48874 328.848 1.43866C328.971 1.38858 329.102 1.36296 329.234 1.36327H342.798C342.93 1.36296 343.061 1.38858 343.183 1.43866C343.305 1.48874 343.416 1.56231 343.509 1.65513C343.603 1.74796 343.677 1.85823 343.728 1.97963C343.779 2.10102 343.805 2.23117 343.805 2.3626C343.805 2.49403 343.779 2.62416 343.728 2.74556C343.677 2.86696 343.603 2.97723 343.509 3.07005C343.416 3.16288 343.305 3.23644 343.183 3.28653C343.061 3.33661 342.93 3.36223 342.798 3.36193Z" fill="#3F3D56"/>
<path d="M342.798 7.10942H329.234C329.102 7.10973 328.971 7.08411 328.848 7.03402C328.726 6.98394 328.615 6.91038 328.522 6.81755C328.428 6.72472 328.354 6.61445 328.303 6.49306C328.253 6.37166 328.227 6.24153 328.227 6.1101C328.227 5.97866 328.253 5.84852 328.303 5.72712C328.354 5.60573 328.428 5.49546 328.522 5.40263C328.615 5.3098 328.726 5.23624 328.848 5.18616C328.971 5.13607 329.102 5.11045 329.234 5.11076H342.798C342.93 5.11045 343.061 5.13607 343.183 5.18616C343.305 5.23624 343.416 5.3098 343.509 5.40263C343.603 5.49546 343.677 5.60573 343.728 5.72712C343.779 5.84852 343.805 5.97866 343.805 6.1101C343.805 6.24153 343.779 6.37166 343.728 6.49306C343.677 6.61445 343.603 6.72472 343.509 6.81755C343.416 6.91038 343.305 6.98394 343.183 7.03402C343.061 7.08411 342.93 7.10973 342.798 7.10942Z" fill="#3F3D56"/>
<path d="M342.798 10.8569H329.234C329.102 10.8572 328.971 10.8316 328.848 10.7815C328.726 10.7314 328.615 10.6579 328.522 10.565C328.428 10.4722 328.354 10.3619 328.303 10.2406C328.253 10.1192 328.227 9.98901 328.227 9.85758C328.227 9.72615 328.253 9.59601 328.303 9.47461C328.354 9.35321 328.428 9.24294 328.522 9.15012C328.615 9.05729 328.726 8.98374 328.848 8.93365C328.971 8.88357 329.102 8.85795 329.234 8.85825H342.798C342.93 8.85795 343.061 8.88357 343.183 8.93365C343.305 8.98374 343.416 9.05729 343.509 9.15012C343.603 9.24294 343.677 9.35321 343.728 9.47461C343.779 9.59601 343.805 9.72615 343.805 9.85758C343.805 9.98901 343.779 10.1192 343.728 10.2406C343.677 10.3619 343.603 10.4722 343.509 10.565C343.416 10.6579 343.305 10.7314 343.183 10.7815C343.061 10.8316 342.93 10.8572 342.798 10.8569Z" fill="#3F3D56"/>
<path d="M336.532 221.307H206.067C205.049 221.306 204.074 220.903 203.355 220.188C202.635 219.472 202.231 218.502 202.229 217.49V48.4704C202.231 47.4585 202.635 46.4885 203.355 45.773C204.074 45.0575 205.049 44.655 206.067 44.6538H336.532C337.549 44.655 338.525 45.0574 339.244 45.7729C339.963 46.4884 340.368 47.4585 340.369 48.4704V217.49C340.368 218.502 339.963 219.472 339.244 220.188C338.525 220.903 337.549 221.306 336.532 221.307ZM206.067 45.7443C205.34 45.7451 204.643 46.0326 204.13 46.5437C203.616 47.0548 203.327 47.7477 203.326 48.4704V217.49C203.327 218.213 203.616 218.906 204.13 219.417C204.643 219.928 205.34 220.216 206.067 220.217H336.532C337.259 220.216 337.955 219.928 338.469 219.417C338.983 218.906 339.272 218.213 339.273 217.49V48.4704C339.272 47.7477 338.983 47.0548 338.469 46.5437C337.955 46.0326 337.259 45.7451 336.532 45.7443H206.067Z" fill="#E6E6E6"/>
<path d="M296.631 118.695H241.266C240.249 118.694 239.273 118.291 238.554 117.576C237.835 116.86 237.43 115.89 237.429 114.879V71.8057C237.43 70.7938 237.834 69.8237 238.554 69.1082C239.273 68.3927 240.249 67.9902 241.266 67.9891H296.631C297.649 67.9902 298.624 68.3927 299.343 69.1082C300.063 69.8237 300.467 70.7938 300.469 71.8057V114.879C300.467 115.89 300.063 116.86 299.343 117.576C298.624 118.291 297.649 118.694 296.631 118.695Z" fill="#E6E6E6"/>
<path d="M296.515 190.774H241.15C240.132 190.773 239.157 190.371 238.438 189.655C237.718 188.94 237.314 187.97 237.312 186.958V143.885C237.314 142.873 237.718 141.903 238.438 141.188C239.157 140.472 240.132 140.07 241.15 140.068H296.515C297.533 140.07 298.508 140.472 299.227 141.188C299.947 141.903 300.351 142.873 300.352 143.885V186.958C300.351 187.97 299.947 188.94 299.227 189.655C298.508 190.371 297.533 190.773 296.515 190.774ZM241.15 141.159C240.423 141.16 239.726 141.447 239.213 141.958C238.699 142.469 238.41 143.162 238.409 143.885V186.958C238.41 187.681 238.699 188.373 239.213 188.885C239.726 189.396 240.423 189.683 241.15 189.684H296.515C297.242 189.683 297.939 189.396 298.452 188.885C298.966 188.373 299.255 187.681 299.256 186.958V143.885C299.255 143.162 298.966 142.469 298.452 141.958C297.939 141.447 297.242 141.16 296.515 141.159H241.15Z" fill="#3F3D56"/>
<path d="M311.864 202.769H256.498C255.481 202.768 254.506 202.366 253.786 201.65C253.067 200.935 252.662 199.965 252.661 198.953V155.88C252.662 154.868 253.067 153.898 253.786 153.183C254.506 152.467 255.481 152.065 256.498 152.063H311.864C312.881 152.065 313.856 152.467 314.576 153.183C315.295 153.898 315.7 154.868 315.701 155.88V198.953C315.7 199.965 315.295 200.935 314.576 201.65C313.856 202.366 312.881 202.768 311.864 202.769Z" fill="#6C63FF"/>
<path d="M290.392 190.158H262.597C262.562 190.158 262.527 190.156 262.493 190.15L275.639 167.502C275.719 167.361 275.836 167.243 275.976 167.162C276.117 167.08 276.277 167.037 276.44 167.037C276.603 167.037 276.763 167.08 276.904 167.162C277.045 167.243 277.161 167.361 277.241 167.502L286.064 182.7L286.486 183.427L290.392 190.158Z" fill="white"/>
<path opacity="0.2" d="M290.392 190.158H280.902L285.561 183.428L285.896 182.943L286.063 182.7L286.486 183.428L290.392 190.158Z" fill="black"/>
<path d="M305.869 190.158H281.828L286.487 183.427L286.822 182.943L292.893 174.172C293 174.038 293.134 173.928 293.287 173.849C293.44 173.77 293.608 173.724 293.78 173.713C293.952 173.703 294.124 173.729 294.285 173.789C294.447 173.85 294.593 173.943 294.716 174.063C294.747 174.097 294.776 174.134 294.803 174.172L305.869 190.158Z" fill="white"/>
<path d="M304.743 167.414C307.017 167.414 308.86 165.58 308.86 163.318C308.86 161.056 307.017 159.223 304.743 159.223C302.468 159.223 300.625 161.056 300.625 163.318C300.625 165.58 302.468 167.414 304.743 167.414Z" fill="white"/>
<path d="M149.404 221.258H18.9388C17.9214 221.256 16.9461 220.854 16.2268 220.139C15.5074 219.423 15.1027 218.453 15.1016 217.441V174.368C15.1027 173.356 15.5074 172.386 16.2268 171.671C16.9461 170.955 17.9214 170.553 18.9388 170.552H149.404C150.421 170.553 151.397 170.955 152.116 171.671C152.835 172.386 153.24 173.356 153.241 174.368V217.441C153.24 218.453 152.835 219.423 152.116 220.138C151.397 220.854 150.421 221.256 149.404 221.258Z" fill="#E6E6E6"/>
<path d="M148.855 159.647H18.3899C17.3726 159.646 16.3973 159.243 15.6779 158.528C14.9586 157.812 14.5539 156.842 14.5527 155.831V50.602C14.5539 49.5901 14.9585 48.62 15.6779 47.9045C16.3973 47.189 17.3726 46.7865 18.3899 46.7854H148.855C149.872 46.7866 150.848 47.189 151.567 47.9045C152.287 48.62 152.691 49.5901 152.692 50.602V155.831C152.691 156.842 152.286 157.812 151.567 158.528C150.848 159.243 149.872 159.646 148.855 159.647ZM18.3899 47.8758C17.6633 47.8767 16.9666 48.1642 16.4528 48.6752C15.939 49.1863 15.6499 49.8792 15.6491 50.602V155.831C15.6499 156.553 15.939 157.246 16.4528 157.757C16.9666 158.268 17.6633 158.556 18.3899 158.557H148.855C149.582 158.556 150.278 158.268 150.792 157.757C151.306 157.246 151.595 156.553 151.596 155.831V50.602C151.595 49.8792 151.306 49.1863 150.792 48.6752C150.278 48.1642 149.582 47.8767 148.855 47.8758H18.3899Z" fill="#3F3D56"/>
<path d="M170.234 178.73H39.7689C38.7515 178.729 37.7762 178.326 37.0569 177.611C36.3375 176.895 35.9329 175.925 35.9316 174.913V69.6849C35.9328 68.673 36.3375 67.7029 37.0568 66.9874C37.7762 66.2719 38.7515 65.8695 39.7689 65.8683H170.234C171.251 65.8695 172.227 66.2719 172.946 66.9874C173.665 67.7029 174.07 68.673 174.071 69.6849V174.913C174.07 175.925 173.665 176.895 172.946 177.611C172.227 178.326 171.251 178.729 170.234 178.73Z" fill="#6C63FF"/>
<path d="M119.886 152.832H53.2801C53.1967 152.833 53.1134 152.826 53.0312 152.812L84.5329 98.5402C84.7251 98.2022 85.0041 97.921 85.3414 97.7254C85.6787 97.5297 86.0621 97.4266 86.4526 97.4266C86.843 97.4266 87.2265 97.5297 87.5638 97.7254C87.901 97.921 88.1801 98.2022 88.3723 98.5402L109.514 134.961L110.527 136.704L119.886 152.832Z" fill="white"/>
<path opacity="0.2" d="M119.886 152.832H97.1455L108.309 136.703L109.113 135.542L109.514 134.961L110.528 136.703L119.886 152.832Z" fill="black"/>
<path d="M156.972 152.832H99.3633L110.527 136.704L111.33 135.542L125.877 114.524C126.134 114.203 126.457 113.939 126.823 113.75C127.189 113.561 127.591 113.45 128.004 113.426C128.416 113.401 128.828 113.463 129.215 113.608C129.601 113.752 129.952 113.976 130.246 114.264C130.322 114.346 130.392 114.433 130.456 114.524L156.972 152.832Z" fill="white"/>
<path d="M153.021 97.2187C158.471 97.2187 162.889 92.8248 162.889 87.4047C162.889 81.9845 158.471 77.5906 153.021 77.5906C147.572 77.5906 143.154 81.9845 143.154 87.4047C143.154 92.8248 147.572 97.2187 153.021 97.2187Z" fill="white"/>
<path d="M198.053 173.238C198.942 172.752 199.974 172.589 200.972 172.777L216.605 158.246L214.01 145.29L224.275 145.843L225.192 161.57L204.51 177.59C204.419 178.332 204.138 179.038 203.694 179.64C203.25 180.243 202.657 180.722 201.974 181.031C201.29 181.341 200.538 181.47 199.789 181.408C199.041 181.345 198.321 181.091 197.699 180.672C197.077 180.253 196.574 179.682 196.238 179.014C195.902 178.346 195.744 177.603 195.779 176.857C195.815 176.11 196.043 175.386 196.441 174.752C196.839 174.118 197.394 173.597 198.053 173.238L198.053 173.238Z" fill="#FFB8B8"/>
<path d="M180.791 282.616H174.07L170.873 256.833H180.792L180.791 282.616Z" fill="#FFB6B6"/>
<path d="M182.504 289.095L160.834 289.094V288.822C160.834 286.597 161.723 284.463 163.305 282.89C164.886 281.317 167.032 280.433 169.268 280.433H169.269L182.504 280.433L182.504 289.095Z" fill="#2F2E41"/>
<path d="M231.222 282.616H224.502L221.305 256.833H231.223L231.222 282.616Z" fill="#FFB6B6"/>
<path d="M232.936 289.095L211.267 289.094V288.822C211.267 286.597 212.155 284.463 213.737 282.89C215.319 281.317 217.464 280.433 219.701 280.433H219.702L232.937 280.433L232.936 289.095Z" fill="#2F2E41"/>
<path d="M218.965 137.66C218.154 136.64 217.003 135.943 215.721 135.694C214.438 135.445 213.108 135.661 211.971 136.301C210.847 136.935 209.984 137.943 209.536 139.148C209.087 140.353 209.08 141.677 209.518 142.886L212.814 151.991L226.311 146.889L218.965 137.66Z" fill="#6C63FF"/>
<path d="M217.753 177.869C217.139 177.41 216.479 177.016 215.783 176.693L191.217 180.452L191.757 195.757C179.875 218.064 172.018 243.511 167.73 271.745L183.118 275.235C190.004 248.705 197.824 224.898 207.684 207.035L218.078 274.59L235.76 274.161C233.431 234.448 231.635 188.15 217.753 177.869Z" fill="#2F2E41"/>
<path d="M199.418 133.813C204.706 133.813 208.993 129.549 208.993 124.289C208.993 119.029 204.706 114.765 199.418 114.765C194.13 114.765 189.843 119.029 189.843 124.289C189.843 129.549 194.13 133.813 199.418 133.813Z" fill="#FFB8B8"/>
<path d="M220.474 148.762C220.912 146.128 220.481 143.424 219.247 141.054C218.012 138.684 216.039 136.774 213.623 135.612L202.825 136.149C201.067 136.602 199.436 137.447 198.057 138.621C196.677 139.796 195.585 141.267 194.863 142.925C190.183 153.82 189.516 167.75 191.486 183.674L217.063 177.623C213.555 169.767 216.375 159.508 220.474 148.762Z" fill="#6C63FF"/>
<path d="M187.545 121.966V121.966C187.545 120.678 187.8 119.401 188.296 118.211C188.792 117.02 189.519 115.938 190.435 115.027C191.351 114.116 192.439 113.393 193.636 112.899C194.833 112.406 196.116 112.152 197.412 112.152H197.978C199.765 110.739 201.981 109.97 204.264 109.971C206.954 109.971 209.533 111.034 211.435 112.926C213.337 114.817 214.405 117.383 214.405 120.058V132.871C207.848 132.708 200.422 133.994 192.478 136.142C194.481 130.626 195.811 125.554 194.902 121.966H187.545Z" fill="#2F2E41"/>
<path d="M167.262 166.13C168.277 166.128 169.261 166.479 170.045 167.12L190.775 161.849L194.76 149.246L203.494 154.638L196.7 168.868L170.822 173.032C170.384 173.639 169.797 174.124 169.116 174.44C168.435 174.757 167.685 174.894 166.935 174.838C166.186 174.783 165.464 174.537 164.838 174.124C164.212 173.711 163.703 173.145 163.36 172.48C163.017 171.815 162.852 171.074 162.88 170.327C162.908 169.581 163.128 168.854 163.52 168.216C163.912 167.579 164.462 167.052 165.117 166.687C165.772 166.321 166.511 166.129 167.262 166.13Z" fill="#FFB8B8"/>
<path d="M207.681 145.428C208.056 144.183 207.97 142.845 207.44 141.657C206.91 140.469 205.97 139.509 204.791 138.949C203.624 138.396 202.299 138.271 201.049 138.596C199.799 138.921 198.705 139.675 197.96 140.725L192.349 148.63L204.289 156.706L207.681 145.428Z" fill="#6C63FF"/>
<path d="M261.005 290H127.089C127.003 290 126.918 289.984 126.839 289.951C126.759 289.919 126.687 289.871 126.626 289.811C126.566 289.75 126.517 289.679 126.484 289.6C126.452 289.521 126.435 289.436 126.435 289.351C126.435 289.265 126.452 289.181 126.484 289.102C126.517 289.023 126.566 288.951 126.626 288.891C126.687 288.831 126.759 288.783 126.839 288.75C126.918 288.718 127.003 288.701 127.089 288.702H261.005C261.09 288.701 261.176 288.718 261.255 288.75C261.334 288.783 261.407 288.831 261.467 288.891C261.528 288.951 261.576 289.023 261.609 289.102C261.642 289.181 261.659 289.265 261.659 289.351C261.659 289.436 261.642 289.521 261.609 289.6C261.576 289.679 261.528 289.75 261.467 289.811C261.407 289.871 261.334 289.919 261.255 289.951C261.176 289.984 261.09 290 261.005 290Z" fill="#CACACA"/>
</g>
<defs>
<clipPath id="clip0_938_115">
<rect width="357" height="290" fill="white"/>
</clipPath>
</defs>
</svg>
