<svg width="144" height="40" viewBox="0 0 144 40" fill="none" xmlns="http://www.w3.org/2000/svg">
<g clip-path="url(#clip0)">
<path d="M34.3432 14.3432L25.6569 5.65686C22.5327 2.53266 17.4673 2.53266 14.3431 5.65686L5.65683 14.3432C2.53264 17.4674 2.53264 22.5327 5.65683 25.6569L14.3431 34.3432C17.4673 37.4674 22.5327 37.4674 25.6569 34.3432L34.3432 25.6569C37.4674 22.5327 37.4674 17.4674 34.3432 14.3432Z" fill="#1E6CFF"/>
<path d="M14.9019 17.1504H13.2725V22.8511H14.9019V17.1504Z" fill="white"/>
<path fill-rule="evenodd" clip-rule="evenodd" d="M11.6182 22.9417C13.3171 22.9417 14.537 21.4845 14.537 19.9998C14.537 18.5973 13.3252 17.0578 11.6182 17.0578C9.98581 17.0578 8.7464 18.375 8.7464 19.9998C8.7464 21.6245 9.98581 22.9417 11.6182 22.9417ZM11.7971 21.4546C12.6341 21.4546 13.2725 20.8311 13.2725 19.9997C13.2725 19.1684 12.6341 18.5448 11.7971 18.5448C10.9602 18.5448 10.3119 19.1962 10.3119 19.9997C10.3119 20.8033 10.9602 21.4546 11.7971 21.4546Z" fill="white"/>
<path fill-rule="evenodd" clip-rule="evenodd" d="M21.4472 18.7397L19.9552 19.4328C19.7648 19.0041 19.3635 18.659 18.8208 18.659C18.0491 18.659 17.4515 19.2595 17.4515 20.0003C17.4515 20.7411 18.0491 21.3416 18.8208 21.3416C19.3759 21.3416 19.7831 21.0308 19.9679 20.5805L21.4568 21.2826C20.9994 22.2649 20.0179 22.9422 18.7943 22.9422C17.1468 22.9422 15.8523 21.6251 15.8523 20.0003C15.8523 18.3755 17.2056 17.0583 18.7943 17.0583C19.9419 17.0583 20.9666 17.7456 21.4472 18.7397Z" fill="white"/>
<path d="M23.9992 17.1493H22.3698V22.8521H23.9992V17.1493Z" fill="white"/>
<path d="M25.9906 19.367L27.62 19.2312V22.8521H25.9906V19.367Z" fill="white"/>
<path d="M29.6115 19.367L31.2409 19.2312V22.8521H29.6115V19.367Z" fill="white"/>
<path d="M25.4596 17.0583C26.9015 17.0583 27.6201 18.1631 27.6201 19.3214L25.9907 19.6243C25.9907 19.1234 25.5381 18.6725 24.995 18.6725C24.4519 18.6725 23.9993 19.1407 23.9993 19.6838L23.5677 19.0747C23.3979 18.6725 24.0134 17.0583 25.4596 17.0583Z" fill="white"/>
<path d="M29.0804 17.0583C30.5223 17.0583 31.2409 18.1631 31.2409 19.3214L29.6115 19.6243C29.6115 19.1234 29.1589 18.6725 28.6158 18.6725C28.0727 18.6725 27.6201 19.1407 27.6201 19.6838L27.1885 19.0747C27.0187 18.6725 27.6342 17.0583 29.0804 17.0583Z" fill="white"/>
<path d="M29.0804 17.0583C30.5223 17.0583 31.2409 18.1631 31.2409 19.3214L29.6115 19.4572C29.6115 18.9563 29.1589 18.552 28.6158 18.552C28.0727 18.552 27.6201 18.914 27.6201 19.4572L26.8054 18.5972C27.1675 17.7825 27.6342 17.0583 29.0804 17.0583Z" fill="white"/>
</g>
<path d="M44.8846 20.84C44.8846 19.5787 45.1192 18.4713 45.5886 17.518C46.0726 16.5647 46.7252 15.8313 47.5466 15.318C48.3679 14.8047 49.2846 14.548 50.2966 14.548C51.1619 14.548 51.9172 14.724 52.5626 15.076C53.2226 15.428 53.7286 15.89 54.0806 16.462V14.724H57.8426V27H54.0806V25.262C53.7139 25.834 53.2006 26.296 52.5406 26.648C51.8952 27 51.1399 27.176 50.2746 27.176C49.2772 27.176 48.3679 26.9193 47.5466 26.406C46.7252 25.878 46.0726 25.1373 45.5886 24.184C45.1192 23.216 44.8846 22.1013 44.8846 20.84ZM54.0806 20.862C54.0806 19.9233 53.8166 19.1827 53.2886 18.64C52.7752 18.0973 52.1446 17.826 51.3966 17.826C50.6486 17.826 50.0106 18.0973 49.4826 18.64C48.9692 19.168 48.7126 19.9013 48.7126 20.84C48.7126 21.7787 48.9692 22.5267 49.4826 23.084C50.0106 23.6267 50.6486 23.898 51.3966 23.898C52.1446 23.898 52.7752 23.6267 53.2886 23.084C53.8166 22.5413 54.0806 21.8007 54.0806 20.862ZM59.8162 20.862C59.8162 19.586 60.0729 18.4713 60.5862 17.518C61.1142 16.5647 61.8402 15.8313 62.7642 15.318C63.7029 14.8047 64.7735 14.548 65.9762 14.548C67.5162 14.548 68.7995 14.9513 69.8262 15.758C70.8675 16.5647 71.5495 17.7013 71.8722 19.168H67.8682C67.5309 18.2293 66.8782 17.76 65.9102 17.76C65.2209 17.76 64.6709 18.0313 64.2602 18.574C63.8495 19.102 63.6442 19.8647 63.6442 20.862C63.6442 21.8593 63.8495 22.6293 64.2602 23.172C64.6709 23.7 65.2209 23.964 65.9102 23.964C66.8782 23.964 67.5309 23.4947 67.8682 22.556H71.8722C71.5495 23.9933 70.8675 25.1227 69.8262 25.944C68.7849 26.7653 67.5015 27.176 65.9762 27.176C64.7735 27.176 63.7029 26.9193 62.7642 26.406C61.8402 25.8927 61.1142 25.1593 60.5862 24.206C60.0729 23.2527 59.8162 22.138 59.8162 20.862ZM89.5485 14.592C91.0738 14.592 92.2838 15.054 93.1785 15.978C94.0878 16.902 94.5425 18.1853 94.5425 19.828V27H90.8025V20.334C90.8025 19.542 90.5898 18.9333 90.1645 18.508C89.7538 18.068 89.1818 17.848 88.4485 17.848C87.7152 17.848 87.1358 18.068 86.7105 18.508C86.2998 18.9333 86.0945 19.542 86.0945 20.334V27H82.3545V20.334C82.3545 19.542 82.1418 18.9333 81.7165 18.508C81.3058 18.068 80.7338 17.848 80.0005 17.848C79.2672 17.848 78.6878 18.068 78.2625 18.508C77.8518 18.9333 77.6465 19.542 77.6465 20.334V27H73.8845V14.724H77.6465V16.264C78.0278 15.7507 78.5265 15.3473 79.1425 15.054C79.7585 14.746 80.4552 14.592 81.2325 14.592C82.1565 14.592 82.9778 14.79 83.6965 15.186C84.4298 15.582 85.0018 16.1467 85.4125 16.88C85.8378 16.2053 86.4172 15.6553 87.1505 15.23C87.8838 14.8047 88.6832 14.592 89.5485 14.592ZM101.088 20.84C101.088 19.5787 101.322 18.4713 101.792 17.518C102.276 16.5647 102.928 15.8313 103.75 15.318C104.571 14.8047 105.488 14.548 106.5 14.548C107.306 14.548 108.04 14.7167 108.7 15.054C109.374 15.3913 109.902 15.846 110.284 16.418V10.72H114.046V27H110.284V25.24C109.932 25.8267 109.426 26.296 108.766 26.648C108.12 27 107.365 27.176 106.5 27.176C105.488 27.176 104.571 26.9193 103.75 26.406C102.928 25.878 102.276 25.1373 101.792 24.184C101.322 23.216 101.088 22.1013 101.088 20.84ZM110.284 20.862C110.284 19.9233 110.02 19.1827 109.492 18.64C108.978 18.0973 108.348 17.826 107.6 17.826C106.852 17.826 106.214 18.0973 105.686 18.64C105.172 19.168 104.916 19.9013 104.916 20.84C104.916 21.7787 105.172 22.5267 105.686 23.084C106.214 23.6267 106.852 23.898 107.6 23.898C108.348 23.898 108.978 23.6267 109.492 23.084C110.02 22.5413 110.284 21.8007 110.284 20.862ZM128.339 20.664C128.339 21.016 128.317 21.3827 128.273 21.764H119.759C119.818 22.5267 120.06 23.1133 120.485 23.524C120.925 23.92 121.461 24.118 122.091 24.118C123.03 24.118 123.683 23.722 124.049 22.93H128.053C127.848 23.7367 127.474 24.4627 126.931 25.108C126.403 25.7533 125.736 26.2593 124.929 26.626C124.123 26.9927 123.221 27.176 122.223 27.176C121.021 27.176 119.95 26.9193 119.011 26.406C118.073 25.8927 117.339 25.1593 116.811 24.206C116.283 23.2527 116.019 22.138 116.019 20.862C116.019 19.586 116.276 18.4713 116.789 17.518C117.317 16.5647 118.051 15.8313 118.989 15.318C119.928 14.8047 121.006 14.548 122.223 14.548C123.411 14.548 124.467 14.7973 125.391 15.296C126.315 15.7947 127.034 16.506 127.547 17.43C128.075 18.354 128.339 19.432 128.339 20.664ZM124.489 19.674C124.489 19.0287 124.269 18.5153 123.829 18.134C123.389 17.7527 122.839 17.562 122.179 17.562C121.549 17.562 121.013 17.7453 120.573 18.112C120.148 18.4787 119.884 18.9993 119.781 19.674H124.489ZM135.846 23.48L138.508 14.724H142.512L138.156 27H133.514L129.158 14.724H133.184L135.846 23.48Z" fill="black"/>
<defs>
<clipPath id="clip0">
<rect width="40" height="40" fill="white"/>
</clipPath>
</defs>
</svg>
