<svg width="457" height="349" viewBox="0 0 457 349" fill="none" xmlns="http://www.w3.org/2000/svg">
<g clip-path="url(#clip0_469_35)">
<path d="M158.351 339.228L162.84 340.572L170.164 323.903L163.538 321.92L158.351 339.228Z" fill="#FFB8B8"/>
<path d="M157.645 337.42L166.487 340.067L166.488 340.067C167.982 340.515 169.237 341.537 169.978 342.91C170.718 344.282 170.882 345.892 170.435 347.386L170.38 347.569L155.902 343.235L157.645 337.42Z" fill="#2F2E41"/>
<path d="M201.019 342.895L205.42 341.282L201.291 323.551L194.796 325.931L201.019 342.895Z" fill="#FFB8B8"/>
<path d="M199.37 341.87L208.036 338.694L208.037 338.694C209.501 338.157 211.12 338.224 212.535 338.88C213.95 339.536 215.047 340.726 215.584 342.19L215.65 342.369L201.461 347.569L199.37 341.87Z" fill="#2F2E41"/>
<path d="M165.879 309.053L158.233 334.271L167.408 336.946L176.202 313.638L165.879 309.053Z" fill="#2F2E41"/>
<path d="M189.964 314.785L196.846 338.474L206.403 333.889L199.522 311.728L189.964 314.785Z" fill="#2F2E41"/>
<path d="M186.383 319.057C180.263 319.029 174.157 318.466 168.135 317.375L167.982 317.344V311.517L164.487 311.128L167.215 301.393C165.944 286.395 167.75 267.4 168.334 261.933C168.468 260.651 168.557 259.932 168.557 259.932L171.623 233.88L176.754 229.147L179.085 230.663L183.409 234.984C188.435 247.346 192.423 258.984 192.448 259.732L209.303 313.714L209.19 313.794C203.337 317.923 194.415 319.057 186.383 319.057Z" fill="#3F3D56"/>
<path opacity="0.2" d="M173.798 245.435L172.619 252.788L180.598 256.077L173.798 245.435Z" fill="black"/>
<path d="M189.453 229.108H171.006C170.627 229.108 170.263 228.957 169.995 228.689C169.727 228.421 169.576 228.057 169.575 227.678V219.731C169.581 216.911 170.706 214.208 172.703 212.215C174.701 210.223 177.408 209.104 180.23 209.104C183.052 209.104 185.759 210.223 187.756 212.215C189.754 214.208 190.879 216.911 190.884 219.731V227.678C190.884 228.057 190.733 228.421 190.465 228.689C190.196 228.957 189.833 229.108 189.453 229.108Z" fill="#2F2E41"/>
<path d="M182.267 228.63C186.581 228.63 190.078 225.134 190.078 220.823C190.078 216.511 186.581 213.016 182.267 213.016C177.952 213.016 174.455 216.511 174.455 220.823C174.455 225.134 177.952 228.63 182.267 228.63Z" fill="#FFB8B8"/>
<path d="M193.406 220.526H182.126L182.01 218.907L181.432 220.526H179.695L179.466 217.318L178.32 220.526H174.959V220.367C174.961 218.134 175.85 215.993 177.43 214.414C179.01 212.834 181.153 211.946 183.387 211.944H184.977C187.212 211.946 189.354 212.834 190.934 214.414C192.514 215.993 193.403 218.134 193.406 220.367V220.526Z" fill="#2F2E41"/>
<path d="M182.033 230.592C181.948 230.592 181.864 230.584 181.78 230.569L173.521 229.113V215.47H182.613L182.388 215.733C179.256 219.383 181.615 225.302 183.3 228.506C183.425 228.74 183.48 229.005 183.46 229.27C183.44 229.535 183.346 229.788 183.188 230.002C183.056 230.185 182.883 230.333 182.682 230.436C182.481 230.538 182.259 230.592 182.033 230.592Z" fill="#2F2E41"/>
<path d="M196.607 263.567H192.08C191.934 263.568 191.794 263.514 191.687 263.416C191.579 263.319 191.512 263.185 191.498 263.04L190.592 253.757H198.095L197.188 263.04C197.175 263.185 197.108 263.319 197 263.416C196.892 263.514 196.752 263.568 196.607 263.567Z" fill="#6C63FF"/>
<path d="M198.083 254.925H190.604C190.449 254.925 190.3 254.863 190.191 254.753C190.081 254.644 190.02 254.496 190.02 254.341V252.939C190.02 252.784 190.081 252.636 190.191 252.526C190.3 252.417 190.449 252.355 190.604 252.355H198.083C198.238 252.355 198.386 252.417 198.496 252.526C198.605 252.636 198.667 252.784 198.667 252.939V254.341C198.667 254.496 198.605 254.644 198.496 254.753C198.386 254.863 198.238 254.925 198.083 254.925Z" fill="#2F2E41"/>
<path opacity="0.2" d="M168.746 259.573C170.825 261.979 173.645 263.626 176.763 264.256C179.881 264.886 183.119 264.462 185.97 263.052L187.67 262.211L168.746 259.573Z" fill="black"/>
<path d="M195.928 257.776C195.58 257.384 195.15 257.074 194.669 256.867C194.187 256.66 193.666 256.561 193.142 256.577C192.619 256.592 192.105 256.723 191.637 256.959C191.169 257.194 190.758 257.53 190.434 257.941L182.547 255.729L180.032 260.191L191.214 263.16C191.942 263.658 192.828 263.872 193.703 263.762C194.579 263.651 195.383 263.224 195.964 262.56C196.545 261.897 196.863 261.043 196.856 260.161C196.849 259.279 196.519 258.431 195.928 257.776Z" fill="#FFB8B8"/>
<path d="M177.107 262.728C173.357 262.728 168.283 260.531 162.26 256.275C161.925 256.042 161.641 255.743 161.427 255.395C161.213 255.047 161.074 254.659 161.018 254.255C160.574 251.441 163.319 247.638 163.589 247.274L166.475 239.353C166.508 239.224 167.438 235.797 169.773 234.577C170.265 234.325 170.805 234.183 171.357 234.159C171.909 234.136 172.46 234.232 172.971 234.441C177.419 236.06 173.946 248.559 173.469 250.198L179.362 252.97L183.104 255.354L188.228 255.89L186.837 262.325L179.054 262.5C178.417 262.656 177.763 262.732 177.107 262.728Z" fill="#3F3D56"/>
<path d="M456.833 204.019C456.829 196.499 455.151 189.074 451.921 182.281C448.691 175.489 443.99 169.5 438.157 164.748C432.325 159.996 425.509 156.6 418.201 154.806C410.893 153.012 403.278 152.866 395.907 154.377C388.536 155.888 381.593 159.018 375.582 163.542C369.571 168.066 364.642 173.87 361.152 180.533C357.663 187.196 355.7 194.551 355.406 202.065C355.112 209.58 356.494 217.066 359.453 223.981C359.403 223.926 359.352 223.872 359.302 223.817C361.556 229.066 364.68 233.897 368.542 238.107C368.554 238.119 368.566 238.132 368.577 238.144C368.889 238.484 369.202 238.822 369.523 239.152C374.159 243.985 379.71 247.849 385.852 250.521C391.995 253.192 398.607 254.617 405.306 254.713L403.591 347.773H408.888L407.816 286.353L415.477 282.321L414.308 280.103L407.767 283.545L407.263 254.709C420.513 254.405 433.119 248.931 442.382 239.458C451.646 229.985 456.833 217.265 456.833 204.019Z" fill="#E6E6E6"/>
<path d="M306.256 179.307C306.251 170.493 304.285 161.791 300.499 153.831C296.714 145.871 291.204 138.853 284.37 133.284C277.535 127.715 269.546 123.735 260.982 121.633C252.419 119.531 243.494 119.359 234.856 121.129C226.217 122.9 218.081 126.569 211.037 131.871C203.992 137.172 198.216 143.974 194.126 151.782C190.037 159.59 187.737 168.21 187.392 177.017C187.048 185.823 188.667 194.596 192.134 202.7C192.076 202.635 192.016 202.572 191.958 202.507C194.599 208.659 198.26 214.32 202.787 219.254C202.8 219.269 202.814 219.283 202.828 219.298C203.193 219.696 203.56 220.092 203.936 220.479C209.369 226.143 215.874 230.671 223.073 233.802C230.271 236.932 238.02 238.602 245.87 238.715L243.861 347.773H250.068L248.812 275.794L257.79 271.069L256.42 268.469L248.754 272.503L248.165 238.71C263.692 238.354 278.465 231.939 289.321 220.838C300.177 209.736 306.255 194.83 306.256 179.307Z" fill="#E6E6E6"/>
<path d="M135.483 156.062C135.478 146.032 133.24 136.13 128.933 127.071C124.625 118.013 118.355 110.026 110.577 103.688C102.799 97.3511 93.7085 92.8222 83.963 90.43C74.2176 88.0377 64.0617 87.8421 54.2313 89.8572C44.4008 91.8723 35.142 96.0476 27.1256 102.081C19.1092 108.114 12.5359 115.854 7.8822 124.739C3.22846 133.625 0.610724 143.434 0.218655 153.456C-0.173415 163.477 1.67001 173.461 5.61535 182.682C5.54919 182.609 5.48083 182.537 5.415 182.464C8.42016 189.464 12.5862 195.907 17.7375 201.521C17.7529 201.538 17.7687 201.554 17.7841 201.571C18.1998 202.024 18.6178 202.474 19.0455 202.915C25.2282 209.36 32.6305 214.514 40.8224 218.076C49.0143 221.639 57.8326 223.539 66.7655 223.667L64.4793 347.773H71.5425L70.113 265.862L80.3302 260.486L78.7716 257.527L70.0477 262.117L69.3765 223.661C87.047 223.256 103.857 215.957 116.212 203.323C128.566 190.69 135.483 173.727 135.483 156.062Z" fill="#E6E6E6"/>
<path d="M389.42 88.4423C413.857 88.4423 433.667 68.6438 433.667 44.2212C433.667 19.7985 413.857 0 389.42 0C364.984 0 345.174 19.7985 345.174 44.2212C345.174 68.6438 364.984 88.4423 389.42 88.4423Z" fill="#FF6584"/>
<path d="M126.375 185.127C175.35 185.127 215.053 145.447 215.053 96.4994C215.053 47.5518 175.35 7.87183 126.375 7.87183C77.399 7.87183 37.6963 47.5518 37.6963 96.4994C37.6963 145.447 77.399 185.127 126.375 185.127Z" fill="#6C63FF"/>
<path opacity="0.2" d="M60.897 37.3031C52.6253 56.641 51.5032 78.2884 57.7312 98.3771C63.9592 118.466 77.1315 135.687 94.8943 146.962C112.657 158.238 133.853 162.834 154.694 159.929C175.535 157.024 194.664 146.807 208.662 131.104C203.609 142.919 196.046 153.494 186.497 162.098C176.949 170.701 165.643 177.127 153.363 180.93C141.083 184.733 128.123 185.823 115.379 184.123C102.636 182.423 90.4155 177.974 79.5634 171.085C68.7113 164.196 59.4876 155.032 52.5312 144.227C45.5749 133.421 41.0522 121.234 39.2767 108.508C37.5011 95.7826 38.515 82.8233 42.2483 70.5283C45.9815 58.2332 52.3447 46.8963 60.897 37.3031Z" fill="black"/>
<path d="M126.618 96.4993H126.862L131.247 347.773H121.989L126.618 96.4993Z" fill="#3F3D56"/>
<path d="M140.721 229.489L126.062 237.202L128.105 241.08L142.764 233.367L140.721 229.489Z" fill="#3F3D56"/>
<path d="M262.011 345.423C262.011 345.423 262.331 338.723 268.89 339.501L262.011 345.423Z" fill="#3F3D56"/>
<path d="M260.158 339.047C261.971 339.047 263.44 337.578 263.44 335.766C263.44 333.954 261.971 332.485 260.158 332.485C258.345 332.485 256.875 333.954 256.875 335.766C256.875 337.578 258.345 339.047 260.158 339.047Z" fill="#6C63FF"/>
<path d="M260.55 341.291H259.623V347.773H260.55V341.291Z" fill="#3F3D56"/>
<path d="M34.5234 344.497C34.5234 344.497 34.8434 337.796 41.4023 338.575L34.5234 344.497Z" fill="#3F3D56"/>
<path d="M32.6704 338.121C34.4834 338.121 35.9531 336.652 35.9531 334.84C35.9531 333.028 34.4834 331.559 32.6704 331.559C30.8574 331.559 29.3877 333.028 29.3877 334.84C29.3877 336.652 30.8574 338.121 32.6704 338.121Z" fill="#6C63FF"/>
<path d="M33.0624 340.364H32.1357V346.847H33.0624V340.364Z" fill="#3F3D56"/>
<path d="M88.2686 344.96C88.2686 344.96 88.5885 338.26 95.1475 339.038L88.2686 344.96Z" fill="#3F3D56"/>
<path d="M86.4145 338.584C88.2275 338.584 89.6972 337.115 89.6972 335.303C89.6972 333.491 88.2275 332.022 86.4145 332.022C84.6016 332.022 83.1318 333.491 83.1318 335.303C83.1318 337.115 84.6016 338.584 86.4145 338.584Z" fill="#6C63FF"/>
<path d="M86.8075 340.828H85.8809V347.31H86.8075V340.828Z" fill="#3F3D56"/>
<path d="M231.199 42.8442L237.784 37.5807C232.668 37.0166 230.566 39.8048 229.706 42.0117C225.71 40.3533 221.359 42.5268 221.359 42.5268L234.534 47.307C233.87 45.5327 232.713 43.9846 231.199 42.8442Z" fill="#3F3D56"/>
<path d="M331.339 96.46L337.923 91.1965C332.808 90.6325 330.706 93.4207 329.846 95.6276C325.85 93.9691 321.499 96.1426 321.499 96.1426L334.674 100.923C334.009 99.1486 332.852 97.6005 331.339 96.46Z" fill="#3F3D56"/>
<path d="M223.331 142.212L229.915 136.949C224.8 136.385 222.698 139.173 221.838 141.38C217.842 139.721 213.491 141.895 213.491 141.895L226.666 146.675C226.001 144.901 224.844 143.353 223.331 142.212Z" fill="#3F3D56"/>
<path d="M351.836 347.855C351.836 347.855 352.156 341.154 358.715 341.933L351.836 347.855Z" fill="#3F3D56"/>
<path d="M290.215 347.855C290.215 347.855 290.535 341.154 297.094 341.933L290.215 347.855Z" fill="#3F3D56"/>
<path d="M65.5078 347.855C65.5078 347.855 65.8278 341.154 72.3867 341.933L65.5078 347.855Z" fill="#3F3D56"/>
<path d="M379.635 347.855C379.635 347.855 379.955 341.154 386.514 341.933L379.635 347.855Z" fill="#3F3D56"/>
<path d="M366.662 347.855C366.662 347.855 366.982 341.154 373.541 341.933L366.662 347.855Z" fill="#3F3D56"/>
<path d="M339.901 347.855C339.901 347.855 339.581 341.154 333.022 341.933L339.901 347.855Z" fill="#3F3D56"/>
<path d="M233.339 347.855C233.339 347.855 233.019 341.154 226.46 341.933L233.339 347.855Z" fill="#3F3D56"/>
<path d="M144.847 347.855C144.847 347.855 144.527 341.154 137.968 341.933L144.847 347.855Z" fill="#3F3D56"/>
<path d="M50.7929 347.855C50.7929 347.855 50.473 341.154 43.9141 341.933L50.7929 347.855Z" fill="#3F3D56"/>
<path d="M407.545 347.855C407.545 347.855 407.225 341.154 400.666 341.933L407.545 347.855Z" fill="#3F3D56"/>
<path d="M367.7 348.318C367.7 348.318 367.38 341.618 360.821 342.396L367.7 348.318Z" fill="#3F3D56"/>
<path d="M457 346.979H0V348.007H457V346.979Z" fill="#3F3D56"/>
</g>
<defs>
<clipPath id="clip0_469_35">
<rect width="457" height="348.318" fill="white"/>
</clipPath>
</defs>
</svg>
