<svg width="400" height="400" viewBox="0 0 400 400" fill="none" xmlns="http://www.w3.org/2000/svg">
<path fill-rule="evenodd" clip-rule="evenodd" d="M339.894 50.0169L250.296 50.0169C244.798 50.0169 240.341 54.514 240.341 60.0614C240.341 65.6088 244.798 70.1059 250.296 70.1059L315.86 70.1059L142.53 244.988L156.609 259.193L329.939 84.3109V150.462C329.939 156.009 334.396 160.506 339.894 160.506C345.392 160.506 349.85 156.009 349.85 150.462V60.0614C349.85 54.514 345.392 50.0169 339.894 50.0169ZM290.393 330.565L290.393 164.77L310.393 144.591V330.565C310.393 341.611 301.439 350.565 290.393 350.565H71C59.9543 350.565 51 341.611 51 330.565V108.85C51 97.8043 59.9543 88.85 71 88.85H255.588L235.766 108.85H71L71 330.565H290.393Z" fill="black" fill-opacity="0.55"/>
</svg>
