<svg width="457" height="339" viewBox="0 0 457 339" fill="none" xmlns="http://www.w3.org/2000/svg">
<path d="M218.68 121.273H57.701L27.7768 154.623V121.273H0V0H218.68V121.273Z" fill="#E5E5E5"/>
<path d="M182.823 35.6241H35.8579V42.1931H182.823V35.6241Z" fill="white"/>
<path d="M182.823 57.3522H35.8579V63.9211H182.823V57.3522Z" fill="white"/>
<path d="M182.823 79.0802H35.8579V85.6492H182.823V79.0802Z" fill="white"/>
<path d="M28.2196 175.035C31.2719 175.035 33.7463 172.56 33.7463 169.506C33.7463 166.452 31.2719 163.976 28.2196 163.976C25.1673 163.976 22.6929 166.452 22.6929 169.506C22.6929 172.56 25.1673 175.035 28.2196 175.035Z" fill="#E6E6E6"/>
<path d="M386.011 331.943H379.818L376.872 308.045H386.011L386.011 331.943Z" fill="#9F616A"/>
<path d="M387.589 337.949L367.622 337.948V337.695C367.622 335.633 368.441 333.655 369.899 332.197C371.356 330.739 373.333 329.92 375.394 329.919H375.394L387.59 329.92L387.589 337.949Z" fill="#2F2E41"/>
<path d="M325.655 331.452L319.784 329.483L324.583 305.887L333.249 308.794L325.655 331.452Z" fill="#9F616A"/>
<path d="M325.245 337.649L306.313 331.298L306.394 331.058C307.049 329.103 308.454 327.488 310.299 326.569C312.144 325.65 314.278 325.502 316.233 326.158L316.233 326.158L327.796 330.037L325.245 337.649Z" fill="#2F2E41"/>
<path d="M333.289 208.435L319.879 321.934L333.031 323.044C333.031 323.044 353.72 211.453 360.098 224.672C366.476 237.891 374.291 320.567 374.291 320.567H387.344C387.344 320.567 390.692 191.57 377.024 185.188L333.289 208.435Z" fill="#2F2E41"/>
<path d="M368.047 114.928C369.313 107.738 364.514 100.883 357.328 99.6163C350.142 98.3497 343.291 103.151 342.025 110.341C340.759 117.531 345.558 124.386 352.744 125.653C359.93 126.919 366.781 122.118 368.047 114.928Z" fill="#9F616A"/>
<path d="M347.185 130.718L364.041 132.085C364.041 132.085 377.481 132.313 382.948 135.96C388.415 139.606 377.709 162.169 377.709 162.169C377.709 162.169 374.926 171.115 377.025 175.16C383.839 188.285 382.829 198.393 382.829 198.393C382.829 198.393 368.825 201.598 344.679 207.979C344.679 207.979 329.645 213.905 330.101 210.714C330.557 207.524 335.112 171.058 335.112 171.058V133.225L347.185 130.718Z" fill="#3F3D56"/>
<path d="M376.672 111.202C375.998 107.438 374.487 102.098 371.121 98.0491C371.227 98.0497 371.333 98.0543 371.439 98.0513C372.596 98.0175 373.912 97.6525 374.39 96.5981C374.544 96.1757 374.582 95.7198 374.501 95.2775C374.42 94.8352 374.222 94.4227 373.928 94.0827C373.332 93.411 372.618 92.8532 371.822 92.4364C372.634 92.9295 373.781 93.3874 374.429 92.6929C374.596 92.4835 374.699 92.231 374.727 91.9649C374.756 91.6988 374.707 91.4302 374.588 91.1906C374.342 90.7152 373.997 90.2984 373.576 89.9685C372.211 88.761 370.718 87.7069 369.124 86.8253C367.889 86.1429 366.266 85.595 365.157 86.4679C364.029 87.3572 364.21 89.0888 364.5 90.4968C363.868 90.127 363.157 89.9124 362.426 89.8706C362.061 89.8601 361.703 89.9761 361.413 90.1988C361.123 90.4216 360.919 90.7376 360.835 91.0934C360.825 91.3742 360.887 91.653 361.016 91.9027C361.144 92.1524 361.335 92.3646 361.57 92.5188C357.214 91.8021 351.648 92.6154 344.532 95.9096C344.532 95.9096 337.633 98.2107 337.282 107.298C337.247 108.751 337.408 110.203 337.761 111.613C338.15 113.261 339.533 121.342 337.874 124.608L346.183 127.57L346.278 122.591C339.821 113.264 343.011 109.841 345.525 104.231C345.529 104.221 345.536 104.212 345.545 104.206C345.554 104.199 345.565 104.196 345.576 104.195C345.587 104.194 345.598 104.196 345.607 104.201C345.617 104.206 345.625 104.214 345.631 104.224C346.096 105.021 347.876 107.756 354.004 107.756L351.636 105.387C351.636 105.387 362.055 109.651 365.844 109.651C365.844 109.651 368.686 111.547 365.844 114.39C363.003 117.233 356.784 121.417 360.099 126.63C363.414 131.842 363.128 133.691 363.128 133.691L370.706 129.427C370.706 129.427 375.334 120.265 376.155 117.567C376.829 115.516 377.007 113.335 376.672 111.202Z" fill="#2F2E41"/>
<path d="M285.621 213.926H436.365V297.524H417.218V320.513L396.59 297.524H285.621V213.926Z" fill="#6C63FF"/>
<path d="M411.647 238.483H310.339V243.011H411.647V238.483Z" fill="white"/>
<path d="M411.647 253.461H310.339V257.989H411.647V253.461Z" fill="white"/>
<path d="M411.647 268.439H310.339V272.967H411.647V268.439Z" fill="white"/>
<path d="M384.599 160.361L375.757 162.511L375.69 180.415L365.745 214.757C364.949 215.387 364.341 216.223 363.986 217.174C363.631 218.125 363.544 219.155 363.733 220.153C363.922 221.151 364.381 222.077 365.059 222.832C365.738 223.588 366.61 224.142 367.581 224.437C368.552 224.731 369.586 224.754 370.569 224.502C371.552 224.25 372.447 223.734 373.158 223.009C373.868 222.284 374.367 221.378 374.599 220.39C374.832 219.401 374.789 218.368 374.476 217.402L386.364 181.851L384.599 160.361Z" fill="#9F616A"/>
<path d="M325.752 159.984L336.359 163.017L336.426 180.92L346.371 215.262C347.167 215.892 347.775 216.728 348.13 217.679C348.485 218.63 348.572 219.661 348.383 220.658C348.194 221.656 347.735 222.583 347.057 223.338C346.378 224.093 345.506 224.648 344.535 224.942C343.564 225.236 342.531 225.259 341.547 225.007C340.564 224.755 339.669 224.239 338.958 223.514C338.248 222.789 337.749 221.883 337.517 220.895C337.285 219.907 337.327 218.873 337.64 217.908L325.752 182.356V159.984Z" fill="#9F616A"/>
<path d="M371.33 134.136L373.521 133.421C374.751 133.02 376.09 133.113 377.253 133.68C377.253 133.68 383.631 134.136 384.542 138.695C385.453 143.253 387.669 183.094 387.669 183.094L374.159 178.793L371.33 134.136Z" fill="#3F3D56"/>
<path d="M340.579 134.136L336.7 133.941L335.472 133.327C335.472 133.327 328.278 134.136 327.367 138.695C326.456 143.253 323.805 184.323 323.805 184.323L337.314 180.636L340.579 134.136Z" fill="#3F3D56"/>
<path d="M117.766 295.624L124.17 290.035C123.896 286.021 123.396 282.025 122.672 278.066L119.138 279.562L122.417 276.7C121.474 271.815 120.54 268.639 120.54 268.639C120.54 268.639 107.619 280.119 100.389 294.123L103.561 304.561L98.7165 297.659C97.9961 299.325 97.3812 301.035 96.8754 302.778C91.8341 320.374 93.4908 336.285 100.576 338.317C107.661 340.35 117.491 327.733 122.533 310.138C124.004 304.501 124.603 298.673 124.308 292.855L117.766 295.624Z" fill="#F1F1F1"/>
<path d="M134.723 309.306L143.093 307.833C144.932 304.255 146.569 300.575 147.994 296.813L144.196 296.265L148.481 295.511C150.198 290.841 151.039 287.64 151.039 287.64C151.039 287.64 134.048 290.785 120.624 299.033L117.946 309.61L117.365 301.195C115.887 302.249 114.478 303.395 113.144 304.626C99.738 317.081 92.936 331.559 97.9513 336.963C102.967 342.366 117.9 336.65 131.306 324.195C135.477 320.131 139.001 315.451 141.755 310.319L134.723 309.306Z" fill="#F1F1F1"/>
<path d="M456.386 338.54H76.8831C76.7203 338.54 76.5641 338.475 76.4489 338.36C76.3337 338.244 76.269 338.088 76.269 337.925C76.269 337.762 76.3337 337.606 76.4489 337.491C76.5641 337.376 76.7203 337.311 76.8831 337.311H456.386C456.549 337.311 456.705 337.376 456.82 337.491C456.935 337.606 457 337.762 457 337.925C457 338.088 456.935 338.244 456.82 338.36C456.705 338.475 456.549 338.54 456.386 338.54Z" fill="#CBCBCB"/>
</svg>
