<svg width="1019" height="339" viewBox="0 0 100 339" fill="none" xmlns="http://www.w3.org/2000/svg">
<path d="M583.328 71.872V97H578.288V86.308H567.524V97H562.484V71.872H567.524V82.204H578.288V71.872H583.328ZM586.993 86.956C586.993 84.94 587.389 83.152 588.181 81.592C588.997 80.032 590.089 78.832 591.457 77.992C592.849 77.152 594.397 76.732 596.101 76.732C597.589 76.732 598.885 77.032 599.989 77.632C601.117 78.232 602.017 78.988 602.689 79.9V77.056H607.765V97H602.689V94.084C602.041 95.02 601.141 95.8 599.989 96.424C598.861 97.024 597.553 97.324 596.065 97.324C594.385 97.324 592.849 96.892 591.457 96.028C590.089 95.164 588.997 93.952 588.181 92.392C587.389 90.808 586.993 88.996 586.993 86.956ZM602.689 87.028C602.689 85.804 602.449 84.76 601.969 83.896C601.489 83.008 600.841 82.336 600.025 81.88C599.209 81.4 598.333 81.16 597.397 81.16C596.461 81.16 595.597 81.388 594.805 81.844C594.013 82.3 593.365 82.972 592.861 83.86C592.381 84.724 592.141 85.756 592.141 86.956C592.141 88.156 592.381 89.212 592.861 90.124C593.365 91.012 594.013 91.696 594.805 92.176C595.621 92.656 596.485 92.896 597.397 92.896C598.333 92.896 599.209 92.668 600.025 92.212C600.841 91.732 601.489 91.06 601.969 90.196C602.449 89.308 602.689 88.252 602.689 87.028ZM621.003 92.356L626.043 77.056H631.407L624.027 97H617.907L610.563 77.056H615.963L621.003 92.356ZM652.778 86.596C652.778 87.316 652.73 87.964 652.634 88.54H638.054C638.174 89.98 638.678 91.108 639.566 91.924C640.454 92.74 641.546 93.148 642.842 93.148C644.714 93.148 646.046 92.344 646.838 90.736H652.274C651.698 92.656 650.594 94.24 648.962 95.488C647.33 96.712 645.326 97.324 642.95 97.324C641.03 97.324 639.302 96.904 637.766 96.064C636.254 95.2 635.066 93.988 634.202 92.428C633.362 90.868 632.942 89.068 632.942 87.028C632.942 84.964 633.362 83.152 634.202 81.592C635.042 80.032 636.218 78.832 637.73 77.992C639.242 77.152 640.982 76.732 642.95 76.732C644.846 76.732 646.538 77.14 648.026 77.956C649.538 78.772 650.702 79.936 651.518 81.448C652.358 82.936 652.778 84.652 652.778 86.596ZM647.558 85.156C647.534 83.86 647.066 82.828 646.154 82.06C645.242 81.268 644.126 80.872 642.806 80.872C641.558 80.872 640.502 81.256 639.638 82.024C638.798 82.768 638.282 83.812 638.09 85.156H647.558ZM663.739 86.956C663.739 84.94 664.135 83.152 664.927 81.592C665.743 80.032 666.835 78.832 668.203 77.992C669.595 77.152 671.143 76.732 672.847 76.732C674.335 76.732 675.631 77.032 676.735 77.632C677.863 78.232 678.763 78.988 679.435 79.9V77.056H684.511V97H679.435V94.084C678.787 95.02 677.887 95.8 676.735 96.424C675.607 97.024 674.299 97.324 672.811 97.324C671.131 97.324 669.595 96.892 668.203 96.028C666.835 95.164 665.743 93.952 664.927 92.392C664.135 90.808 663.739 88.996 663.739 86.956ZM679.435 87.028C679.435 85.804 679.195 84.76 678.715 83.896C678.235 83.008 677.587 82.336 676.771 81.88C675.955 81.4 675.079 81.16 674.143 81.16C673.207 81.16 672.343 81.388 671.551 81.844C670.759 82.3 670.111 82.972 669.607 83.86C669.127 84.724 668.887 85.756 668.887 86.956C668.887 88.156 669.127 89.212 669.607 90.124C670.111 91.012 670.759 91.696 671.551 92.176C672.367 92.656 673.231 92.896 674.143 92.896C675.079 92.896 675.955 92.668 676.771 92.212C677.587 91.732 678.235 91.06 678.715 90.196C679.195 89.308 679.435 88.252 679.435 87.028ZM700.485 76.768C702.861 76.768 704.781 77.524 706.245 79.036C707.709 80.524 708.441 82.612 708.441 85.3V97H703.401V85.984C703.401 84.4 703.005 83.188 702.213 82.348C701.421 81.484 700.341 81.052 698.973 81.052C697.581 81.052 696.477 81.484 695.661 82.348C694.869 83.188 694.473 84.4 694.473 85.984V97H689.433V77.056H694.473V79.54C695.145 78.676 695.997 78.004 697.029 77.524C698.085 77.02 699.237 76.768 700.485 76.768ZM732.314 77.056L719.966 106.432H714.602L718.922 96.496L710.93 77.056H716.582L721.73 90.988L726.95 77.056H732.314ZM752.753 81.196H749.261V97H744.149V81.196H741.881V77.056H744.149V76.048C744.149 73.6 744.845 71.8 746.237 70.648C747.629 69.496 749.729 68.956 752.537 69.028V73.276C751.313 73.252 750.461 73.456 749.981 73.888C749.501 74.32 749.261 75.1 749.261 76.228V77.056H752.753V81.196ZM774.559 86.596C774.559 87.316 774.511 87.964 774.415 88.54H759.835C759.955 89.98 760.459 91.108 761.347 91.924C762.235 92.74 763.327 93.148 764.623 93.148C766.495 93.148 767.827 92.344 768.619 90.736H774.055C773.479 92.656 772.375 94.24 770.743 95.488C769.111 96.712 767.107 97.324 764.731 97.324C762.811 97.324 761.083 96.904 759.547 96.064C758.035 95.2 756.847 93.988 755.983 92.428C755.143 90.868 754.723 89.068 754.723 87.028C754.723 84.964 755.143 83.152 755.983 81.592C756.823 80.032 757.999 78.832 759.511 77.992C761.023 77.152 762.763 76.732 764.731 76.732C766.627 76.732 768.319 77.14 769.807 77.956C771.319 78.772 772.483 79.936 773.299 81.448C774.139 82.936 774.559 84.652 774.559 86.596ZM769.339 85.156C769.315 83.86 768.847 82.828 767.935 82.06C767.023 81.268 765.907 80.872 764.587 80.872C763.339 80.872 762.283 81.256 761.419 82.024C760.579 82.768 760.063 83.812 759.871 85.156H769.339ZM796.778 86.596C796.778 87.316 796.73 87.964 796.634 88.54H782.054C782.174 89.98 782.678 91.108 783.566 91.924C784.454 92.74 785.546 93.148 786.842 93.148C788.714 93.148 790.046 92.344 790.838 90.736H796.274C795.698 92.656 794.594 94.24 792.962 95.488C791.33 96.712 789.326 97.324 786.95 97.324C785.03 97.324 783.302 96.904 781.766 96.064C780.254 95.2 779.066 93.988 778.202 92.428C777.362 90.868 776.942 89.068 776.942 87.028C776.942 84.964 777.362 83.152 778.202 81.592C779.042 80.032 780.218 78.832 781.73 77.992C783.242 77.152 784.982 76.732 786.95 76.732C788.846 76.732 790.538 77.14 792.026 77.956C793.538 78.772 794.702 79.936 795.518 81.448C796.358 82.936 796.778 84.652 796.778 86.596ZM791.558 85.156C791.534 83.86 791.066 82.828 790.154 82.06C789.242 81.268 788.126 80.872 786.806 80.872C785.558 80.872 784.502 81.256 783.638 82.024C782.798 82.768 782.282 83.812 782.09 85.156H791.558ZM799.161 86.956C799.161 84.94 799.557 83.152 800.349 81.592C801.165 80.032 802.269 78.832 803.661 77.992C805.053 77.152 806.601 76.732 808.305 76.732C809.601 76.732 810.837 77.02 812.013 77.596C813.189 78.148 814.125 78.892 814.821 79.828V70.36H819.933V97H814.821V94.048C814.197 95.032 813.321 95.824 812.193 96.424C811.065 97.024 809.757 97.324 808.269 97.324C806.589 97.324 805.053 96.892 803.661 96.028C802.269 95.164 801.165 93.952 800.349 92.392C799.557 90.808 799.161 88.996 799.161 86.956ZM814.857 87.028C814.857 85.804 814.617 84.76 814.137 83.896C813.657 83.008 813.009 82.336 812.193 81.88C811.377 81.4 810.501 81.16 809.565 81.16C808.629 81.16 807.765 81.388 806.973 81.844C806.181 82.3 805.533 82.972 805.029 83.86C804.549 84.724 804.309 85.756 804.309 86.956C804.309 88.156 804.549 89.212 805.029 90.124C805.533 91.012 806.181 91.696 806.973 92.176C807.789 92.656 808.653 92.896 809.565 92.896C810.501 92.896 811.377 92.668 812.193 92.212C813.009 91.732 813.657 91.06 814.137 90.196C814.617 89.308 814.857 88.252 814.857 87.028ZM829.895 79.972C830.543 79.012 831.431 78.232 832.559 77.632C833.711 77.032 835.019 76.732 836.483 76.732C838.187 76.732 839.723 77.152 841.091 77.992C842.483 78.832 843.575 80.032 844.367 81.592C845.183 83.128 845.591 84.916 845.591 86.956C845.591 88.996 845.183 90.808 844.367 92.392C843.575 93.952 842.483 95.164 841.091 96.028C839.723 96.892 838.187 97.324 836.483 97.324C834.995 97.324 833.687 97.036 832.559 96.46C831.455 95.86 830.567 95.092 829.895 94.156V97H824.855V70.36H829.895V79.972ZM840.443 86.956C840.443 85.756 840.191 84.724 839.687 83.86C839.207 82.972 838.559 82.3 837.743 81.844C836.951 81.388 836.087 81.16 835.151 81.16C834.239 81.16 833.375 81.4 832.559 81.88C831.767 82.336 831.119 83.008 830.615 83.896C830.135 84.784 829.895 85.828 829.895 87.028C829.895 88.228 830.135 89.272 830.615 90.16C831.119 91.048 831.767 91.732 832.559 92.212C833.375 92.668 834.239 92.896 835.151 92.896C836.087 92.896 836.951 92.656 837.743 92.176C838.559 91.696 839.207 91.012 839.687 90.124C840.191 89.236 840.443 88.18 840.443 86.956ZM847.958 86.956C847.958 84.94 848.354 83.152 849.146 81.592C849.962 80.032 851.054 78.832 852.422 77.992C853.814 77.152 855.362 76.732 857.066 76.732C858.554 76.732 859.85 77.032 860.954 77.632C862.082 78.232 862.982 78.988 863.654 79.9V77.056H868.73V97H863.654V94.084C863.006 95.02 862.106 95.8 860.954 96.424C859.826 97.024 858.518 97.324 857.03 97.324C855.35 97.324 853.814 96.892 852.422 96.028C851.054 95.164 849.962 93.952 849.146 92.392C848.354 90.808 847.958 88.996 847.958 86.956ZM863.654 87.028C863.654 85.804 863.414 84.76 862.934 83.896C862.454 83.008 861.806 82.336 860.99 81.88C860.174 81.4 859.298 81.16 858.362 81.16C857.426 81.16 856.562 81.388 855.77 81.844C854.978 82.3 854.33 82.972 853.826 83.86C853.346 84.724 853.106 85.756 853.106 86.956C853.106 88.156 853.346 89.212 853.826 90.124C854.33 91.012 854.978 91.696 855.77 92.176C856.586 92.656 857.45 92.896 858.362 92.896C859.298 92.896 860.174 92.668 860.99 92.212C861.806 91.732 862.454 91.06 862.934 90.196C863.414 89.308 863.654 88.252 863.654 87.028ZM872.356 87.028C872.356 84.964 872.776 83.164 873.616 81.628C874.456 80.068 875.62 78.868 877.108 78.028C878.596 77.164 880.3 76.732 882.22 76.732C884.692 76.732 886.732 77.356 888.34 78.604C889.972 79.828 891.064 81.556 891.616 83.788H886.18C885.892 82.924 885.4 82.252 884.704 81.772C884.032 81.268 883.192 81.016 882.184 81.016C880.744 81.016 879.604 81.544 878.764 82.6C877.924 83.632 877.504 85.108 877.504 87.028C877.504 88.924 877.924 90.4 878.764 91.456C879.604 92.488 880.744 93.004 882.184 93.004C884.224 93.004 885.556 92.092 886.18 90.268H891.616C891.064 92.428 889.972 94.144 888.34 95.416C886.708 96.688 884.668 97.324 882.22 97.324C880.3 97.324 878.596 96.904 877.108 96.064C875.62 95.2 874.456 94 873.616 92.464C872.776 90.904 872.356 89.092 872.356 87.028ZM907.116 97L900.348 88.504V97H895.308V70.36H900.348V85.516L907.044 77.056H913.596L904.812 87.064L913.668 97H907.116ZM923.352 71.008C925.848 71.008 927.852 71.692 929.364 73.06C930.9 74.404 931.668 76.264 931.668 78.64C931.668 80.992 930.912 82.792 929.4 84.04C927.888 85.264 925.884 85.876 923.388 85.876L923.244 88.648H918.816L918.636 82.528H920.256C922.344 82.528 923.952 82.252 925.08 81.7C926.208 81.148 926.772 80.14 926.772 78.676C926.772 77.62 926.46 76.78 925.836 76.156C925.236 75.532 924.408 75.22 923.352 75.22C922.248 75.22 921.384 75.52 920.76 76.12C920.16 76.72 919.86 77.548 919.86 78.604H915.108C915.084 77.14 915.396 75.832 916.044 74.68C916.692 73.528 917.64 72.628 918.888 71.98C920.16 71.332 921.648 71.008 923.352 71.008ZM921.012 97.252C920.1 97.252 919.344 96.976 918.744 96.424C918.168 95.848 917.88 95.14 917.88 94.3C917.88 93.46 918.168 92.764 918.744 92.212C919.344 91.636 920.1 91.348 921.012 91.348C921.9 91.348 922.632 91.636 923.208 92.212C923.784 92.764 924.072 93.46 924.072 94.3C924.072 95.14 923.784 95.848 923.208 96.424C922.632 96.976 921.9 97.252 921.012 97.252Z" fill="black"/>
<rect x="563.056" y="276" width="390.944" height="62" rx="30" fill="#1E6CFF"/>
<path d="M688.281 306.2C688.281 304.467 688.656 302.925 689.406 301.575C690.156 300.208 691.197 299.15 692.531 298.4C693.881 297.633 695.406 297.25 697.106 297.25C699.189 297.25 700.972 297.8 702.456 298.9C703.939 300 704.931 301.5 705.431 303.4H700.731C700.381 302.667 699.881 302.108 699.231 301.725C698.597 301.342 697.872 301.15 697.056 301.15C695.739 301.15 694.672 301.608 693.856 302.525C693.039 303.442 692.631 304.667 692.631 306.2C692.631 307.733 693.039 308.958 693.856 309.875C694.672 310.792 695.739 311.25 697.056 311.25C697.872 311.25 698.597 311.058 699.231 310.675C699.881 310.292 700.381 309.733 700.731 309H705.431C704.931 310.9 703.939 312.4 702.456 313.5C700.972 314.583 699.189 315.125 697.106 315.125C695.406 315.125 693.881 314.75 692.531 314C691.197 313.233 690.156 312.175 689.406 310.825C688.656 309.475 688.281 307.933 688.281 306.2ZM714.399 315.2C713.032 315.2 711.799 314.908 710.699 314.325C709.615 313.742 708.757 312.908 708.124 311.825C707.507 310.742 707.199 309.475 707.199 308.025C707.199 306.592 707.515 305.333 708.149 304.25C708.782 303.15 709.649 302.308 710.749 301.725C711.849 301.142 713.082 300.85 714.449 300.85C715.815 300.85 717.049 301.142 718.149 301.725C719.249 302.308 720.115 303.15 720.749 304.25C721.382 305.333 721.699 306.592 721.699 308.025C721.699 309.458 721.374 310.725 720.724 311.825C720.09 312.908 719.215 313.742 718.099 314.325C716.999 314.908 715.765 315.2 714.399 315.2ZM714.399 311.5C715.215 311.5 715.907 311.2 716.474 310.6C717.057 310 717.349 309.142 717.349 308.025C717.349 306.908 717.065 306.05 716.499 305.45C715.949 304.85 715.265 304.55 714.449 304.55C713.615 304.55 712.924 304.85 712.374 305.45C711.824 306.033 711.549 306.892 711.549 308.025C711.549 309.142 711.815 310 712.349 310.6C712.899 311.2 713.582 311.5 714.399 311.5ZM732.467 300.9C734.1 300.9 735.4 301.433 736.367 302.5C737.35 303.55 737.842 305 737.842 306.85V315H733.592V307.425C733.592 306.492 733.35 305.767 732.867 305.25C732.383 304.733 731.733 304.475 730.917 304.475C730.1 304.475 729.45 304.733 728.967 305.25C728.483 305.767 728.242 306.492 728.242 307.425V315H723.967V301.05H728.242V302.9C728.675 302.283 729.258 301.8 729.992 301.45C730.725 301.083 731.55 300.9 732.467 300.9ZM748.587 311.375V315H746.412C744.862 315 743.654 314.625 742.787 313.875C741.921 313.108 741.487 311.867 741.487 310.15V304.6H739.787V301.05H741.487V297.65H745.762V301.05H748.562V304.6H745.762V310.2C745.762 310.617 745.862 310.917 746.062 311.1C746.262 311.283 746.596 311.375 747.062 311.375H748.587ZM750.119 308C750.119 306.567 750.385 305.308 750.919 304.225C751.469 303.142 752.21 302.308 753.144 301.725C754.077 301.142 755.119 300.85 756.269 300.85C757.252 300.85 758.11 301.05 758.844 301.45C759.594 301.85 760.169 302.375 760.569 303.025V301.05H764.844V315H760.569V313.025C760.152 313.675 759.569 314.2 758.819 314.6C758.085 315 757.227 315.2 756.244 315.2C755.11 315.2 754.077 314.908 753.144 314.325C752.21 313.725 751.469 312.883 750.919 311.8C750.385 310.7 750.119 309.433 750.119 308ZM760.569 308.025C760.569 306.958 760.269 306.117 759.669 305.5C759.085 304.883 758.369 304.575 757.519 304.575C756.669 304.575 755.944 304.883 755.344 305.5C754.76 306.1 754.469 306.933 754.469 308C754.469 309.067 754.76 309.917 755.344 310.55C755.944 311.167 756.669 311.475 757.519 311.475C758.369 311.475 759.085 311.167 759.669 310.55C760.269 309.933 760.569 309.092 760.569 308.025ZM767.086 308.025C767.086 306.575 767.378 305.308 767.961 304.225C768.561 303.142 769.386 302.308 770.436 301.725C771.503 301.142 772.72 300.85 774.086 300.85C775.836 300.85 777.295 301.308 778.461 302.225C779.645 303.142 780.42 304.433 780.786 306.1H776.236C775.853 305.033 775.111 304.5 774.011 304.5C773.228 304.5 772.603 304.808 772.136 305.425C771.67 306.025 771.436 306.892 771.436 308.025C771.436 309.158 771.67 310.033 772.136 310.65C772.603 311.25 773.228 311.55 774.011 311.55C775.111 311.55 775.853 311.017 776.236 309.95H780.786C780.42 311.583 779.645 312.867 778.461 313.8C777.278 314.733 775.82 315.2 774.086 315.2C772.72 315.2 771.503 314.908 770.436 314.325C769.386 313.742 768.561 312.908 767.961 311.825C767.378 310.742 767.086 309.475 767.086 308.025ZM790.848 311.375V315H788.673C787.123 315 785.915 314.625 785.048 313.875C784.181 313.108 783.748 311.867 783.748 310.15V304.6H782.048V301.05H783.748V297.65H788.023V301.05H790.823V304.6H788.023V310.2C788.023 310.617 788.123 310.917 788.323 311.1C788.523 311.283 788.856 311.375 789.323 311.375H790.848ZM802.727 297.45V307.95C802.727 309 802.985 309.808 803.502 310.375C804.019 310.942 804.777 311.225 805.777 311.225C806.777 311.225 807.544 310.942 808.077 310.375C808.61 309.808 808.877 309 808.877 307.95V297.45H813.152V307.925C813.152 309.492 812.819 310.817 812.152 311.9C811.485 312.983 810.585 313.8 809.452 314.35C808.335 314.9 807.085 315.175 805.702 315.175C804.319 315.175 803.077 314.908 801.977 314.375C800.894 313.825 800.035 313.008 799.402 311.925C798.769 310.825 798.452 309.492 798.452 307.925V297.45H802.727ZM821.829 315.2C820.612 315.2 819.529 314.992 818.579 314.575C817.629 314.158 816.879 313.592 816.329 312.875C815.779 312.142 815.471 311.325 815.404 310.425H819.629C819.679 310.908 819.904 311.3 820.304 311.6C820.704 311.9 821.196 312.05 821.779 312.05C822.312 312.05 822.721 311.95 823.004 311.75C823.304 311.533 823.454 311.258 823.454 310.925C823.454 310.525 823.246 310.233 822.829 310.05C822.412 309.85 821.737 309.633 820.804 309.4C819.804 309.167 818.971 308.925 818.304 308.675C817.637 308.408 817.062 308 816.579 307.45C816.096 306.883 815.854 306.125 815.854 305.175C815.854 304.375 816.071 303.65 816.504 303C816.954 302.333 817.604 301.808 818.454 301.425C819.321 301.042 820.346 300.85 821.529 300.85C823.279 300.85 824.654 301.283 825.654 302.15C826.671 303.017 827.254 304.167 827.404 305.6H823.454C823.387 305.117 823.171 304.733 822.804 304.45C822.454 304.167 821.987 304.025 821.404 304.025C820.904 304.025 820.521 304.125 820.254 304.325C819.987 304.508 819.854 304.767 819.854 305.1C819.854 305.5 820.062 305.8 820.479 306C820.912 306.2 821.579 306.4 822.479 306.6C823.512 306.867 824.354 307.133 825.004 307.4C825.654 307.65 826.221 308.067 826.704 308.65C827.204 309.217 827.462 309.983 827.479 310.95C827.479 311.767 827.246 312.5 826.779 313.15C826.329 313.783 825.671 314.283 824.804 314.65C823.954 315.017 822.962 315.2 821.829 315.2Z" fill="white"/>
<path d="M582.966 123.666L578.522 139H576.278L572.714 126.658L569.018 139L566.796 139.022L562.506 123.666H564.64L567.984 136.668L571.68 123.666H573.924L577.444 136.624L580.81 123.666H582.966ZM596.157 132.51C596.157 132.891 596.135 133.295 596.091 133.72H586.455C586.528 134.908 586.932 135.839 587.665 136.514C588.413 137.174 589.315 137.504 590.371 137.504C591.236 137.504 591.955 137.306 592.527 136.91C593.114 136.499 593.524 135.957 593.759 135.282H595.915C595.592 136.441 594.947 137.387 593.979 138.12C593.011 138.839 591.808 139.198 590.371 139.198C589.227 139.198 588.2 138.941 587.291 138.428C586.396 137.915 585.692 137.189 585.179 136.25C584.666 135.297 584.409 134.197 584.409 132.95C584.409 131.703 584.658 130.611 585.157 129.672C585.656 128.733 586.352 128.015 587.247 127.516C588.156 127.003 589.198 126.746 590.371 126.746C591.515 126.746 592.527 126.995 593.407 127.494C594.287 127.993 594.962 128.682 595.431 129.562C595.915 130.427 596.157 131.41 596.157 132.51ZM594.089 132.092C594.089 131.329 593.92 130.677 593.583 130.134C593.246 129.577 592.784 129.159 592.197 128.88C591.625 128.587 590.987 128.44 590.283 128.44C589.271 128.44 588.406 128.763 587.687 129.408C586.983 130.053 586.58 130.948 586.477 132.092H594.089ZM620.725 126.944L616.963 139H614.895L611.991 129.43L609.087 139H607.019L603.235 126.944H605.281L608.053 137.064L611.045 126.944H613.091L616.017 137.086L618.745 126.944H620.725ZM621.964 132.928C621.964 131.696 622.213 130.618 622.712 129.694C623.21 128.755 623.892 128.029 624.758 127.516C625.638 127.003 626.613 126.746 627.684 126.746C628.74 126.746 629.656 126.973 630.434 127.428C631.211 127.883 631.79 128.455 632.172 129.144V126.944H634.196V139H632.172V136.756C631.776 137.46 631.182 138.047 630.39 138.516C629.612 138.971 628.703 139.198 627.662 139.198C626.591 139.198 625.623 138.934 624.758 138.406C623.892 137.878 623.21 137.137 622.712 136.184C622.213 135.231 621.964 134.145 621.964 132.928ZM632.172 132.95C632.172 132.041 631.988 131.249 631.622 130.574C631.255 129.899 630.756 129.386 630.126 129.034C629.51 128.667 628.828 128.484 628.08 128.484C627.332 128.484 626.65 128.66 626.034 129.012C625.418 129.364 624.926 129.877 624.56 130.552C624.193 131.227 624.01 132.019 624.01 132.928C624.01 133.852 624.193 134.659 624.56 135.348C624.926 136.023 625.418 136.543 626.034 136.91C626.65 137.262 627.332 137.438 628.08 137.438C628.828 137.438 629.51 137.262 630.126 136.91C630.756 136.543 631.255 136.023 631.622 135.348C631.988 134.659 632.172 133.859 632.172 132.95ZM643.453 126.724C644.919 126.724 646.107 127.171 647.017 128.066C647.926 128.946 648.381 130.222 648.381 131.894V139H646.401V132.18C646.401 130.977 646.1 130.061 645.499 129.43C644.897 128.785 644.076 128.462 643.035 128.462C641.979 128.462 641.135 128.792 640.505 129.452C639.889 130.112 639.581 131.073 639.581 132.334V139H637.579V126.944H639.581V128.66C639.977 128.044 640.512 127.567 641.187 127.23C641.876 126.893 642.631 126.724 643.453 126.724ZM654.093 128.594V135.7C654.093 136.287 654.218 136.705 654.467 136.954C654.716 137.189 655.149 137.306 655.765 137.306H657.239V139H655.435C654.32 139 653.484 138.743 652.927 138.23C652.37 137.717 652.091 136.873 652.091 135.7V128.594H650.529V126.944H652.091V123.908H654.093V126.944H657.239V128.594H654.093ZM667.972 128.594V135.7C667.972 136.287 668.097 136.705 668.346 136.954C668.595 137.189 669.028 137.306 669.644 137.306H671.118V139H669.314C668.199 139 667.363 138.743 666.806 138.23C666.249 137.717 665.97 136.873 665.97 135.7V128.594H664.408V126.944H665.97V123.908H667.972V126.944H671.118V128.594H667.972ZM678.802 139.198C677.672 139.198 676.646 138.941 675.722 138.428C674.812 137.915 674.094 137.189 673.566 136.25C673.052 135.297 672.796 134.197 672.796 132.95C672.796 131.718 673.06 130.633 673.588 129.694C674.13 128.741 674.864 128.015 675.788 127.516C676.712 127.003 677.746 126.746 678.89 126.746C680.034 126.746 681.068 127.003 681.992 127.516C682.916 128.015 683.642 128.733 684.17 129.672C684.712 130.611 684.984 131.703 684.984 132.95C684.984 134.197 684.705 135.297 684.148 136.25C683.605 137.189 682.864 137.915 681.926 138.428C680.987 138.941 679.946 139.198 678.802 139.198ZM678.802 137.438C679.52 137.438 680.195 137.269 680.826 136.932C681.456 136.595 681.962 136.089 682.344 135.414C682.74 134.739 682.938 133.918 682.938 132.95C682.938 131.982 682.747 131.161 682.366 130.486C681.984 129.811 681.486 129.313 680.87 128.99C680.254 128.653 679.586 128.484 678.868 128.484C678.134 128.484 677.46 128.653 676.844 128.99C676.242 129.313 675.758 129.811 675.392 130.486C675.025 131.161 674.842 131.982 674.842 132.95C674.842 133.933 675.018 134.761 675.37 135.436C675.736 136.111 676.22 136.617 676.822 136.954C677.423 137.277 678.083 137.438 678.802 137.438ZM699.465 126.724C700.374 126.724 701.196 126.922 701.929 127.318C702.662 127.699 703.234 128.279 703.645 129.056C704.07 129.833 704.283 130.779 704.283 131.894V139H702.303V132.18C702.303 130.977 702.002 130.061 701.401 129.43C700.8 128.785 699.978 128.462 698.937 128.462C697.881 128.462 697.038 128.792 696.407 129.452C695.791 130.112 695.483 131.073 695.483 132.334V139H693.481V122.72H695.483V128.66C695.879 128.044 696.422 127.567 697.111 127.23C697.815 126.893 698.6 126.724 699.465 126.724ZM718.553 132.51C718.553 132.891 718.531 133.295 718.487 133.72H708.851C708.925 134.908 709.328 135.839 710.061 136.514C710.809 137.174 711.711 137.504 712.767 137.504C713.633 137.504 714.351 137.306 714.923 136.91C715.51 136.499 715.921 135.957 716.155 135.282H718.311C717.989 136.441 717.343 137.387 716.375 138.12C715.407 138.839 714.205 139.198 712.767 139.198C711.623 139.198 710.597 138.941 709.687 138.428C708.793 137.915 708.089 137.189 707.575 136.25C707.062 135.297 706.805 134.197 706.805 132.95C706.805 131.703 707.055 130.611 707.553 129.672C708.052 128.733 708.749 128.015 709.643 127.516C710.553 127.003 711.594 126.746 712.767 126.746C713.911 126.746 714.923 126.995 715.803 127.494C716.683 127.993 717.358 128.682 717.827 129.562C718.311 130.427 718.553 131.41 718.553 132.51ZM716.485 132.092C716.485 131.329 716.317 130.677 715.979 130.134C715.642 129.577 715.18 129.159 714.593 128.88C714.021 128.587 713.383 128.44 712.679 128.44C711.667 128.44 710.802 128.763 710.083 129.408C709.379 130.053 708.976 130.948 708.873 132.092H716.485ZM720.448 132.928C720.448 131.696 720.697 130.618 721.196 129.694C721.695 128.755 722.377 128.029 723.242 127.516C724.122 127.003 725.097 126.746 726.168 126.746C727.224 126.746 728.141 126.973 728.918 127.428C729.695 127.883 730.275 128.455 730.656 129.144V126.944H732.68V139H730.656V136.756C730.26 137.46 729.666 138.047 728.874 138.516C728.097 138.971 727.187 139.198 726.146 139.198C725.075 139.198 724.107 138.934 723.242 138.406C722.377 137.878 721.695 137.137 721.196 136.184C720.697 135.231 720.448 134.145 720.448 132.928ZM730.656 132.95C730.656 132.041 730.473 131.249 730.106 130.574C729.739 129.899 729.241 129.386 728.61 129.034C727.994 128.667 727.312 128.484 726.564 128.484C725.816 128.484 725.134 128.66 724.518 129.012C723.902 129.364 723.411 129.877 723.044 130.552C722.677 131.227 722.494 132.019 722.494 132.928C722.494 133.852 722.677 134.659 723.044 135.348C723.411 136.023 723.902 136.543 724.518 136.91C725.134 137.262 725.816 137.438 726.564 137.438C727.312 137.438 727.994 137.262 728.61 136.91C729.241 136.543 729.739 136.023 730.106 135.348C730.473 134.659 730.656 133.859 730.656 132.95ZM738.065 128.902C738.417 128.213 738.916 127.677 739.561 127.296C740.221 126.915 741.02 126.724 741.959 126.724V128.792H741.431C739.187 128.792 738.065 130.009 738.065 132.444V139H736.063V126.944H738.065V128.902ZM755.041 128.594H752.511V139H750.509V128.594H748.947V126.944H750.509V126.086C750.509 124.737 750.854 123.754 751.543 123.138C752.247 122.507 753.369 122.192 754.909 122.192V123.864C754.029 123.864 753.406 124.04 753.039 124.392C752.687 124.729 752.511 125.294 752.511 126.086V126.944H755.041V128.594ZM759.378 128.902C759.73 128.213 760.228 127.677 760.874 127.296C761.534 126.915 762.333 126.724 763.272 126.724V128.792H762.744C760.5 128.792 759.378 130.009 759.378 132.444V139H757.376V126.944H759.378V128.902ZM770.841 139.198C769.711 139.198 768.685 138.941 767.761 138.428C766.851 137.915 766.133 137.189 765.605 136.25C765.091 135.297 764.835 134.197 764.835 132.95C764.835 131.718 765.099 130.633 765.627 129.694C766.169 128.741 766.903 128.015 767.827 127.516C768.751 127.003 769.785 126.746 770.929 126.746C772.073 126.746 773.107 127.003 774.031 127.516C774.955 128.015 775.681 128.733 776.209 129.672C776.751 130.611 777.023 131.703 777.023 132.95C777.023 134.197 776.744 135.297 776.187 136.25C775.644 137.189 774.903 137.915 773.965 138.428C773.026 138.941 771.985 139.198 770.841 139.198ZM770.841 137.438C771.559 137.438 772.234 137.269 772.865 136.932C773.495 136.595 774.001 136.089 774.383 135.414C774.779 134.739 774.977 133.918 774.977 132.95C774.977 131.982 774.786 131.161 774.405 130.486C774.023 129.811 773.525 129.313 772.909 128.99C772.293 128.653 771.625 128.484 770.907 128.484C770.173 128.484 769.499 128.653 768.883 128.99C768.281 129.313 767.797 129.811 767.431 130.486C767.064 131.161 766.881 131.982 766.881 132.95C766.881 133.933 767.057 134.761 767.409 135.436C767.775 136.111 768.259 136.617 768.861 136.954C769.462 137.277 770.122 137.438 770.841 137.438ZM794.153 126.724C795.092 126.724 795.928 126.922 796.661 127.318C797.394 127.699 797.974 128.279 798.399 129.056C798.824 129.833 799.037 130.779 799.037 131.894V139H797.057V132.18C797.057 130.977 796.756 130.061 796.155 129.43C795.568 128.785 794.769 128.462 793.757 128.462C792.716 128.462 791.887 128.799 791.271 129.474C790.655 130.134 790.347 131.095 790.347 132.356V139H788.367V132.18C788.367 130.977 788.066 130.061 787.465 129.43C786.878 128.785 786.079 128.462 785.067 128.462C784.026 128.462 783.197 128.799 782.581 129.474C781.965 130.134 781.657 131.095 781.657 132.356V139H779.655V126.944H781.657V128.682C782.053 128.051 782.581 127.567 783.241 127.23C783.916 126.893 784.656 126.724 785.463 126.724C786.475 126.724 787.37 126.951 788.147 127.406C788.924 127.861 789.504 128.528 789.885 129.408C790.222 128.557 790.78 127.897 791.557 127.428C792.334 126.959 793.2 126.724 794.153 126.724ZM818.57 126.944L811.31 144.676H809.242L811.618 138.868L806.756 126.944H808.978L812.762 136.712L816.502 126.944H818.57ZM825.841 139.198C824.711 139.198 823.685 138.941 822.761 138.428C821.851 137.915 821.133 137.189 820.605 136.25C820.091 135.297 819.835 134.197 819.835 132.95C819.835 131.718 820.099 130.633 820.627 129.694C821.169 128.741 821.903 128.015 822.827 127.516C823.751 127.003 824.785 126.746 825.929 126.746C827.073 126.746 828.107 127.003 829.031 127.516C829.955 128.015 830.681 128.733 831.209 129.672C831.751 130.611 832.023 131.703 832.023 132.95C832.023 134.197 831.744 135.297 831.187 136.25C830.644 137.189 829.903 137.915 828.965 138.428C828.026 138.941 826.985 139.198 825.841 139.198ZM825.841 137.438C826.559 137.438 827.234 137.269 827.865 136.932C828.495 136.595 829.001 136.089 829.383 135.414C829.779 134.739 829.977 133.918 829.977 132.95C829.977 131.982 829.786 131.161 829.405 130.486C829.023 129.811 828.525 129.313 827.909 128.99C827.293 128.653 826.625 128.484 825.907 128.484C825.173 128.484 824.499 128.653 823.883 128.99C823.281 129.313 822.797 129.811 822.431 130.486C822.064 131.161 821.881 131.982 821.881 132.95C821.881 133.933 822.057 134.761 822.409 135.436C822.775 136.111 823.259 136.617 823.861 136.954C824.462 137.277 825.122 137.438 825.841 137.438ZM845.347 126.944V139H843.345V137.218C842.964 137.834 842.428 138.318 841.739 138.67C841.064 139.007 840.316 139.176 839.495 139.176C838.556 139.176 837.713 138.985 836.965 138.604C836.217 138.208 835.623 137.621 835.183 136.844C834.758 136.067 834.545 135.121 834.545 134.006V126.944H836.525V133.742C836.525 134.93 836.826 135.847 837.427 136.492C838.028 137.123 838.85 137.438 839.891 137.438C840.962 137.438 841.805 137.108 842.421 136.448C843.037 135.788 843.345 134.827 843.345 133.566V126.944H845.347ZM851.323 123.666L851.081 134.666H849.409L849.167 123.666H851.323ZM850.333 139.132C849.952 139.132 849.629 139 849.365 138.736C849.101 138.472 848.969 138.149 848.969 137.768C848.969 137.387 849.101 137.064 849.365 136.8C849.629 136.536 849.952 136.404 850.333 136.404C850.7 136.404 851.008 136.536 851.257 136.8C851.521 137.064 851.653 137.387 851.653 137.768C851.653 138.149 851.521 138.472 851.257 138.736C851.008 139 850.7 139.132 850.333 139.132Z" fill="black"/>
<path d="M218.68 121.273H57.701L27.7768 154.623V121.273H0V0H218.68V121.273Z" fill="#E5E5E5"/>
<path d="M182.823 35.6241H35.8579V42.1931H182.823V35.6241Z" fill="white"/>
<path d="M182.823 57.3522H35.8579V63.9211H182.823V57.3522Z" fill="white"/>
<path d="M182.823 79.0802H35.8579V85.6492H182.823V79.0802Z" fill="white"/>
<path d="M28.2196 175.035C31.2719 175.035 33.7463 172.56 33.7463 169.506C33.7463 166.452 31.2719 163.976 28.2196 163.976C25.1673 163.976 22.6929 166.452 22.6929 169.506C22.6929 172.56 25.1673 175.035 28.2196 175.035Z" fill="#E6E6E6"/>
<path d="M386.011 331.943H379.818L376.872 308.045H386.011L386.011 331.943Z" fill="#9F616A"/>
<path d="M387.589 337.949L367.622 337.948V337.695C367.622 335.633 368.441 333.655 369.899 332.197C371.356 330.739 373.333 329.92 375.394 329.919H375.394L387.59 329.92L387.589 337.949Z" fill="#2F2E41"/>
<path d="M325.655 331.452L319.784 329.483L324.583 305.887L333.249 308.794L325.655 331.452Z" fill="#9F616A"/>
<path d="M325.245 337.649L306.313 331.298L306.394 331.058C307.049 329.103 308.454 327.488 310.299 326.569C312.144 325.65 314.278 325.502 316.233 326.158L316.233 326.158L327.796 330.037L325.245 337.649Z" fill="#2F2E41"/>
<path d="M333.289 208.435L319.879 321.934L333.031 323.044C333.031 323.044 353.72 211.453 360.098 224.672C366.476 237.891 374.291 320.567 374.291 320.567H387.344C387.344 320.567 390.692 191.57 377.024 185.188L333.289 208.435Z" fill="#2F2E41"/>
<path d="M368.047 114.928C369.313 107.738 364.514 100.883 357.328 99.6163C350.142 98.3497 343.291 103.151 342.025 110.341C340.759 117.531 345.558 124.386 352.744 125.653C359.93 126.919 366.781 122.118 368.047 114.928Z" fill="#9F616A"/>
<path d="M347.185 130.718L364.041 132.085C364.041 132.085 377.481 132.313 382.948 135.96C388.415 139.606 377.709 162.169 377.709 162.169C377.709 162.169 374.926 171.115 377.025 175.16C383.839 188.285 382.829 198.393 382.829 198.393C382.829 198.393 368.825 201.598 344.679 207.979C344.679 207.979 329.645 213.905 330.101 210.714C330.557 207.524 335.112 171.058 335.112 171.058V133.225L347.185 130.718Z" fill="#3F3D56"/>
<path d="M376.672 111.202C375.998 107.438 374.487 102.098 371.121 98.0491C371.227 98.0497 371.333 98.0543 371.439 98.0513C372.596 98.0175 373.912 97.6525 374.39 96.5981C374.544 96.1757 374.582 95.7198 374.501 95.2775C374.42 94.8352 374.222 94.4227 373.928 94.0827C373.332 93.411 372.618 92.8532 371.822 92.4364C372.634 92.9295 373.781 93.3874 374.429 92.6929C374.596 92.4835 374.699 92.231 374.727 91.9649C374.756 91.6988 374.707 91.4302 374.588 91.1906C374.342 90.7152 373.997 90.2984 373.576 89.9685C372.211 88.761 370.718 87.7069 369.124 86.8253C367.889 86.1429 366.266 85.595 365.157 86.4679C364.029 87.3572 364.21 89.0888 364.5 90.4968C363.868 90.127 363.157 89.9124 362.426 89.8706C362.061 89.8601 361.703 89.9761 361.413 90.1988C361.123 90.4216 360.919 90.7376 360.835 91.0934C360.825 91.3742 360.887 91.653 361.016 91.9027C361.144 92.1524 361.335 92.3646 361.57 92.5188C357.214 91.8021 351.648 92.6154 344.532 95.9096C344.532 95.9096 337.633 98.2107 337.282 107.298C337.247 108.751 337.408 110.203 337.761 111.613C338.15 113.261 339.533 121.342 337.874 124.608L346.183 127.57L346.278 122.591C339.821 113.264 343.011 109.841 345.525 104.231C345.529 104.221 345.536 104.212 345.545 104.206C345.554 104.199 345.565 104.196 345.576 104.195C345.587 104.194 345.598 104.196 345.607 104.201C345.617 104.206 345.625 104.214 345.631 104.224C346.096 105.021 347.876 107.756 354.004 107.756L351.636 105.387C351.636 105.387 362.055 109.651 365.844 109.651C365.844 109.651 368.686 111.547 365.844 114.39C363.003 117.233 356.784 121.417 360.099 126.63C363.414 131.842 363.128 133.691 363.128 133.691L370.706 129.427C370.706 129.427 375.334 120.265 376.155 117.567C376.829 115.516 377.007 113.335 376.672 111.202V111.202Z" fill="#2F2E41"/>
<path d="M285.621 213.926H436.365V297.524H417.218V320.513L396.59 297.524H285.621V213.926Z" fill="#6C63FF"/>
<path d="M411.647 238.483H310.339V243.011H411.647V238.483Z" fill="white"/>
<path d="M411.647 253.461H310.339V257.989H411.647V253.461Z" fill="white"/>
<path d="M411.647 268.439H310.339V272.967H411.647V268.439Z" fill="white"/>
<path d="M384.599 160.361L375.757 162.511L375.69 180.415L365.745 214.757C364.949 215.387 364.341 216.223 363.986 217.174C363.631 218.125 363.544 219.155 363.733 220.153C363.922 221.151 364.381 222.077 365.059 222.832C365.738 223.588 366.61 224.142 367.581 224.437C368.552 224.731 369.586 224.754 370.569 224.502C371.552 224.25 372.447 223.734 373.158 223.009C373.868 222.284 374.367 221.378 374.599 220.39C374.832 219.401 374.789 218.368 374.476 217.402L386.364 181.851L384.599 160.361Z" fill="#9F616A"/>
<path d="M325.752 159.984L336.359 163.017L336.426 180.92L346.371 215.262C347.167 215.892 347.775 216.728 348.13 217.679C348.485 218.63 348.572 219.661 348.383 220.658C348.194 221.656 347.735 222.583 347.057 223.338C346.378 224.093 345.506 224.648 344.535 224.942C343.564 225.236 342.531 225.259 341.547 225.007C340.564 224.755 339.669 224.239 338.958 223.514C338.248 222.789 337.749 221.883 337.517 220.895C337.285 219.907 337.327 218.873 337.64 217.908L325.752 182.356V159.984Z" fill="#9F616A"/>
<path d="M371.33 134.136L373.521 133.421C374.751 133.02 376.09 133.113 377.253 133.68V133.68C377.253 133.68 383.631 134.136 384.542 138.695C385.453 143.253 387.669 183.094 387.669 183.094L374.159 178.793L371.33 134.136Z" fill="#3F3D56"/>
<path d="M340.579 134.136L336.7 133.941L335.472 133.327C335.472 133.327 328.278 134.136 327.367 138.695C326.456 143.253 323.805 184.323 323.805 184.323L337.314 180.636L340.579 134.136Z" fill="#3F3D56"/>
<path d="M117.766 295.624L124.17 290.035C123.896 286.021 123.396 282.025 122.672 278.066L119.138 279.562L122.417 276.7C121.474 271.815 120.54 268.639 120.54 268.639C120.54 268.639 107.619 280.119 100.389 294.123L103.561 304.561L98.7165 297.659C97.9961 299.325 97.3812 301.035 96.8754 302.778C91.8341 320.374 93.4908 336.285 100.576 338.317C107.661 340.35 117.491 327.733 122.533 310.138C124.004 304.501 124.603 298.673 124.308 292.855L117.766 295.624Z" fill="#F1F1F1"/>
<path d="M134.723 309.306L143.093 307.833C144.932 304.255 146.569 300.575 147.994 296.813L144.196 296.265L148.481 295.511C150.198 290.841 151.039 287.64 151.039 287.64C151.039 287.64 134.048 290.785 120.624 299.033L117.946 309.61L117.365 301.195C115.887 302.249 114.478 303.395 113.144 304.626C99.738 317.081 92.936 331.559 97.9513 336.963C102.967 342.366 117.9 336.65 131.306 324.195C135.477 320.131 139.001 315.451 141.755 310.319L134.723 309.306Z" fill="#F1F1F1"/>
<path d="M456.386 338.54H76.8831C76.7203 338.54 76.5641 338.475 76.4489 338.36C76.3337 338.244 76.269 338.088 76.269 337.925C76.269 337.762 76.3337 337.606 76.4489 337.491C76.5641 337.376 76.7203 337.311 76.8831 337.311H456.386C456.549 337.311 456.705 337.376 456.82 337.491C456.935 337.606 457 337.762 457 337.925C457 338.088 456.935 338.244 456.82 338.36C456.705 338.475 456.549 338.54 456.386 338.54Z" fill="#CBCBCB"/>
</svg>
