<svg width="1440" height="484" viewBox="0 0 1440 484" fill="none" xmlns="http://www.w3.org/2000/svg">
<rect width="1440" height="484" fill="#F8F8F8"/>
<rect y="421" width="1440" height="63" fill="#C4C4C4"/>
<g clip-path="url(#clip0)">
<path d="M807.758 458.626H765.079C765.079 458.626 764.214 445.938 769.333 445.794C774.451 445.649 773.875 451.417 780.291 443.487C786.707 435.557 794.493 435.989 795.502 440.675C796.511 445.361 793.556 449.11 798.962 447.956C804.369 446.803 812.155 449.831 807.758 458.626Z" fill="#536DFE"/>
<path d="M806.848 449.054C803.706 448.77 800.553 449.482 797.838 451.088C795.122 452.695 792.981 455.115 791.717 458.007C791.475 458.56 792.292 459.043 792.535 458.485C793.713 455.736 795.734 453.433 798.307 451.908C800.88 450.383 803.871 449.715 806.848 450.002C807.455 450.057 807.452 449.108 806.848 449.054Z" fill="#3F3D56"/>
<path d="M769.009 446.304C770.374 447.889 771.403 449.733 772.036 451.727C772.668 453.72 772.889 455.821 772.687 457.903C772.627 458.509 773.575 458.505 773.634 457.903C773.838 455.696 773.592 453.472 772.912 451.364C772.233 449.255 771.133 447.306 769.679 445.634C769.278 445.173 768.61 445.846 769.009 446.304Z" fill="#3F3D56"/>
<path d="M792.339 437.991C789.536 442.71 787.358 447.774 785.862 453.056C785.437 454.558 785.069 456.075 784.758 457.607C784.637 458.202 785.55 458.457 785.672 457.859C786.754 452.536 788.527 447.379 790.947 442.516C791.634 441.14 792.371 439.791 793.158 438.469C793.216 438.361 793.23 438.234 793.197 438.116C793.164 437.997 793.086 437.897 792.98 437.835C792.874 437.772 792.747 437.754 792.628 437.783C792.509 437.812 792.405 437.887 792.339 437.991V437.991Z" fill="#3F3D56"/>
<path d="M826.395 380.138V413.448H736.031C735.659 413.448 735.29 413.375 734.946 413.233C734.602 413.09 734.289 412.881 734.026 412.618C733.763 412.355 733.554 412.042 733.412 411.698C733.269 411.354 733.196 410.986 733.196 410.613V377.303H823.56C823.932 377.303 824.301 377.376 824.645 377.518C824.989 377.661 825.301 377.87 825.565 378.133C825.828 378.396 826.037 378.709 826.179 379.053C826.322 379.397 826.395 379.765 826.395 380.138Z" fill="#536DFE"/>
<path d="M784.534 413.448H783.902V458.942H784.534V413.448Z" fill="#3F3D56"/>
<path d="M832.713 413.764H735.724C734.97 413.763 734.247 413.463 733.714 412.93C733.181 412.397 732.881 411.675 732.88 410.921V370.166C732.881 369.412 733.181 368.69 733.714 368.156C734.247 367.623 734.97 367.324 735.724 367.323H832.713C833.467 367.324 834.19 367.623 834.723 368.156C835.256 368.69 835.556 369.412 835.557 370.166V410.921C835.556 411.675 835.256 412.397 834.723 412.93C834.19 413.463 833.467 413.763 832.713 413.764ZM735.724 367.955C735.137 367.955 734.575 368.188 734.16 368.603C733.746 369.018 733.513 369.58 733.512 370.166V410.921C733.513 411.507 733.746 412.069 734.16 412.484C734.575 412.898 735.137 413.132 735.724 413.132H832.713C833.3 413.132 833.862 412.898 834.276 412.484C834.691 412.069 834.924 411.507 834.925 410.921V370.166C834.924 369.58 834.691 369.018 834.276 368.603C833.862 368.188 833.3 367.955 832.713 367.955H735.724Z" fill="#3F3D56"/>
<path d="M805.86 388.806H748.677C748.425 388.806 748.184 388.706 748.006 388.528C747.829 388.351 747.729 388.109 747.729 387.858C747.729 387.607 747.829 387.366 748.006 387.188C748.184 387.01 748.425 386.91 748.677 386.91H805.86C806.111 386.91 806.352 387.01 806.53 387.188C806.707 387.366 806.807 387.607 806.807 387.858C806.807 388.109 806.707 388.351 806.53 388.528C806.352 388.706 806.111 388.806 805.86 388.806Z" fill="white"/>
<path d="M805.86 396.704H748.677C748.425 396.704 748.184 396.604 748.006 396.426C747.829 396.249 747.729 396.008 747.729 395.756C747.729 395.505 747.829 395.264 748.006 395.086C748.184 394.908 748.425 394.808 748.677 394.808H805.86C806.111 394.808 806.352 394.908 806.53 395.086C806.707 395.264 806.807 395.505 806.807 395.756C806.807 396.008 806.707 396.249 806.53 396.426C806.352 396.604 806.111 396.704 805.86 396.704Z" fill="white"/>
<path d="M805.86 404.602H748.677C748.425 404.602 748.184 404.502 748.006 404.325C747.829 404.147 747.729 403.906 747.729 403.654C747.729 403.403 747.829 403.162 748.006 402.984C748.184 402.807 748.425 402.707 748.677 402.707H805.86C806.111 402.707 806.352 402.807 806.53 402.984C806.707 403.162 806.807 403.403 806.807 403.654C806.807 403.906 806.707 404.147 806.53 404.325C806.352 404.502 806.111 404.602 805.86 404.602Z" fill="white"/>
<path d="M835.15 377.89C840.884 377.89 845.533 373.241 845.533 367.506C845.533 361.772 840.884 357.123 835.15 357.123C829.415 357.123 824.766 361.772 824.766 367.506C824.766 373.241 829.415 377.89 835.15 377.89Z" fill="#CCCCCC"/>
<path d="M835.193 370.632L829.997 365.436C829.828 365.267 829.734 365.037 829.734 364.798C829.735 364.559 829.83 364.33 829.999 364.161C830.168 363.992 830.397 363.897 830.636 363.897C830.875 363.896 831.104 363.991 831.274 364.159L835.106 367.992L847.337 354.045C847.495 353.865 847.718 353.755 847.957 353.74C848.196 353.724 848.431 353.804 848.611 353.962C848.791 354.12 848.9 354.342 848.916 354.581C848.932 354.82 848.852 355.055 848.695 355.235L835.193 370.632Z" fill="#536DFE"/>
<path d="M661.336 359.422C661.336 359.422 667.735 355.381 673.797 360.096L677.838 402.192C677.838 402.192 662.684 413.979 658.979 402.866L661.336 359.422Z" fill="#E6E6E6"/>
<path d="M659.774 455.104L655.901 455.103L654.611 440.219L659.775 440.164L659.774 455.104Z" fill="#FFB8B8"/>
<path d="M653.134 453.997H660.604V458.7H648.431C648.431 458.082 648.553 457.471 648.789 456.9C649.026 456.33 649.372 455.811 649.809 455.374C650.246 454.938 650.764 454.591 651.335 454.355C651.905 454.118 652.517 453.997 653.134 453.997Z" fill="#2F2E41"/>
<path d="M673.774 455.104L677.648 455.103L679.49 440.164L673.774 440.164L673.774 455.104Z" fill="#FFB8B8"/>
<path d="M685.117 458.7L672.944 458.7L672.944 453.997L680.414 453.997C681.661 453.997 682.858 454.492 683.74 455.374C684.622 456.256 685.117 457.452 685.117 458.7L685.117 458.7Z" fill="#2F2E41"/>
<path d="M651.402 402.361L654.769 452.54L659.989 452.371L666.893 412.127L673.292 451.866L679.354 452.203L681.038 400.34C681.038 400.34 655.443 394.615 651.402 402.361Z" fill="#2F2E41"/>
<path d="M667.293 355.162C671.578 355.162 675.052 351.688 675.052 347.403C675.052 343.117 671.578 339.643 667.293 339.643C663.008 339.643 659.533 343.117 659.533 347.403C659.533 351.688 663.008 355.162 667.293 355.162Z" fill="#FFB8B8"/>
<path d="M662.515 357.907L660.495 359.254C660.495 359.254 652.075 359.254 651.402 364.305C650.728 369.357 648.876 403.876 650.897 403.876C652.917 403.876 653.254 401.182 653.254 401.182C653.254 401.182 654.601 401.519 657.295 404.213C659.989 406.907 661.673 406.907 662.684 402.866C663.694 398.824 670.429 367.841 664.031 362.116L662.515 357.907Z" fill="#2F2E41"/>
<path d="M672.282 357.907L674.302 359.254C674.302 359.254 682.722 359.254 683.395 364.305C684.069 369.357 685.921 403.876 683.9 403.876C681.88 403.876 681.543 401.182 681.543 401.182C681.543 401.182 680.196 401.519 677.502 404.213C674.807 406.907 673.124 406.907 672.113 402.866C671.103 398.824 664.367 367.841 670.766 362.116L672.282 357.907Z" fill="#2F2E41"/>
<path d="M660.997 352.134C660.42 351.526 660.037 350.761 659.897 349.934C659.757 349.108 659.865 348.259 660.209 347.495C660.552 346.731 661.116 346.086 661.827 345.643C662.538 345.199 663.365 344.978 664.202 345.006C665.275 345.041 666.286 345.48 667.31 345.803C668.862 346.331 670.518 346.48 672.139 346.238C673.77 345.984 675.242 345.115 676.251 343.809C677.212 342.49 677.511 340.66 676.833 339.176C676.05 337.462 674.221 336.518 672.5 335.751C671.806 335.404 671.065 335.16 670.301 335.028C669.917 334.965 669.525 334.981 669.149 335.076C668.772 335.171 668.419 335.342 668.112 335.58C667.629 335.996 667.345 336.621 666.819 336.981C666.227 337.387 665.458 337.376 664.743 337.448C663.134 337.609 661.613 338.256 660.38 339.303C659.148 340.35 658.264 341.747 657.845 343.309C657.427 344.871 657.493 346.523 658.037 348.046C658.58 349.569 659.574 350.891 660.887 351.835" fill="#2F2E41"/>
<path d="M687.428 407.561C687.791 407.223 688.076 406.809 688.261 406.349C688.447 405.889 688.53 405.394 688.503 404.898C688.477 404.403 688.342 403.919 688.109 403.481C687.875 403.044 687.549 402.662 687.152 402.364L687.06 393.459L682.4 394.343L682.227 403.217C681.771 403.917 681.587 404.759 681.711 405.586C681.835 406.412 682.257 407.164 682.898 407.699C683.539 408.235 684.355 408.517 685.19 408.491C686.025 408.466 686.821 408.135 687.428 407.561Z" fill="#FFB8B8"/>
<path d="M654.888 405.982C655.251 405.643 655.535 405.229 655.721 404.769C655.907 404.309 655.989 403.814 655.963 403.319C655.936 402.823 655.802 402.339 655.568 401.902C655.335 401.464 655.008 401.083 654.611 400.785L654.52 391.88L649.86 392.764L649.686 401.637C649.23 402.337 649.047 403.18 649.17 404.006C649.294 404.832 649.716 405.584 650.358 406.12C650.999 406.655 651.814 406.937 652.649 406.911C653.484 406.886 654.281 406.555 654.888 405.982Z" fill="#FFB8B8"/>
<path d="M682.216 363.8L683.428 364.568C683.428 364.568 688.415 383.667 688.447 396.635C688.447 396.635 681.88 399.835 680.869 397.477C679.859 395.12 682.216 363.8 682.216 363.8Z" fill="#2F2E41"/>
<path d="M652.58 363.8L651.369 364.568C651.369 364.568 647.029 383.667 648.202 396.467C648.202 396.467 655.106 399.666 656.117 397.309C657.127 394.952 652.58 363.8 652.58 363.8Z" fill="#2F2E41"/>
</g>
<g clip-path="url(#clip1)">
<path d="M1069.28 450.832C1068.27 454.688 1064.72 457.098 1064.72 457.098C1064.72 457.098 1062.81 453.256 1063.82 449.4C1064.84 445.544 1068.38 443.134 1068.38 443.134C1068.38 443.134 1070.29 446.976 1069.28 450.832Z" fill="#3F3D56"/>
<path d="M1067.74 450.017C1064.91 452.818 1064.59 457.096 1064.59 457.096C1064.59 457.096 1068.87 456.83 1071.71 454.028C1074.54 451.226 1074.86 446.949 1074.86 446.949C1074.86 446.949 1070.58 447.215 1067.74 450.017Z" fill="#536DFE"/>
<path d="M964.983 436.246H970.324L983.485 431.096C983.485 431.096 992.832 427.281 992.069 434.529C991.306 441.778 989.971 451.506 989.971 451.506C989.971 451.506 985.774 449.598 983.485 450.171C981.196 450.743 982.722 438.535 982.722 438.535C982.722 438.535 964.029 447.5 962.312 446.356C960.595 445.211 960.214 437.2 960.214 437.2L964.983 436.246Z" fill="#2F2E41"/>
<path opacity="0.1" d="M964.983 436.246H970.324L983.485 431.096C983.485 431.096 992.832 427.281 992.069 434.529C991.306 441.778 989.971 451.506 989.971 451.506C989.971 451.506 985.774 449.598 983.485 450.171C981.196 450.743 982.722 438.535 982.722 438.535C982.722 438.535 964.029 447.5 962.312 446.356C960.595 445.211 960.214 437.2 960.214 437.2L964.983 436.246Z" fill="black"/>
<path d="M973.397 419.52L979.861 428.807L994.93 441.396C994.93 441.396 1008.86 444.639 1006.95 446.928C1005.04 449.217 993.404 444.639 993.404 444.639C993.404 444.639 976.046 432.049 975.474 431.096C974.902 430.142 968.607 421.177 968.607 421.177L973.397 419.52Z" fill="#A0616A"/>
<path opacity="0.1" d="M973.397 419.52L979.861 428.807L994.93 441.396C994.93 441.396 1008.86 444.639 1006.95 446.928C1005.04 449.217 993.404 444.639 993.404 444.639C993.404 444.639 976.046 432.049 975.474 431.096C974.902 430.142 968.607 421.177 968.607 421.177L973.397 419.52Z" fill="black"/>
<path d="M969.561 412.021L973.757 420.223C973.757 420.223 972.803 424.229 971.277 424.61C969.751 424.992 963.266 419.651 963.266 419.651L969.561 412.021Z" fill="#D0CDE1"/>
<path opacity="0.1" d="M969.561 412.021L973.757 420.223C973.757 420.223 972.803 424.229 971.277 424.61C969.751 424.992 963.266 419.651 963.266 419.651L969.561 412.021Z" fill="black"/>
<path d="M1020.76 431.999L1022 437.112C1022.01 437.169 1022.01 437.229 1021.99 437.285L1016.37 454.857C1016.34 454.927 1016.3 454.987 1016.24 455.027C1016.18 455.067 1016.1 455.085 1016.03 455.078C1015.96 455.071 1015.89 455.039 1015.84 454.988C1015.79 454.936 1015.75 454.869 1015.74 454.796L1014.97 447.951C1014.96 447.905 1014.97 447.859 1014.98 447.816L1020.14 431.975C1020.16 431.909 1020.21 431.852 1020.26 431.812C1020.32 431.772 1020.39 431.752 1020.46 431.755C1020.53 431.758 1020.59 431.783 1020.65 431.827C1020.7 431.871 1020.74 431.931 1020.76 431.999Z" fill="#2F2E41"/>
<path d="M1020.3 432.431L1021.44 436.818L1016.48 452.841L1015.34 447.882L1020.3 432.431Z" fill="#F2F2F2"/>
<path d="M995.312 456.275C995.503 456.847 1015.15 456.084 1015.34 455.893C1015.51 455.654 1015.65 455.398 1015.76 455.13C1015.94 454.749 1016.1 454.367 1016.1 454.367L1015.34 448.191L995.884 447.5C995.884 447.5 995.398 452.734 995.298 455.13C995.274 455.735 995.274 456.16 995.312 456.275Z" fill="#2F2E41"/>
<path opacity="0.1" d="M1012.86 449.026L1013.24 454.367H1004.66V449.026H1012.86Z" fill="black"/>
<path opacity="0.1" d="M1001.8 450.743L1001.85 450.733L1001.61 453.032H996.838V450.743H1001.8Z" fill="black"/>
<path opacity="0.1" d="M995.312 456.275C995.503 456.847 1015.15 456.084 1015.34 455.893C1015.51 455.654 1015.65 455.398 1015.76 455.13H995.298C995.274 455.735 995.274 456.16 995.312 456.275Z" fill="black"/>
<path d="M972.422 409.35C977.162 409.35 981.006 405.507 981.006 400.766C981.006 396.026 977.162 392.183 972.422 392.183C967.681 392.183 963.838 396.026 963.838 400.766C963.838 405.507 967.681 409.35 972.422 409.35Z" fill="#A0616A"/>
<path d="M971.849 408.396C971.849 408.396 968.988 413.356 968.416 416.026C967.844 418.697 959.832 410.685 959.832 410.685L958.783 407.919C958.783 407.919 966.318 404.391 965.745 401.529C965.173 398.668 971.849 408.396 971.849 408.396Z" fill="#A0616A"/>
<path d="M973.375 423.275L981.196 433.575L999.89 447.5C999.89 447.5 1013.43 450.361 1010.38 452.46C1007.33 454.558 998.555 450.552 998.555 450.552C998.555 450.552 979.67 440.442 975.665 436.246C971.659 432.049 964.219 424.992 964.219 424.992L973.375 423.275Z" fill="#A0616A"/>
<path d="M962.884 439.298L965.173 442.922L978.834 438.624C981.832 437.681 985.118 438.028 987.777 439.703C990.162 441.205 991.688 443.59 988.254 447.119C981.387 454.176 976.809 450.361 976.809 450.361C976.809 450.361 953.728 461.234 949.913 455.893C946.098 450.552 945.908 447.882 945.908 447.882C945.908 447.882 960.595 438.726 962.884 439.298Z" fill="#2F2E41"/>
<path d="M991.497 451.887C991.497 451.887 997.601 455.893 990.352 457.801C983.104 459.708 977.763 457.038 977.763 457.038C977.763 457.038 971.468 457.038 971.468 453.795C971.468 450.552 973.566 450.171 973.566 450.171L980.052 451.124C980.052 451.124 987.873 449.026 991.497 451.887Z" fill="#D0CDE1"/>
<path d="M979.463 398.607C980.048 398.868 980.627 399.176 981.262 399.251C981.897 399.327 982.621 399.105 982.921 398.541C983.084 398.236 983.102 397.877 983.11 397.531C983.133 396.484 983.057 395.352 982.393 394.541C981.971 394.025 981.354 393.7 980.917 393.197C980.603 392.836 980.395 392.399 980.17 391.977C979.32 390.38 978.061 388.845 976.311 388.384C975.58 388.192 974.814 388.202 974.058 388.212L969.651 388.274C968.938 388.284 968.214 388.296 967.531 388.503C966.113 388.931 965.08 390.124 964.134 391.265C963.427 392.118 962.717 392.981 962.186 393.954C961.425 395.374 961.04 396.965 961.068 398.576C961.062 398.99 961.115 399.402 961.226 399.8C961.356 400.165 961.517 400.518 961.707 400.856C962.533 402.479 963.024 404.506 962.093 406.072C963.71 405.412 965.31 404.546 966.376 403.163C966.853 402.544 967.228 401.82 967.863 401.366C968.499 400.912 969.535 400.873 969.943 401.539C970.083 401.808 970.156 402.108 970.153 402.412C970.183 402.912 970.182 403.431 970.395 403.885C970.607 404.339 971.112 404.706 971.594 404.57C972.424 404.336 972.345 403.061 972.985 402.482C973.47 402.042 974.22 402.126 974.844 401.927C975.571 401.694 976.117 401.064 976.428 400.367C976.664 399.837 976.66 398.45 977.108 398.163C977.668 397.803 978.944 398.375 979.463 398.607Z" fill="#2F2E41"/>
<path d="M958.102 407.015C958.488 406.912 958.894 406.913 959.28 407.018C960.505 407.346 963.249 408.217 963.838 409.541C964.601 411.258 967.272 413.928 967.272 413.928C967.272 413.928 970.896 417.552 970.133 420.032C969.37 422.512 966.509 425.373 966.509 425.373C966.509 425.373 967.272 437.2 963.457 440.252C959.641 443.304 958.115 441.205 958.115 444.067C958.115 446.928 946.289 455.893 944 450.361C944 450.361 945.145 440.061 944.763 436.437C944.387 432.865 944.937 410.579 958.102 407.015Z" fill="#D0CDE1"/>
<path d="M964.22 411.83C964.22 411.83 975.855 420.414 973.757 424.038C973.757 424.038 966.699 427.471 965.173 427.281C963.647 427.09 957.734 420.414 956.208 419.841C954.682 419.269 953.919 408.969 964.22 411.83Z" fill="#D0CDE1"/>
<path d="M1016.21 392.848C1021.41 392.848 1025.63 388.629 1025.63 383.425C1025.63 378.221 1021.41 374.002 1016.21 374.002C1011 374.002 1006.78 378.221 1006.78 383.425C1006.78 388.629 1011 392.848 1016.21 392.848Z" fill="#F2F2F2"/>
<path d="M1094.04 371.187H1041.23V360.137H1094.04V371.187ZM1041.46 370.954H1093.8V360.37H1041.46V370.954Z" fill="#3F3D56"/>
<path d="M1090.2 362.347H1037.62V373.164H1090.2V362.347Z" fill="#536DFE"/>
<path d="M1004.39 352.024C1004.84 352.024 1005.2 351.66 1005.2 351.21C1005.2 350.76 1004.84 350.396 1004.39 350.396C1003.94 350.396 1003.58 350.76 1003.58 351.21C1003.58 351.66 1003.94 352.024 1004.39 352.024Z" fill="#6C63FF"/>
<path d="M1007.18 352.024C1007.63 352.024 1008 351.66 1008 351.21C1008 350.76 1007.63 350.396 1007.18 350.396C1006.73 350.396 1006.37 350.76 1006.37 351.21C1006.37 351.66 1006.73 352.024 1007.18 352.024Z" fill="#6C63FF"/>
<path d="M1009.97 352.024C1010.42 352.024 1010.79 351.66 1010.79 351.21C1010.79 350.76 1010.42 350.396 1009.97 350.396C1009.52 350.396 1009.16 350.76 1009.16 351.21C1009.16 351.66 1009.52 352.024 1009.97 352.024Z" fill="#6C63FF"/>
<path d="M1100 412.74H1002.06V349H1100V412.74ZM1002.3 412.507H1099.77V349.233H1002.3V412.507Z" fill="#3F3D56"/>
<path d="M1099.88 352.528H1002.18V352.761H1099.88V352.528Z" fill="#3F3D56"/>
<path d="M1004.62 351.792C1004.44 351.792 1004.26 351.737 1004.11 351.635C1003.95 351.532 1003.83 351.387 1003.76 351.217C1003.69 351.047 1003.67 350.86 1003.71 350.679C1003.75 350.499 1003.84 350.333 1003.97 350.203C1004.1 350.073 1004.26 349.984 1004.44 349.948C1004.62 349.912 1004.81 349.931 1004.98 350.001C1005.15 350.072 1005.29 350.191 1005.4 350.344C1005.5 350.497 1005.55 350.677 1005.55 350.861C1005.55 351.108 1005.46 351.344 1005.28 351.519C1005.11 351.693 1004.87 351.791 1004.62 351.792ZM1004.62 350.163C1004.49 350.163 1004.35 350.204 1004.24 350.281C1004.12 350.357 1004.03 350.466 1003.98 350.594C1003.93 350.721 1003.91 350.862 1003.94 350.997C1003.97 351.133 1004.03 351.257 1004.13 351.354C1004.23 351.452 1004.35 351.519 1004.49 351.545C1004.62 351.572 1004.76 351.559 1004.89 351.506C1005.02 351.453 1005.13 351.363 1005.2 351.249C1005.28 351.134 1005.32 350.999 1005.32 350.861C1005.32 350.676 1005.25 350.499 1005.12 350.368C1004.99 350.237 1004.81 350.163 1004.62 350.163Z" fill="#3F3D56"/>
<path d="M1007.41 351.792C1007.23 351.792 1007.05 351.737 1006.9 351.635C1006.74 351.532 1006.63 351.387 1006.56 351.217C1006.48 351.047 1006.47 350.86 1006.5 350.679C1006.54 350.499 1006.63 350.333 1006.76 350.203C1006.89 350.073 1007.05 349.984 1007.23 349.948C1007.41 349.912 1007.6 349.931 1007.77 350.001C1007.94 350.072 1008.09 350.191 1008.19 350.344C1008.29 350.497 1008.35 350.677 1008.35 350.861C1008.34 351.108 1008.25 351.344 1008.07 351.519C1007.9 351.693 1007.66 351.791 1007.41 351.792ZM1007.41 350.163C1007.28 350.163 1007.14 350.204 1007.03 350.281C1006.91 350.357 1006.82 350.466 1006.77 350.594C1006.72 350.721 1006.7 350.862 1006.73 350.997C1006.76 351.133 1006.82 351.257 1006.92 351.354C1007.02 351.452 1007.14 351.519 1007.28 351.545C1007.41 351.572 1007.55 351.559 1007.68 351.506C1007.81 351.453 1007.92 351.363 1008 351.249C1008.07 351.134 1008.11 350.999 1008.11 350.861C1008.11 350.676 1008.04 350.499 1007.91 350.368C1007.78 350.237 1007.6 350.163 1007.41 350.163Z" fill="#3F3D56"/>
<path d="M1010.21 351.792C1010.02 351.792 1009.84 351.737 1009.69 351.635C1009.54 351.532 1009.42 351.387 1009.35 351.217C1009.28 351.047 1009.26 350.86 1009.29 350.679C1009.33 350.499 1009.42 350.333 1009.55 350.203C1009.68 350.073 1009.84 349.984 1010.02 349.948C1010.21 349.912 1010.39 349.931 1010.56 350.001C1010.73 350.072 1010.88 350.191 1010.98 350.344C1011.08 350.497 1011.14 350.677 1011.14 350.861C1011.14 351.108 1011.04 351.344 1010.86 351.519C1010.69 351.693 1010.45 351.791 1010.21 351.792ZM1010.21 350.163C1010.07 350.163 1009.93 350.204 1009.82 350.281C1009.7 350.357 1009.61 350.466 1009.56 350.594C1009.51 350.721 1009.49 350.862 1009.52 350.997C1009.55 351.133 1009.62 351.257 1009.71 351.354C1009.81 351.452 1009.93 351.519 1010.07 351.545C1010.21 351.572 1010.35 351.559 1010.47 351.506C1010.6 351.453 1010.71 351.363 1010.79 351.249C1010.86 351.134 1010.9 350.999 1010.9 350.861C1010.9 350.676 1010.83 350.499 1010.7 350.368C1010.57 350.237 1010.39 350.163 1010.21 350.163Z" fill="#3F3D56"/>
<path d="M1032.97 352.645H1032.74V412.714H1032.97V352.645Z" fill="#3F3D56"/>
<path d="M1060.95 382.178H1043.85V384.505H1060.95V382.178Z" fill="#F2F2F2"/>
<path d="M1087.81 382.178H1070.72V384.505H1087.81V382.178Z" fill="#F2F2F2"/>
<path d="M1061.99 383.458H1044.66V380.899H1061.99V383.458ZM1044.89 383.225H1061.76V381.131H1044.89V383.225Z" fill="#3F3D56"/>
<path d="M1060.95 400.207H1043.85V402.533H1060.95V400.207Z" fill="#F2F2F2"/>
<path d="M1061.99 401.486H1044.66V398.927H1061.99V401.486ZM1044.89 401.254H1061.76V399.16H1044.89V401.254Z" fill="#3F3D56"/>
<path d="M1087.87 390.96H1043.91V393.286H1087.87V390.96Z" fill="#F2F2F2"/>
<path d="M1088.92 392.472H1044.72V389.913H1088.92V392.472ZM1044.95 392.239H1088.69V390.146H1044.95V392.239Z" fill="#3F3D56"/>
<path d="M1088.86 383.458H1071.53V380.899H1088.86V383.458ZM1071.76 383.225H1088.63V381.131H1071.76V383.225Z" fill="#3F3D56"/>
<path d="M1017.8 390.384C1015.91 390.384 1014.06 389.822 1012.48 388.771C1010.91 387.72 1009.68 386.225 1008.96 384.477C1008.24 382.729 1008.05 380.805 1008.42 378.949C1008.79 377.093 1009.7 375.388 1011.03 374.05C1012.37 372.712 1014.08 371.8 1015.93 371.431C1017.79 371.062 1019.71 371.251 1021.46 371.976C1023.21 372.7 1024.7 373.926 1025.76 375.5C1026.81 377.073 1027.37 378.923 1027.37 380.815C1027.37 383.352 1026.36 385.784 1024.56 387.578C1022.77 389.372 1020.34 390.381 1017.8 390.384ZM1017.8 371.537C1015.97 371.537 1014.17 372.081 1012.65 373.101C1011.12 374.12 1009.93 375.569 1009.23 377.265C1008.53 378.96 1008.34 380.826 1008.7 382.626C1009.06 384.425 1009.94 386.079 1011.24 387.376C1012.54 388.674 1014.19 389.557 1015.99 389.915C1017.79 390.273 1019.66 390.09 1021.35 389.387C1023.05 388.685 1024.5 387.496 1025.52 385.97C1026.53 384.444 1027.08 382.65 1027.08 380.815C1027.08 378.356 1026.1 375.997 1024.36 374.258C1022.62 372.518 1020.26 371.54 1017.8 371.537Z" fill="#3F3D56"/>
</g>
<g clip-path="url(#clip2)">
<path d="M46.2442 319.914C56.8725 319.914 65.4885 311.298 65.4885 300.67C65.4885 290.041 56.8725 281.425 46.2442 281.425C35.6159 281.425 27 290.041 27 300.67C27 311.298 35.6159 319.914 46.2442 319.914Z" fill="#FF6584"/>
<path d="M250.266 424.478C250.178 427.753 249.63 431 248.636 434.123C248.613 434.196 248.59 434.267 248.566 434.339H242.483C242.49 434.274 242.496 434.202 242.503 434.123C242.908 429.46 245.247 401.082 242.451 396.229C242.695 396.623 250.738 409.662 250.266 424.478Z" fill="#536DFE"/>
<path d="M249.81 434.123C249.759 434.196 249.706 434.268 249.652 434.339H245.089C245.123 434.278 245.163 434.205 245.21 434.123C245.964 432.762 248.195 428.695 250.266 424.478C252.492 419.946 254.534 415.242 254.362 413.54C254.415 413.923 255.955 425.628 249.81 434.123Z" fill="#3F3D56"/>
<path d="M203.756 451.791L204.606 444.781L228.61 438.621L225.848 430.337C227.772 424.819 231.149 422.115 237.319 424.814L247.932 431.407C248.964 432.048 249.804 432.954 250.365 434.031C250.926 435.107 251.188 436.315 251.122 437.528C251.058 438.745 250.665 439.922 249.987 440.935C249.308 441.948 248.369 442.759 247.268 443.282C235.387 448.914 220.244 451.069 203.756 451.791Z" fill="#FFB8B8"/>
<path d="M205.243 453.916L197.809 452.853L190.855 454.273C190.429 454.36 189.989 454.353 189.566 454.253C189.142 454.154 188.746 453.963 188.403 453.695C188.061 453.427 187.781 453.088 187.582 452.701C187.384 452.315 187.271 451.889 187.253 451.455C187.233 450.969 187.331 450.485 187.539 450.046C187.747 449.606 188.058 449.224 188.447 448.931L199.344 440.721C200.278 440.017 201.433 439.669 202.601 439.74C203.769 439.81 204.873 440.295 205.716 441.106L208.43 443.719C206.488 444.924 205.044 446.731 204.181 449.242C206.047 450.268 206.401 451.826 205.243 453.916Z" fill="#2F2E41"/>
<path d="M212.344 380.319C216.142 380.319 219.22 377.241 219.22 373.444C219.22 369.646 216.142 366.568 212.344 366.568C208.547 366.568 205.469 369.646 205.469 373.444C205.469 377.241 208.547 380.319 212.344 380.319Z" fill="#FFB8B8"/>
<path d="M223.087 387.003L207.686 393.482C208.938 387.197 209.562 381.472 207.686 377.975L217.564 376.807C217.074 379.494 219.573 383.094 223.087 387.003Z" fill="#FFB8B8"/>
<path d="M196.959 451.579L191.224 451.154C187.71 436.502 185.911 422.654 186.696 410.015C186.807 408.17 187.629 406.439 188.988 405.187C190.347 403.934 192.139 403.257 193.987 403.297C195.763 403.337 197.46 404.038 198.746 405.262L206.163 412.32C209.471 415.443 212.038 419.266 213.678 423.509C215.779 429.011 215.025 432.095 210.01 431.571C206.876 431.222 203.995 429.69 201.953 427.287L196.534 420.99L196.959 451.579Z" fill="#FFB8B8"/>
<path d="M192.518 468.99C191.766 468.941 191.035 468.719 190.383 468.342C189.731 467.966 189.174 467.444 188.756 466.817C188.337 466.191 188.069 465.476 187.971 464.729C187.874 463.982 187.949 463.223 188.192 462.51L189.312 459.226L190.162 450.942C191.47 448.271 193.324 448.67 195.472 450.729C196.838 450.595 197.131 449.23 196.959 447.331L201.265 453.127C201.634 453.624 201.863 454.209 201.928 454.824C201.993 455.439 201.892 456.059 201.636 456.622L197.302 466.128C196.889 467.034 196.21 467.793 195.355 468.304C194.501 468.815 193.511 469.054 192.518 468.99Z" fill="#2F2E41"/>
<path d="M246.772 430.655C238.912 435.116 236.449 435.246 228.61 438.409L221.812 434.585C213.829 437.537 208.229 433.491 202.163 427.469C206.133 420.858 204.377 412.266 206.837 412.387L236.257 421.628L237.531 424.814L246.772 430.655Z" fill="#2F2E41"/>
<path d="M237.319 423.752C226.931 428.248 215.746 423.488 206.199 413.024L199.878 387.495C199.803 387.214 199.787 386.92 199.83 386.633C199.873 386.345 199.975 386.069 200.128 385.822C200.282 385.575 200.485 385.362 200.724 385.196C200.963 385.031 201.234 384.916 201.519 384.859L208.855 383.392L212.466 389.127L219.688 382.754L227.358 385.262C228.378 385.595 229.288 386.2 229.991 387.01C230.694 387.82 231.164 388.807 231.35 389.863L237.319 423.752Z" fill="#6C63FF"/>
<path opacity="0.2" d="M220.819 445.394C220.258 445.181 219.757 444.836 219.357 444.389C218.957 443.941 218.671 443.404 218.521 442.823C218.372 442.242 218.364 441.634 218.498 441.049C218.633 440.465 218.905 439.921 219.293 439.463L224.149 433.736L227.548 435.647L225.798 442.782C225.671 443.299 225.436 443.782 225.108 444.201C224.781 444.62 224.368 444.964 223.897 445.211C223.426 445.458 222.908 445.602 222.378 445.633C221.847 445.665 221.316 445.584 220.819 445.394Z" fill="black"/>
<path d="M220.819 444.545C220.258 444.331 219.757 443.986 219.357 443.539C218.957 443.091 218.671 442.555 218.521 441.974C218.372 441.393 218.364 440.784 218.498 440.2C218.633 439.615 218.905 439.071 219.293 438.613L224.149 432.886L227.548 434.798L225.798 441.933C225.671 442.449 225.436 442.933 225.108 443.351C224.781 443.77 224.368 444.114 223.897 444.361C223.426 444.608 222.908 444.752 222.378 444.784C221.847 444.815 221.316 444.734 220.819 444.545Z" fill="#FFB8B8"/>
<path d="M228.397 436.497L223.299 433.098L230.734 413.343L227.973 385.516L230.492 387.09C231.844 387.935 233.01 389.046 233.919 390.355C234.829 391.664 235.463 393.145 235.784 394.707L239.868 414.618C238.081 423.795 235.102 431.87 228.397 436.497Z" fill="#6C63FF"/>
<path opacity="0.2" d="M225.317 404.952L227.866 417.698L225.77 425.152L225.317 404.952Z" fill="black"/>
<path d="M205.62 372.854C205.62 372.854 201.658 359.887 213.767 362.606C215.646 363.028 217.268 364.12 218.559 365.548C218.675 365.673 218.816 365.771 218.974 365.836C219.132 365.9 219.301 365.929 219.471 365.921C221.406 365.921 222.601 372.833 218.732 375.873C218.732 375.873 219.521 371.783 218.086 370.389C217.828 370.153 217.612 369.875 217.448 369.567C216.514 367.683 213.374 367.064 211.209 367.225C210.104 367.307 210.007 369.234 208.783 368.965C205.999 368.352 205.11 371.578 205.62 372.854Z" fill="#2F2E41"/>
<path d="M217.808 392.101L217.728 392.688L217.234 396.31L216.423 402.243L216.22 403.729C216.205 403.842 216.149 403.946 216.063 404.021C215.976 404.096 215.866 404.138 215.751 404.138H210.347C210.233 404.138 210.123 404.097 210.037 404.022C209.95 403.947 209.894 403.843 209.878 403.73L209.672 402.243L208.848 396.31L208.344 392.685L208.264 392.102C208.254 392.035 208.259 391.966 208.279 391.902C208.298 391.837 208.331 391.777 208.375 391.726C208.42 391.675 208.475 391.634 208.536 391.606C208.598 391.578 208.665 391.563 208.732 391.563H217.339C217.407 391.563 217.474 391.578 217.535 391.606C217.597 391.634 217.652 391.674 217.696 391.725C217.74 391.776 217.773 391.836 217.793 391.901C217.812 391.965 217.818 392.034 217.808 392.101Z" fill="#E6E6E6"/>
<path d="M209.302 389.991H216.797C216.859 389.991 216.921 390.004 216.978 390.027C217.036 390.051 217.088 390.086 217.132 390.13C217.176 390.174 217.211 390.226 217.234 390.284C217.258 390.341 217.27 390.402 217.27 390.465V391.09C217.27 391.215 217.221 391.336 217.132 391.425C217.043 391.513 216.923 391.563 216.797 391.563H209.302C209.177 391.563 209.056 391.513 208.968 391.425C208.879 391.336 208.829 391.215 208.829 391.09V390.465C208.829 390.402 208.841 390.341 208.865 390.283C208.889 390.226 208.924 390.174 208.968 390.13C209.012 390.086 209.064 390.051 209.121 390.027C209.179 390.004 209.24 389.991 209.302 389.991Z" fill="#3F3D56"/>
<path d="M218.485 392.349C214.872 392.743 211.227 392.743 207.614 392.349C207.552 392.349 207.49 392.337 207.433 392.313C207.376 392.289 207.323 392.254 207.279 392.21C207.236 392.167 207.201 392.114 207.177 392.057C207.153 392 207.141 391.938 207.141 391.876V391.251C207.141 391.188 207.153 391.127 207.177 391.069C207.201 391.012 207.236 390.96 207.279 390.916C207.323 390.872 207.376 390.837 207.433 390.813C207.49 390.79 207.552 390.777 207.614 390.777C211.224 391.221 214.875 391.221 218.485 390.777C218.611 390.777 218.731 390.827 218.82 390.916C218.909 391.005 218.959 391.125 218.959 391.251V391.876C218.959 392.001 218.909 392.122 218.82 392.21C218.731 392.299 218.611 392.349 218.485 392.349Z" fill="#3F3D56"/>
<path d="M212.83 399.612C213.959 399.612 214.873 398.698 214.873 397.57C214.873 396.441 213.959 395.527 212.83 395.527C211.702 395.527 210.788 396.441 210.788 397.57C210.788 398.698 211.702 399.612 212.83 399.612Z" fill="white"/>
<path d="M218.082 401.867C218.144 402.464 218.062 403.067 217.843 403.625C217.624 404.184 217.274 404.681 216.823 405.077C216.371 405.472 215.832 405.753 215.25 405.897C214.667 406.041 214.059 406.043 213.475 405.903L206.174 404.15L206.348 400.254L213.506 398.6C214.024 398.481 214.562 398.472 215.083 398.576C215.605 398.68 216.098 398.893 216.531 399.202C216.963 399.511 217.325 399.908 217.593 400.368C217.86 400.827 218.027 401.338 218.082 401.867Z" fill="#FFB8B8"/>
<path d="M208.217 404.846L188.513 405.339C187.801 405.357 187.095 405.219 186.442 404.936C185.789 404.653 185.206 404.23 184.733 403.699C184.26 403.167 183.909 402.539 183.704 401.857C183.499 401.176 183.445 400.458 183.545 399.754C183.703 398.65 184.233 397.634 185.047 396.872L194.324 388.193C196.045 386.583 198.189 385.498 200.505 385.063L203.757 384.454L205.668 398.898L194.622 397.624L207.58 399.111L208.217 404.846Z" fill="#6C63FF"/>
<path d="M182.258 447.232H131.953C131.506 447.232 131.077 447.055 130.76 446.738C130.444 446.422 130.266 445.993 130.266 445.546C148.502 443.426 166.395 443.426 183.945 445.546C183.945 445.993 183.767 446.422 183.451 446.738C183.135 447.055 182.705 447.232 182.258 447.232Z" fill="#2F2E41"/>
<path d="M183.945 445.645L130.266 445.546L136.488 435.078L136.517 435.028V411.958C136.517 411.678 136.572 411.401 136.68 411.142C136.787 410.884 136.944 410.649 137.142 410.451C137.34 410.253 137.575 410.096 137.834 409.988C138.092 409.881 138.37 409.826 138.65 409.826H175.264C175.544 409.826 175.821 409.881 176.08 409.988C176.339 410.096 176.574 410.253 176.772 410.451C176.97 410.649 177.127 410.884 177.234 411.142C177.341 411.401 177.396 411.678 177.396 411.958V435.187L183.945 445.645Z" fill="#3F3D56"/>
<path d="M138.601 411.314C138.417 411.315 138.24 411.388 138.11 411.518C137.98 411.648 137.907 411.825 137.906 412.009V433.044C137.907 433.228 137.98 433.404 138.11 433.535C138.24 433.665 138.417 433.738 138.601 433.738H175.61C175.794 433.738 175.971 433.665 176.101 433.535C176.231 433.404 176.305 433.228 176.305 433.044V412.009C176.305 411.825 176.231 411.648 176.101 411.518C175.971 411.388 175.794 411.315 175.61 411.314L138.601 411.314Z" fill="white"/>
<path d="M138.844 436.517C138.787 436.517 138.731 436.533 138.684 436.564C138.636 436.594 138.598 436.638 138.574 436.69L136.657 440.857C136.636 440.902 136.627 440.952 136.63 441.002C136.634 441.052 136.65 441.1 136.676 441.142C136.703 441.184 136.74 441.219 136.784 441.243C136.828 441.267 136.877 441.279 136.927 441.279H177.239C177.29 441.279 177.34 441.266 177.384 441.242C177.428 441.217 177.466 441.181 177.492 441.138C177.519 441.095 177.534 441.046 177.536 440.995C177.539 440.944 177.528 440.894 177.505 440.848L175.422 436.681C175.397 436.632 175.359 436.59 175.312 436.561C175.265 436.532 175.211 436.516 175.156 436.517L138.844 436.517Z" fill="#2F2E41"/>
<path d="M156.957 410.967C157.203 410.967 157.403 410.767 157.403 410.521C157.403 410.274 157.203 410.074 156.957 410.074C156.71 410.074 156.51 410.274 156.51 410.521C156.51 410.767 156.71 410.967 156.957 410.967Z" fill="white"/>
<path d="M152.994 442.073C152.929 442.073 152.865 442.095 152.813 442.134C152.762 442.174 152.724 442.23 152.707 442.293L152.226 444.079C152.214 444.123 152.213 444.17 152.222 444.214C152.23 444.259 152.25 444.301 152.277 444.338C152.305 444.374 152.341 444.403 152.382 444.424C152.423 444.444 152.468 444.454 152.514 444.454H161.658C161.706 444.454 161.752 444.443 161.795 444.421C161.837 444.399 161.873 444.368 161.901 444.329C161.928 444.291 161.946 444.246 161.953 444.199C161.959 444.152 161.955 444.104 161.939 444.059L161.321 442.273C161.301 442.215 161.263 442.164 161.213 442.128C161.162 442.092 161.102 442.073 161.04 442.073H152.994Z" fill="#2F2E41"/>
<path d="M177.396 434.681V435.078H136.488L136.518 435.028V434.681H177.396Z" fill="#2F2E41"/>
<path d="M119.155 421.444C119.267 425.643 119.97 429.804 121.244 433.807C121.273 433.9 121.304 433.991 121.334 434.084H129.13C129.122 434.001 129.114 433.908 129.105 433.807C128.586 427.83 125.588 391.457 129.172 385.237C128.859 385.742 118.55 402.455 119.155 421.444Z" fill="#536DFE"/>
<path d="M119.74 433.807C119.805 433.9 119.873 433.992 119.942 434.084H125.791C125.747 434.005 125.695 433.912 125.636 433.807C124.669 432.063 121.81 426.849 119.155 421.444C116.302 415.635 113.685 409.607 113.905 407.425C113.837 407.917 111.863 422.919 119.74 433.807Z" fill="#3F3D56"/>
<path d="M132.931 307.726L136.101 305.191C133.638 304.919 132.627 306.262 132.212 307.325C130.289 306.526 128.194 307.573 128.194 307.573L134.537 309.876C134.217 309.021 133.66 308.275 132.931 307.726Z" fill="#3F3D56"/>
<path d="M228.401 294.677L231.571 292.141C229.108 291.87 228.096 293.213 227.682 294.276C225.759 293.477 223.664 294.524 223.664 294.524L230.006 296.826C229.686 295.972 229.129 295.226 228.401 294.677Z" fill="#3F3D56"/>
<path d="M210.148 328.32L213.318 325.785C210.856 325.513 209.844 326.856 209.43 327.919C207.506 327.12 205.412 328.167 205.412 328.167L211.754 330.469C211.434 329.615 210.877 328.869 210.148 328.32Z" fill="#3F3D56"/>
<path d="M86.801 377.53C108.607 372.805 111 339.5 104.605 314.983C98.2099 290.465 76.3757 264.722 66.5 266.5C56.6243 268.278 46.519 300.996 48.2738 325.139C50.5827 356.905 62.9371 380.128 86.801 377.53Z" fill="#E6E6E6"/>
<path d="M70.6734 309.766C73.1907 316.612 75.4308 323.55 77.3938 330.582C79.353 337.607 81.0288 344.703 82.4214 351.87C83.8139 359.034 84.9179 366.247 85.7334 373.507C86.5449 380.755 87.0663 388.028 87.2976 395.325C87.5275 402.614 87.464 409.905 87.1072 417.197C87.0632 418.091 87.0149 418.984 86.962 419.877C86.9083 420.791 88.3311 420.788 88.3847 419.877C88.8147 412.561 88.9496 405.237 88.7894 397.904C88.6284 390.613 88.1756 383.336 87.4312 376.073C86.6849 368.789 85.6511 361.541 84.3297 354.331C83.0075 347.124 81.3978 339.977 79.5005 332.891C77.6043 325.814 75.4241 318.82 72.9598 311.911C72.6592 311.069 72.3543 310.228 72.0453 309.388C71.7319 308.536 70.3564 308.904 70.6734 309.766V309.766Z" fill="#3F3D56"/>
<path d="M80.4765 336.694L86.7796 322.699L88.5562 318.754C88.6458 318.59 88.6693 318.398 88.6219 318.217C88.5744 318.036 88.4596 317.88 88.301 317.781C88.1377 317.687 87.9442 317.661 87.7621 317.709C87.58 317.757 87.4239 317.874 87.3277 318.036L81.0246 332.031L79.2481 335.976C79.1584 336.14 79.1349 336.332 79.1824 336.513C79.2298 336.694 79.3446 336.85 79.5033 336.949C79.6665 337.043 79.8601 337.069 80.0422 337.021C80.2243 336.973 80.3803 336.856 80.4765 336.694H80.4765Z" fill="#3F3D56"/>
<path d="M81.8692 346.257L67.497 340.868L63.4461 339.349C63.2643 339.301 63.0706 339.326 62.9069 339.419C62.7432 339.512 62.6226 339.665 62.5711 339.846C62.525 340.028 62.551 340.22 62.6436 340.384C62.7362 340.547 62.8882 340.668 63.0679 340.721L77.4402 346.11L81.491 347.629C81.6729 347.677 81.8666 347.652 82.0303 347.559C82.194 347.466 82.3146 347.313 82.3661 347.132C82.4121 346.95 82.3861 346.757 82.2936 346.594C82.201 346.431 82.0489 346.31 81.8692 346.257V346.257Z" fill="#3F3D56"/>
<path d="M70.6774 422.591C70.6774 422.591 87.9869 416.9 104.111 422.591H70.6774Z" fill="#3F3D56"/>
<path d="M148.13 419.895C151.56 419.859 154.99 419.798 158.42 419.751C159.563 419.736 160.707 419.722 161.85 419.711C162.836 419.7 162.838 418.168 161.85 418.178C158.42 418.214 154.991 418.275 151.561 418.322C150.417 418.338 149.274 418.351 148.13 418.363C147.145 418.373 147.143 419.905 148.13 419.895Z" fill="#6C63FF"/>
<path d="M148.13 423.47L161.993 423.326L165.936 423.285C166.921 423.275 166.924 421.743 165.936 421.753L152.073 421.897L148.13 421.938C147.145 421.948 147.143 423.48 148.13 423.47Z" fill="#6C63FF"/>
<path d="M148.13 427.045L161.993 426.901L165.936 426.86C166.921 426.85 166.924 425.318 165.936 425.328L152.073 425.472L148.13 425.513C147.145 425.523 147.143 427.055 148.13 427.045Z" fill="#6C63FF"/>
</g>
<g clip-path="url(#clip3)">
<path d="M1236.5 361.775C1236.5 393.217 1217.81 404.196 1194.75 404.196C1171.69 404.196 1153 393.217 1153 361.775C1153 330.332 1194.75 290.333 1194.75 290.333C1194.75 290.333 1236.5 330.332 1236.5 361.775Z" fill="#E6E6E6"/>
<path d="M1360.22 345.279C1360.22 383.691 1337.38 397.104 1309.22 397.104C1281.05 397.104 1258.21 383.691 1258.21 345.279C1258.21 306.867 1309.22 258 1309.22 258C1309.22 258 1360.22 306.867 1360.22 345.279Z" fill="#E6E6E6"/>
<path d="M1309.5 432C1309.63 432 1309.76 431.967 1309.85 431.908C1309.95 431.848 1310 431.768 1310 431.684V299.316C1310 299.232 1309.95 299.152 1309.85 299.093C1309.76 299.033 1309.63 299 1309.5 299C1309.37 299 1309.24 299.033 1309.15 299.093C1309.05 299.152 1309 299.232 1309 299.316V431.684C1309 431.768 1309.05 431.848 1309.15 431.908C1309.24 431.967 1309.37 432 1309.5 432Z" fill="#3F3D56" stroke="#3F3D56"/>
<path d="M1309.04 373.04C1309.1 372.982 1309.15 372.918 1309.17 372.862C1309.2 372.807 1309.21 372.764 1309.19 372.744L1277.52 341.076C1277.5 341.056 1277.45 341.06 1277.4 341.087C1277.34 341.114 1277.28 341.162 1277.22 341.221C1277.16 341.279 1277.11 341.343 1277.09 341.399C1277.06 341.454 1277.06 341.497 1277.08 341.517L1308.74 373.186C1308.76 373.206 1308.81 373.202 1308.86 373.174C1308.92 373.147 1308.98 373.099 1309.04 373.04Z" fill="#3F3D56" stroke="#3F3D56"/>
<path d="M1195.01 377.737C1195.07 377.673 1195.11 377.607 1195.14 377.552C1195.16 377.497 1195.17 377.458 1195.15 377.444L1168.46 355.053C1168.45 355.039 1168.41 355.051 1168.36 355.086C1168.31 355.12 1168.25 355.176 1168.2 355.239C1168.15 355.302 1168.1 355.369 1168.08 355.424C1168.05 355.479 1168.05 355.517 1168.06 355.531L1194.75 377.922C1194.76 377.936 1194.8 377.925 1194.85 377.89C1194.9 377.855 1194.96 377.8 1195.01 377.737Z" fill="#3F3D56" stroke="#3F3D56"/>
<path d="M1195.22 361.898C1195.28 361.957 1195.34 362.008 1195.39 362.042C1195.44 362.076 1195.47 362.088 1195.48 362.077L1213.08 344.483C1213.09 344.472 1213.08 344.438 1213.04 344.389C1213.01 344.34 1212.96 344.279 1212.9 344.221C1212.84 344.162 1212.78 344.11 1212.73 344.077C1212.68 344.043 1212.65 344.031 1212.64 344.042L1195.04 361.636C1195.03 361.647 1195.04 361.681 1195.08 361.73C1195.11 361.779 1195.16 361.84 1195.22 361.898Z" fill="#3F3D56" stroke="#3F3D56"/>
<path d="M1309.22 334.434C1309.28 334.492 1309.34 334.543 1309.39 334.575C1309.44 334.607 1309.48 334.617 1309.49 334.604L1330.6 313.492C1330.62 313.478 1330.61 313.442 1330.58 313.391C1330.54 313.341 1330.49 313.279 1330.43 313.221C1330.38 313.162 1330.31 313.111 1330.26 313.079C1330.21 313.047 1330.18 313.037 1330.16 313.05L1309.05 334.163C1309.04 334.176 1309.05 334.212 1309.08 334.263C1309.11 334.314 1309.16 334.375 1309.22 334.434Z" fill="#3F3D56" stroke="#3F3D56"/>
<path d="M1195.5 432C1195.63 432 1195.76 431.972 1195.85 431.921C1195.95 431.871 1196 431.803 1196 431.732V319.268C1196 319.197 1195.95 319.129 1195.85 319.079C1195.76 319.028 1195.63 319 1195.5 319C1195.37 319 1195.24 319.028 1195.15 319.079C1195.05 319.129 1195 319.197 1195 319.268V431.732C1195 431.803 1195.05 431.871 1195.15 431.921C1195.24 431.972 1195.37 432 1195.5 432Z" fill="#3F3D56" stroke="#3F3D56"/>
<path d="M1254.74 435.029C1298.01 435.029 1333.08 433.776 1333.08 432.231C1333.08 430.686 1298.01 429.433 1254.74 429.433C1211.47 429.433 1176.39 430.686 1176.39 432.231C1176.39 433.776 1211.47 435.029 1254.74 435.029Z" fill="#3F3D56"/>
<path d="M1364.88 454.87C1384.83 454.87 1401 453.332 1401 451.436C1401 449.539 1384.83 448.002 1364.88 448.002C1344.93 448.002 1328.76 449.539 1328.76 451.436C1328.76 453.332 1344.93 454.87 1364.88 454.87Z" fill="#3F3D56"/>
<path d="M1259.32 346.255H1250.16V432.231H1259.32V346.255Z" fill="#2F2E41"/>
<path d="M1296.71 365.841H1240.49V350.07H1296.71L1312.99 357.956L1296.71 365.841Z" fill="#3F3D56"/>
<path opacity="0.1" d="M1296.71 364.569H1240.49V365.841H1296.71L1312.99 357.956L1311.68 357.32L1296.71 364.569Z" fill="black"/>
<path d="M1213.02 386.699H1269.24V370.929H1213.02L1196.74 378.814L1213.02 386.699Z" fill="#3F3D56"/>
<path opacity="0.1" d="M1198.06 378.178L1196.74 378.814L1213.02 386.699H1269.24V385.427H1213.02L1198.06 378.178Z" fill="black"/>
<path d="M1281.7 353.123H1272.04V362.789H1281.7V353.123Z" fill="#536DFE"/>
<path d="M1233.12 383.647C1235.79 383.647 1237.95 381.483 1237.95 378.814C1237.95 376.145 1235.79 373.981 1233.12 373.981C1230.45 373.981 1228.28 376.145 1228.28 378.814C1228.28 381.483 1230.45 383.647 1233.12 383.647Z" fill="#536DFE"/>
<path d="M1254.74 360.245C1256.28 360.245 1257.54 358.992 1257.54 357.447C1257.54 355.902 1256.28 354.649 1254.74 354.649C1253.19 354.649 1251.94 355.902 1251.94 357.447C1251.94 358.992 1253.19 360.245 1254.74 360.245Z" fill="#2F2E41"/>
<path d="M1254.74 381.103C1256.28 381.103 1257.54 379.85 1257.54 378.305C1257.54 376.76 1256.28 375.507 1254.74 375.507C1253.19 375.507 1251.94 376.76 1251.94 378.305C1251.94 379.85 1253.19 381.103 1254.74 381.103Z" fill="#2F2E41"/>
<path d="M1235.92 422.651C1235.92 428.366 1232.52 430.361 1228.33 430.361C1228.23 430.361 1228.13 430.36 1228.04 430.358C1227.84 430.354 1227.65 430.345 1227.46 430.332C1223.68 430.064 1220.74 427.966 1220.74 422.651C1220.74 417.15 1227.77 410.209 1228.3 409.695L1228.3 409.694C1228.32 409.674 1228.33 409.665 1228.33 409.665C1228.33 409.665 1235.92 416.935 1235.92 422.651Z" fill="#536DFE"/>
<path d="M1228.05 429.487L1230.83 425.609L1228.04 429.913L1228.04 430.358C1227.84 430.354 1227.65 430.345 1227.46 430.332L1227.76 424.614L1227.76 424.569L1227.76 424.561L1227.79 424.021L1225 419.706L1227.8 423.616L1227.8 423.731L1228.03 419.41L1225.64 414.952L1228.06 418.652L1228.3 409.695L1228.3 409.665V409.694L1228.26 416.757L1230.63 413.957L1228.25 417.366L1228.18 421.234L1230.4 417.522L1228.17 421.803L1228.14 423.954L1231.36 418.787L1228.13 424.704L1228.05 429.487Z" fill="#3F3D56"/>
<path d="M1353.19 445.182C1353.19 445.182 1349.59 448.215 1347.69 448.025C1345.8 447.836 1342.19 447.836 1343.71 449.921C1345.23 452.006 1351.48 453.143 1354.14 453.333C1356.79 453.523 1362.67 453.712 1362.29 452.575C1361.91 451.437 1361.53 446.13 1360.01 445.751C1358.5 445.372 1353.19 445.182 1353.19 445.182Z" fill="#575A89"/>
<path d="M1373.86 442.204C1373.86 442.204 1371.21 446.093 1369.33 446.42C1367.45 446.747 1363.98 447.715 1366 449.316C1368.03 450.917 1374.36 450.331 1376.96 449.801C1379.57 449.27 1385.28 447.873 1384.61 446.88C1383.94 445.886 1382.15 440.876 1380.59 440.918C1379.02 440.96 1373.86 442.204 1373.86 442.204Z" fill="#575A89"/>
<path d="M1351.08 386.582C1351.08 386.582 1348.64 403.29 1349.21 406.323C1349.78 409.355 1350.16 414.094 1350.16 414.094C1350.16 414.094 1349.78 418.075 1350.16 419.971C1350.54 421.866 1352.81 439.874 1352.81 440.253C1352.81 440.633 1352.43 441.77 1352.81 442.718C1353.19 443.665 1353.95 442.907 1352.81 444.424C1351.67 445.94 1352.43 446.319 1352.62 446.319C1352.81 446.319 1360.2 447.078 1360.58 446.319C1360.96 445.561 1360.39 445.372 1360.58 444.424C1360.77 443.476 1360.96 443.286 1361.34 443.097C1361.72 442.907 1362.48 443.286 1361.91 442.339C1361.34 441.391 1360.01 440.253 1360.39 439.685C1360.77 439.116 1360.2 434.946 1360.2 434.946C1360.2 434.946 1359.82 425.657 1359.63 419.971C1359.44 414.284 1361.34 408.408 1361.34 408.408C1361.58 413.061 1363.3 417.514 1366.27 421.108C1371.2 426.984 1373.66 437.979 1373.66 437.979C1373.66 437.979 1374.8 439.685 1374.23 441.201C1373.66 442.718 1371.96 441.77 1373.66 442.718C1375.37 443.665 1381.24 442.339 1381.81 441.77C1382.38 441.201 1381.05 440.443 1381.43 438.927C1381.81 437.41 1383.33 437.789 1382 437.031C1380.68 436.273 1380.3 436.462 1380.3 435.704C1380.3 434.946 1376.88 418.454 1371.58 413.715L1371.2 396.466C1371.2 396.466 1375.94 384.334 1371.01 383.196C1366.08 382.059 1351.08 386.582 1351.08 386.582Z" fill="#2F2E41"/>
<path d="M1354.52 341.683C1354.52 341.683 1357.74 349.645 1356.98 350.782C1356.22 351.919 1366.27 346.991 1366.27 346.991C1366.27 346.991 1363.05 339.029 1363.05 338.082C1363.05 337.134 1354.52 341.683 1354.52 341.683Z" fill="#A0616A"/>
<path d="M1356.89 343.674C1360.76 343.674 1363.9 340.533 1363.9 336.66C1363.9 332.786 1360.76 329.646 1356.89 329.646C1353.01 329.646 1349.87 332.786 1349.87 336.66C1349.87 340.533 1353.01 343.674 1356.89 343.674Z" fill="#A0616A"/>
<path d="M1366.27 343.768C1366.27 343.768 1361.34 343.2 1358.88 346.233C1356.41 349.266 1356.03 350.024 1356.03 350.024C1356.03 350.024 1350.16 359.502 1351.29 364.241C1351.57 364.668 1351.82 365.111 1352.05 365.568C1352.43 366.326 1352.43 376.941 1352.05 378.647C1351.67 380.353 1351.29 380.922 1351.67 383.386C1352.05 385.85 1348.64 389.831 1352.62 390.589C1356.6 391.347 1359.63 390.779 1360.96 389.073C1362.29 387.367 1361.15 386.229 1365.32 386.229C1369.49 386.229 1372.14 383.386 1372.14 383.386C1372.14 383.386 1370.06 381.111 1370.82 380.732C1371.58 380.353 1370.82 379.405 1370.44 378.457C1370.06 377.51 1370.06 376.751 1370.63 376.751C1371.2 376.751 1370.82 376.372 1370.44 375.425C1370.06 374.477 1377.07 358.175 1372.9 353.436C1368.73 348.697 1366.65 346.043 1366.65 346.043C1366.65 346.043 1367.41 343.2 1366.27 343.768Z" fill="#536DFE"/>
<path d="M1355.46 361.776V370.117L1349.4 390.21C1349.4 390.21 1345.42 400.636 1349.4 400.636C1353.38 400.636 1353.17 390.685 1353.17 390.685L1361.72 375.614C1361.72 375.614 1365.13 363.672 1364.75 362.724C1364.37 361.776 1355.46 361.776 1355.46 361.776Z" fill="#A0616A"/>
<path d="M1358.69 349.455C1358.69 349.455 1353 351.73 1354.52 357.796C1356.03 363.862 1354.52 363.672 1354.52 363.672C1354.52 363.672 1362.29 362.914 1364.75 364.62L1365.32 362.345C1365.32 362.345 1367.6 349.266 1358.69 349.455Z" fill="#536DFE"/>
<path d="M1354.49 331.395C1354.05 331.55 1353.58 331.594 1353.12 331.522C1352.67 331.451 1352.23 331.266 1351.86 330.986C1351.15 330.397 1350.84 329.311 1351.26 328.486C1351.63 327.773 1352.4 327.383 1353.15 327.091C1354.79 326.449 1356.52 326.058 1358.28 325.933C1359.12 325.873 1360 325.882 1360.75 326.266C1361.12 326.455 1361.44 326.729 1361.81 326.925C1362.48 327.286 1363.26 327.366 1363.99 327.599C1364.74 327.842 1365.42 328.242 1366 328.773C1366.58 329.304 1367.03 329.952 1367.34 330.674C1367.54 331.165 1367.68 331.678 1367.75 332.201C1367.97 333.635 1367.82 335.101 1367.31 336.459C1366.5 338.61 1364.81 340.491 1364.71 342.787C1363.67 342.035 1363.29 340.676 1362.46 339.701C1361.84 338.98 1360.99 338.49 1360.06 338.311C1359.8 338.296 1359.56 338.205 1359.35 338.051C1359.2 337.878 1359.11 337.666 1359.09 337.442L1358.38 334.091C1358.23 333.409 1358.05 332.666 1357.49 332.251C1357.14 332.028 1356.74 331.889 1356.33 331.844C1355.35 331.673 1354.36 331.582 1353.37 331.574" fill="#2F2E41"/>
</g>
<g clip-path="url(#clip4)">
<path d="M551.276 355.909C551.276 334.967 534.287 285.271 513.33 285.271C492.373 285.271 475.384 334.967 475.384 355.909C475.391 365.969 479.391 375.615 486.507 382.726C493.622 389.837 503.27 393.831 513.33 393.831C523.39 393.831 533.038 389.837 540.153 382.726C547.269 375.615 551.27 365.969 551.276 355.909Z" fill="#E6E6E6"/>
<path d="M513.33 448.165C513.413 448.165 513.492 448.132 513.551 448.074C513.609 448.015 513.642 447.936 513.642 447.853V317.117C513.642 317.034 513.609 316.955 513.551 316.896C513.492 316.838 513.413 316.805 513.33 316.805C513.247 316.805 513.168 316.838 513.11 316.896C513.051 316.955 513.018 317.034 513.018 317.117V447.853C513.018 447.936 513.051 448.015 513.11 448.074C513.168 448.132 513.247 448.165 513.33 448.165Z" fill="#3F3D56" stroke="#3F3D56"/>
<path d="M513.33 342.356C513.371 342.356 513.412 342.348 513.45 342.333C513.487 342.317 513.522 342.294 513.551 342.265L528.57 327.256C528.599 327.228 528.622 327.193 528.638 327.155C528.654 327.117 528.663 327.076 528.663 327.035C528.663 326.994 528.655 326.953 528.639 326.915C528.624 326.877 528.601 326.842 528.571 326.813C528.542 326.784 528.508 326.761 528.47 326.746C528.431 326.73 528.391 326.722 528.349 326.722C528.308 326.722 528.268 326.731 528.23 326.747C528.192 326.763 528.157 326.786 528.128 326.816L513.109 341.824C513.066 341.868 513.036 341.923 513.024 341.984C513.012 342.044 513.018 342.107 513.042 342.164C513.066 342.221 513.106 342.27 513.157 342.304C513.208 342.338 513.268 342.356 513.33 342.356Z" fill="#3F3D56" stroke="#3F3D56"/>
<path d="M513.33 368.339C513.392 368.339 513.452 368.321 513.503 368.287C513.555 368.253 513.595 368.204 513.618 368.147C513.642 368.09 513.648 368.027 513.636 367.967C513.624 367.906 513.594 367.851 513.551 367.807L488.399 342.672C488.34 342.615 488.261 342.582 488.179 342.583C488.097 342.583 488.018 342.616 487.96 342.674C487.902 342.732 487.869 342.811 487.868 342.893C487.868 342.975 487.9 343.054 487.958 343.113L513.11 368.248C513.138 368.277 513.173 368.3 513.211 368.316C513.249 368.331 513.289 368.339 513.33 368.339Z" fill="#3F3D56" stroke="#3F3D56"/>
<path d="M535.903 456.333C535.849 456.375 535.792 456.412 535.737 456.453H489.218C488.306 452.763 487.984 449.068 489.346 445.859C491.286 441.287 497.027 438.433 501.591 440.397C502.673 440.875 503.615 441.619 504.329 442.561C506.113 439.371 509.313 436.965 513.006 436.967C517.633 436.971 521.48 440.752 522.736 445.12C524.757 441.71 528.751 439.327 532.654 440.352C539.182 442.067 541.244 452.208 535.903 456.333Z" fill="#536DFE"/>
<path d="M417.27 368.894C417.699 369.007 418.098 369.212 418.439 369.495C418.78 369.779 419.055 370.134 419.244 370.535C419.433 370.936 419.531 371.374 419.533 371.817C419.535 372.261 419.439 372.699 419.253 373.102L427.012 380.585L421.546 381.81L415.016 374.516C414.36 374.158 413.859 373.573 413.606 372.87C413.354 372.168 413.368 371.397 413.646 370.704C413.923 370.011 414.446 369.444 415.114 369.11C415.782 368.777 416.549 368.7 417.27 368.894Z" fill="#FFB8B8"/>
<path d="M428.182 388.579L418.609 379.599C418.477 379.475 418.371 379.326 418.298 379.16C418.224 378.994 418.184 378.816 418.181 378.635C418.177 378.454 418.21 378.273 418.277 378.105C418.345 377.937 418.445 377.784 418.572 377.655L420.527 375.675C420.759 375.441 421.069 375.299 421.398 375.276C421.728 375.253 422.054 375.35 422.317 375.551L430.339 381.681L435.343 369.544C435.541 369.065 435.835 368.631 436.206 368.27C436.578 367.909 437.019 367.629 437.504 367.445C437.988 367.262 438.505 367.179 439.023 367.204C439.54 367.228 440.047 367.358 440.512 367.586C441.246 367.941 441.844 368.524 442.218 369.248C442.591 369.972 442.72 370.797 442.585 371.6C441.677 377.121 436.175 384.42 432.976 388.279C432.539 388.805 431.95 389.182 431.29 389.36C430.63 389.537 429.931 389.505 429.289 389.269C428.878 389.115 428.501 388.88 428.182 388.579Z" fill="#6C63FF"/>
<path d="M422.81 379.867L415.763 369.646C415.672 369.514 415.637 369.351 415.666 369.194C415.695 369.037 415.785 368.897 415.917 368.806L416.2 368.611C416.265 368.566 416.339 368.535 416.416 368.518C416.494 368.501 416.574 368.5 416.652 368.515C416.73 368.529 416.804 368.558 416.87 368.602C416.937 368.645 416.994 368.7 417.039 368.766L424.087 378.988C424.132 379.053 424.163 379.126 424.18 379.204C424.197 379.281 424.198 379.361 424.183 379.439C424.169 379.517 424.14 379.591 424.096 379.658C424.053 379.724 423.998 379.782 423.932 379.827L423.649 380.022C423.518 380.112 423.355 380.147 423.198 380.118C423.041 380.089 422.901 379.999 422.81 379.867Z" fill="white"/>
<path d="M420.84 379.943L414.991 371.46C414.742 371.098 414.647 370.651 414.726 370.218C414.806 369.786 415.054 369.402 415.415 369.152L416.011 368.741L423.744 379.957L423.148 380.368H423.148C422.785 380.617 422.339 380.713 421.906 380.633C421.473 380.553 421.09 380.305 420.84 379.943Z" fill="#3F3D56"/>
<path d="M421.547 453.166L417.874 452.742L418.36 438.438L423.183 438.995L421.547 453.166Z" fill="#FFB8B8"/>
<path d="M422.073 456.835L410.227 455.468L410.244 455.318C410.314 454.713 410.503 454.127 410.799 453.594C411.095 453.062 411.494 452.593 411.971 452.214C412.449 451.835 412.996 451.554 413.582 451.387C414.169 451.22 414.782 451.17 415.387 451.24L415.388 451.24L422.623 452.075L422.073 456.835Z" fill="#2F2E41"/>
<path d="M464.27 450.45L460.736 451.541L454.844 438.431L460.06 436.82L464.27 450.45Z" fill="#FFB8B8"/>
<path d="M466.229 453.597L454.835 457.116L454.791 456.972C454.611 456.389 454.547 455.777 454.604 455.17C454.661 454.563 454.836 453.974 455.121 453.435C455.405 452.896 455.793 452.418 456.263 452.029C456.732 451.64 457.273 451.347 457.855 451.167L457.856 451.167L464.815 449.018L466.229 453.597Z" fill="#2F2E41"/>
<path d="M417.446 449.869C417.073 449.753 416.759 449.497 416.571 449.155C416.384 448.812 416.336 448.41 416.44 448.034L418.654 422.541C418.757 421.378 419.122 420.253 419.724 419.252L433.129 397.005L445.125 399.16L445.203 399.193C451.033 402.763 456.209 420.078 461.215 436.822C461.994 439.426 462.799 442.119 463.584 444.692C463.731 445.059 463.727 445.469 463.575 445.834C463.423 446.199 463.134 446.49 462.771 446.645L459.138 448.175C458.794 448.32 458.408 448.333 458.055 448.21C457.702 448.086 457.408 447.836 457.229 447.507L438.556 413.321C438.533 413.278 438.5 413.242 438.459 413.214C438.419 413.187 438.372 413.171 438.324 413.165C438.276 413.159 438.227 413.165 438.182 413.183C438.137 413.2 438.097 413.229 438.065 413.266L427.228 425.529L423.246 448.898L423.23 448.949C423.086 449.283 422.826 449.554 422.499 449.712C422.171 449.87 421.797 449.904 421.446 449.808L417.54 449.882L417.516 449.883L417.446 449.869Z" fill="#2F2E41"/>
<path d="M432.48 399.443L432.405 399.419L432.382 399.343C432.326 399.157 426.842 380.602 431.784 368.773L431.789 368.762C431.933 368.481 435.38 361.858 439.385 361.196L439.492 361.178L440.793 363.612C441.202 364.022 448.248 371.338 445.05 383.913C445.337 384.944 449.228 399.1 447.113 401.216C446.636 401.692 445.68 401.878 444.472 401.878C440.224 401.878 432.876 399.569 432.48 399.443Z" fill="#6C63FF"/>
<path d="M438.559 358.876C443.724 358.876 447.911 354.69 447.911 349.525C447.911 344.36 443.724 340.173 438.559 340.173C433.395 340.173 429.208 344.36 429.208 349.525C429.208 354.69 433.395 358.876 438.559 358.876Z" fill="#2F2E41"/>
<path d="M434.844 358.832C438.936 358.832 442.254 355.515 442.254 351.423C442.254 347.331 438.936 344.014 434.844 344.014C430.752 344.014 427.435 347.331 427.435 351.423C427.435 355.515 430.752 358.832 434.844 358.832Z" fill="#FFB8B8"/>
<path d="M439.612 358.62C438.936 358.86 438.107 359.071 437.575 358.574C437.056 358.088 437.151 357.201 437.457 356.547C437.763 355.893 438.237 355.311 438.383 354.6C438.591 353.58 438.052 352.52 437.282 351.855C436.513 351.19 435.544 350.841 434.599 350.505L429.412 348.661C428.128 348.205 426.745 347.668 426.027 346.467C424.987 344.73 425.937 342.246 427.643 341.232C429.348 340.218 431.501 340.407 433.341 341.12C434.359 341.514 435.327 342.057 436.379 342.335C438.456 342.883 440.817 342.391 442.642 343.562C444.23 344.582 444.967 346.661 444.914 348.607C444.86 350.553 444.144 352.407 443.388 354.186C442.938 355.245 442.458 356.316 441.696 357.158C440.935 358.001 439.834 358.59 438.735 358.435L439.612 358.62Z" fill="#2F2E41"/>
<path d="M446.403 351.033C449.735 351.033 452.436 348.332 452.436 345C452.436 341.668 449.735 338.967 446.403 338.967C443.071 338.967 440.369 341.668 440.369 345C440.369 348.332 443.071 351.033 446.403 351.033Z" fill="#2F2E41"/>
<path d="M436.448 353.748C436.448 353.639 436.477 353.531 436.534 353.437C436.59 353.343 436.671 353.267 436.767 353.215C436.864 353.164 436.973 353.139 437.082 353.145C437.191 353.151 437.297 353.186 437.388 353.247C437.479 353.308 437.551 353.393 437.598 353.492C437.644 353.591 437.662 353.701 437.651 353.81C437.64 353.919 437.599 354.023 437.533 354.11C437.467 354.198 437.379 354.266 437.277 354.307V355.634C437.277 355.694 437.253 355.751 437.211 355.794C437.169 355.836 437.111 355.86 437.051 355.86C436.991 355.86 436.933 355.836 436.891 355.794C436.849 355.751 436.825 355.694 436.825 355.634V354.307C436.713 354.262 436.618 354.185 436.551 354.085C436.484 353.986 436.448 353.868 436.448 353.748Z" fill="white"/>
<path d="M417.637 375.227C418.078 375.183 418.524 375.236 418.942 375.383C419.361 375.53 419.742 375.767 420.059 376.077C420.376 376.387 420.621 376.763 420.777 377.178C420.933 377.593 420.996 378.037 420.962 378.479L430.843 382.789L426.147 385.842L417.484 381.282C416.745 381.175 416.07 380.801 415.589 380.231C415.107 379.66 414.852 378.933 414.871 378.186C414.89 377.44 415.182 376.726 415.691 376.181C416.201 375.635 416.893 375.296 417.637 375.227V375.227Z" fill="#FFB8B8"/>
<path d="M434.726 389.874L422.623 384.793C422.456 384.723 422.305 384.62 422.178 384.491C422.052 384.361 421.952 384.208 421.886 384.039C421.819 383.87 421.787 383.69 421.792 383.509C421.796 383.328 421.837 383.15 421.911 382.984L423.053 380.448C423.189 380.147 423.43 379.906 423.731 379.769C424.032 379.633 424.372 379.611 424.688 379.707L434.343 382.657L434.804 369.536C434.822 369.018 434.946 368.51 435.168 368.042C435.391 367.574 435.707 367.157 436.097 366.816C436.487 366.475 436.943 366.218 437.437 366.061C437.93 365.903 438.451 365.848 438.966 365.9C439.777 365.977 440.541 366.315 441.144 366.863C441.746 367.411 442.155 368.14 442.308 368.94C443.381 374.431 440.768 383.19 439.115 387.922C438.889 388.567 438.468 389.126 437.911 389.522C437.354 389.919 436.688 390.132 436.004 390.134C435.565 390.134 435.13 390.045 434.726 389.874Z" fill="#6C63FF"/>
<path d="M352.284 392.145C352.284 381.243 343.44 355.374 332.531 355.374C321.623 355.374 312.779 381.243 312.779 392.145C312.782 397.381 314.864 402.403 318.568 406.105C322.272 409.807 327.295 411.886 332.531 411.886C337.768 411.886 342.791 409.807 346.495 406.105C350.199 402.403 352.281 397.381 352.284 392.145Z" fill="#E6E6E6"/>
<path d="M332.53 438.926C332.558 438.926 332.586 438.921 332.612 438.91C332.638 438.899 332.662 438.883 332.682 438.863C332.702 438.843 332.717 438.819 332.728 438.793C332.739 438.766 332.745 438.738 332.745 438.71V362.603C332.744 362.546 332.722 362.491 332.681 362.451C332.641 362.41 332.586 362.387 332.53 362.387C332.473 362.387 332.418 362.41 332.378 362.451C332.338 362.491 332.315 362.546 332.315 362.603V438.71C332.315 438.738 332.32 438.766 332.331 438.793C332.342 438.819 332.358 438.843 332.378 438.863C332.398 438.883 332.421 438.899 332.447 438.91C332.473 438.921 332.501 438.926 332.53 438.926Z" fill="#3F3D56" stroke="#3F3D56"/>
<path d="M332.531 379.848C332.56 379.848 332.588 379.843 332.614 379.832C332.641 379.821 332.665 379.805 332.685 379.785L343.126 369.351C343.167 369.31 343.189 369.255 343.189 369.197C343.189 369.14 343.166 369.085 343.126 369.044C343.085 369.003 343.03 368.981 342.972 368.981C342.915 368.981 342.86 369.004 342.819 369.044L332.378 379.478C332.348 379.509 332.327 379.547 332.319 379.589C332.31 379.631 332.315 379.675 332.331 379.714C332.348 379.754 332.375 379.788 332.411 379.812C332.447 379.836 332.489 379.848 332.531 379.848Z" fill="#3F3D56" stroke="#3F3D56"/>
<path d="M332.531 397.912C332.574 397.912 332.616 397.899 332.652 397.875C332.688 397.851 332.715 397.817 332.732 397.778C332.748 397.738 332.753 397.695 332.744 397.653C332.736 397.61 332.715 397.572 332.685 397.542L319.724 384.894C319.684 384.854 319.628 384.831 319.571 384.831C319.513 384.831 319.458 384.854 319.418 384.894C319.377 384.935 319.354 384.99 319.354 385.048C319.354 385.105 319.377 385.16 319.417 385.201L332.378 397.848C332.398 397.868 332.422 397.884 332.448 397.895C332.475 397.906 332.503 397.912 332.531 397.912Z" fill="#3F3D56" stroke="#3F3D56"/>
<path d="M348.225 444.605C348.187 444.634 348.147 444.66 348.109 444.688H315.769C315.135 442.123 314.911 439.554 315.858 437.324C317.206 434.145 321.198 432.161 324.371 433.526C325.123 433.858 325.777 434.376 326.274 435.031C327.514 432.813 329.739 431.14 332.306 431.142C335.523 431.144 338.198 433.773 339.07 436.81C340.476 434.439 343.252 432.782 345.965 433.495C350.504 434.687 351.938 441.737 348.225 444.605Z" fill="#536DFE"/>
<path d="M415.303 344.349H310.324C309.005 344.348 307.739 343.823 306.806 342.89C305.873 341.957 305.348 340.691 305.347 339.372V285.977C305.348 284.658 305.873 283.393 306.806 282.46C307.739 281.526 309.005 281.001 310.324 281H415.303C416.622 281.001 417.888 281.526 418.821 282.46C419.754 283.393 420.279 284.658 420.28 285.977V339.372C420.279 340.691 419.754 341.957 418.821 342.89C417.888 343.823 416.622 344.348 415.303 344.349Z" fill="#E6E6E6"/>
<path d="M414.096 340.729H311.531C310.851 340.728 310.199 340.458 309.719 339.977C309.238 339.497 308.967 338.845 308.967 338.165V287.184C308.967 286.504 309.238 285.852 309.719 285.372C310.199 284.891 310.851 284.621 311.531 284.62H414.096C414.776 284.621 415.428 284.891 415.908 285.372C416.389 285.852 416.659 286.504 416.66 287.184V338.165C416.659 338.845 416.389 339.497 415.908 339.977C415.428 340.458 414.776 340.728 414.096 340.729Z" fill="white"/>
<path d="M408.156 353.601L396.621 342.066L411.41 342.44V352.253C411.414 352.631 411.304 353.001 411.094 353.315C410.884 353.63 410.584 353.873 410.233 354.014C409.998 354.112 409.746 354.163 409.492 354.164C409.243 354.163 408.997 354.113 408.768 354.016C408.538 353.92 408.331 353.778 408.156 353.601Z" fill="#E6E6E6"/>
<path d="M401.608 310.388H349.722C349.082 310.388 348.468 310.134 348.016 309.682C347.563 309.229 347.309 308.615 347.309 307.975C347.309 307.335 347.563 306.721 348.016 306.269C348.468 305.816 349.082 305.562 349.722 305.562H401.608C402.248 305.562 402.862 305.816 403.315 306.269C403.767 306.721 404.021 307.335 404.021 307.975C404.021 308.615 403.767 309.229 403.315 309.682C402.862 310.134 402.248 310.388 401.608 310.388Z" fill="#CCCCCC"/>
<path d="M384.715 300.132H349.722C349.082 300.132 348.468 299.878 348.016 299.425C347.563 298.972 347.309 298.359 347.309 297.719C347.309 297.078 347.563 296.465 348.016 296.012C348.468 295.559 349.082 295.305 349.722 295.305H384.715C385.355 295.305 385.969 295.559 386.422 296.012C386.874 296.465 387.128 297.078 387.128 297.719C387.128 298.359 386.874 298.972 386.422 299.425C385.969 299.878 385.355 300.132 384.715 300.132Z" fill="#CCCCCC"/>
<path d="M328.244 310.388C332.409 310.388 335.785 307.012 335.785 302.847C335.785 298.682 332.409 295.305 328.244 295.305C324.079 295.305 320.702 298.682 320.702 302.847C320.702 307.012 324.079 310.388 328.244 310.388Z" fill="#6C63FF"/>
<path d="M385.618 330.044C386.951 330.044 388.032 328.963 388.032 327.631C388.032 326.298 386.951 325.217 385.618 325.217C384.286 325.217 383.205 326.298 383.205 327.631C383.205 328.963 384.286 330.044 385.618 330.044Z" fill="#E6E6E6"/>
<path d="M394.065 330.044C395.398 330.044 396.478 328.963 396.478 327.631C396.478 326.298 395.398 325.217 394.065 325.217C392.732 325.217 391.652 326.298 391.652 327.631C391.652 328.963 392.732 330.044 394.065 330.044Z" fill="#E6E6E6"/>
<path d="M402.511 330.044C403.844 330.044 404.925 328.963 404.925 327.631C404.925 326.298 403.844 325.217 402.511 325.217C401.179 325.217 400.098 326.298 400.098 327.631C400.098 328.963 401.179 330.044 402.511 330.044Z" fill="#E6E6E6"/>
</g>
<defs>
<clipPath id="clip0">
<rect width="234" height="124.237" fill="white" transform="translate(615 335)"/>
</clipPath>
<clipPath id="clip1">
<rect width="156" height="109.488" fill="white" transform="translate(944 349)"/>
</clipPath>
<clipPath id="clip2">
<rect width="239.708" height="206" fill="white" transform="translate(27 263)"/>
</clipPath>
<clipPath id="clip3">
<rect width="248" height="196.87" fill="white" transform="translate(1153 258)"/>
</clipPath>
<clipPath id="clip4">
<rect width="254" height="176.218" fill="white" transform="translate(299 281)"/>
</clipPath>
</defs>
</svg>
