<?xml version="1.0" standalone="no"?>
<!DOCTYPE svg PUBLIC "-//W3C//DTD SVG 20010904//EN"
 "http://www.w3.org/TR/2001/REC-SVG-20010904/DTD/svg10.dtd">
<svg version="1.0" xmlns="http://www.w3.org/2000/svg"
 width="1350.000000pt" height="1350.000000pt" viewBox="0 0 1350.000000 1350.000000"
 preserveAspectRatio="xMidYMid meet">
<g transform="translate(0.000000,1350.000000) scale(0.100000,-0.100000)"
fill="#000000" stroke="none">
<path d="M5590 12224 c-382 -40 -643 -95 -985 -209 -374 -123 -708 -274 -1060
-479 -183 -107 -499 -327 -659 -460 -271 -226 -387 -339 -701 -680 -125 -136
-227 -245 -365 -391 -52 -55 -171 -181 -264 -280 -93 -99 -203 -216 -245 -261
-42 -44 -124 -132 -182 -195 -91 -99 -618 -659 -881 -937 -48 -52 -88 -99 -88
-106 0 -8 16 -16 37 -19 20 -4 471 -6 1002 -7 531 0 976 0 989 0 13 0 22 -6
22 -15 0 -9 -118 -141 -263 -294 -144 -152 -318 -338 -387 -412 -108 -115
-332 -354 -520 -552 -65 -69 -74 -83 -59 -92 6 -4 488 -7 1072 -6 608 1 1068
-3 1076 -8 19 -13 12 -22 -138 -183 -74 -78 -191 -204 -260 -278 -69 -74 -162
-173 -207 -220 -44 -47 -157 -166 -249 -265 -93 -99 -210 -222 -260 -273 -99
-102 -109 -116 -101 -138 5 -12 126 -14 866 -14 741 0 861 -2 866 -14 5 -13
-71 -233 -110 -321 -8 -16 -33 -82 -56 -145 -23 -63 -60 -160 -81 -215 -91
-237 -109 -285 -139 -370 -18 -49 -38 -103 -45 -120 -7 -16 -28 -68 -45 -115
-18 -47 -41 -106 -51 -132 -10 -26 -19 -53 -19 -61 0 -25 359 -377 601 -588
595 -522 1217 -957 1904 -1334 112 -61 454 -234 525 -265 112 -49 294 -130
325 -145 51 -24 361 -143 505 -193 105 -37 273 -89 435 -135 28 -8 68 -20 90
-26 22 -7 58 -13 80 -14 l40 -2 6 180 c3 99 11 279 18 400 6 121 21 391 31
600 11 209 24 418 30 465 5 47 17 189 25 315 9 127 21 268 26 315 6 47 14 130
19 185 10 103 46 427 60 545 9 68 29 175 54 295 51 236 187 539 322 715 113
148 349 339 519 419 286 135 502 171 911 152 444 -21 775 -87 1184 -237 248
-90 386 -110 560 -80 208 36 326 96 808 414 145 95 189 111 308 112 106 0 176
18 254 65 91 56 123 96 217 275 33 63 70 131 81 151 187 333 264 562 308 919
17 144 16 193 -12 515 -9 99 -19 230 -24 290 -24 350 -47 457 -122 582 -39 65
-179 203 -263 258 -60 39 -195 100 -387 174 -57 21 -164 65 -238 96 -74 31
-175 72 -225 91 -49 20 -112 45 -140 56 -27 11 -86 33 -130 49 -44 15 -105 38
-135 49 -30 12 -66 25 -80 30 -38 12 -237 94 -300 123 -30 14 -102 46 -160 72
-135 59 -499 246 -559 287 -25 17 -87 72 -137 122 -168 169 -246 333 -290 616
-45 294 -191 533 -437 719 -206 155 -543 250 -848 238 -151 -6 -181 -10 -373
-51 -199 -42 -338 -51 -504 -32 -134 15 -246 36 -302 55 -52 18 -447 139 -525
161 -16 5 -84 25 -150 45 -275 84 -487 144 -600 172 -180 43 -208 46 -495 48
-157 2 -301 1 -320 -1z"/>
</g>
</svg>
