<svg width="422" height="297" viewBox="0 0 422 297" fill="none" xmlns="http://www.w3.org/2000/svg">
<g clip-path="url(#clip0)">
<path d="M374.98 55.582C387.476 55.582 397.606 45.4459 397.606 32.9423C397.606 20.4388 387.476 10.3026 374.98 10.3026C362.483 10.3026 352.353 20.4388 352.353 32.9423C352.353 45.4459 362.483 55.582 374.98 55.582Z" fill="#FF6584"/>
<path d="M290.181 92.586L272.453 57.7575L290.235 88.237L290.397 75.7706L278.214 50.5939L290.441 72.4745L290.731 50.055L277.487 29.9053L290.775 46.5293L291.743 5.60378L291.748 5.43381L291.748 5.60664L291.595 57.5337L306.217 36.5132L291.637 61.9368L292.214 87.0013L292.274 86.3387L309.134 64.163L292.254 88.6849L292.327 91.8197L292.356 91.8691L292.335 92.125L293.099 125.299C291.996 125.345 290.881 125.364 289.756 125.356L289.788 122.775L274.406 97.3722L289.82 120.307L290.181 92.586Z" fill="#3F3D56"/>
<path d="M207.584 112.486L189.856 77.6571L207.638 108.137L207.799 95.6701L195.617 70.4934L207.844 92.3741L208.134 69.9545L194.89 49.8049L208.178 66.4288L209.146 25.5033L209.151 25.3333L209.151 25.5061L208.998 77.4333L223.62 56.4127L209.04 81.8364L209.617 106.901L209.677 106.238L226.537 84.0625L209.657 108.584L209.73 111.719L209.759 111.769L209.738 112.025L210.502 145.199C209.399 145.245 208.284 145.264 207.159 145.255L207.191 142.674L191.809 117.272L207.223 140.207L207.584 112.486Z" fill="#CBCBCB"/>
<path d="M361.265 87.1522L343.537 52.3237L361.319 82.8032L361.481 70.3368L349.298 45.1601L361.525 67.0407L361.815 44.6212L348.571 24.4716L361.859 41.0955L362.827 0.169987L362.832 1.52588e-05L362.832 0.172845L362.679 52.1L377.301 31.0795L362.721 56.5031L363.298 81.5675L363.358 80.9049L380.218 58.7292L363.338 83.2511L363.412 86.3859L363.44 86.4353L363.419 86.6913L364.183 119.866C363.08 119.912 361.966 119.93 360.84 119.922L360.872 117.341L345.49 91.9384L360.904 114.874L361.265 87.1522Z" fill="#3F3D56"/>
<path d="M56.0865 206.834C66.413 199.218 77.2422 192.308 88.5002 186.153C119.987 168.769 158.708 153.904 202.728 142.388C205.753 141.595 208.803 140.819 211.879 140.06C218.41 138.443 225.05 136.903 231.799 135.44C233.466 135.08 235.137 134.722 236.813 134.365C246.205 132.389 255.783 130.565 265.549 128.893C265.746 128.857 265.942 128.826 266.142 128.795C268.435 128.398 270.738 128.014 273.051 127.644C319.274 120.129 369.365 115.995 421.698 115.932C422.131 115.928 422.568 115.928 423 115.928V297H0C0 264.171 20.4056 233.384 56.0865 206.834Z" fill="#DADADA"/>
<path d="M140.134 227.488C158.16 214.077 181.24 202.066 208.264 191.938C211.264 190.81 214.313 189.708 217.411 188.633C217.843 188.482 218.28 188.33 218.717 188.178C222.661 186.822 226.682 185.502 230.778 184.218C237.7 182.053 244.819 180.008 252.133 178.081C257.369 176.697 262.697 175.378 268.117 174.125C269.858 173.718 271.607 173.322 273.363 172.939C277.356 172.05 281.396 171.199 285.483 170.388C327.27 162.057 373.867 157.405 423 157.405V297H96.8936C96.8936 271.69 112.628 247.954 140.134 227.488Z" fill="#6C63FF"/>
<path d="M131.584 289.757L132.391 290.141C135.13 284.466 138.475 279.106 142.367 274.152L141.662 273.603C137.732 278.609 134.353 284.025 131.584 289.757ZM154.544 259.599L155.155 260.25C159.528 256.181 164.127 252.36 168.928 248.806C169.195 248.606 169.467 248.405 169.739 248.204L169.209 247.486C168.937 247.687 168.665 247.887 168.393 248.093C163.566 251.667 158.943 255.509 154.544 259.599ZM185.046 236.956L185.505 237.719C190.702 234.579 196.278 231.493 202.073 228.545L201.667 227.747C195.855 230.708 190.261 233.808 185.046 236.956ZM218.863 219.661L219.215 220.477C224.845 218.028 230.76 215.638 236.786 213.377L236.474 212.543C230.43 214.808 224.506 217.203 218.863 219.661ZM254.406 206.277L254.678 207.124C256.256 206.611 257.838 206.107 259.438 205.603C263.798 204.243 268.299 202.905 272.824 201.638L272.583 200.778C268.05 202.049 263.539 203.387 259.171 204.756C257.572 205.257 255.984 205.764 254.406 206.277H254.406ZM296.541 194.654C294.673 195.082 292.793 195.528 290.956 195.974L291.166 196.839C293.002 196.398 294.879 195.952 296.746 195.519C298.516 195.109 300.276 194.708 301.984 194.337C304.529 193.771 307.114 193.214 309.663 192.687L309.485 191.813C306.927 192.344 304.341 192.897 301.792 193.463C300.085 193.838 298.315 194.239 296.541 194.654L296.541 194.654ZM328.135 188.254L328.291 189.133C334.428 188.058 340.731 187.05 347.016 186.14L346.887 185.257C340.593 186.171 334.286 187.179 328.135 188.254ZM365.719 182.8L365.821 183.687C372.035 182.965 378.382 182.313 384.689 181.747L384.609 180.86C378.297 181.426 371.941 182.077 365.719 182.8H365.719ZM403.548 179.419L403.602 180.311C409.86 179.914 416.234 179.593 422.545 179.357L422.514 178.465C416.189 178.705 409.811 179.027 403.548 179.419H403.548Z" fill="white"/>
<path d="M225.086 248.365C264.471 219.059 338.355 199.328 423 199.328V297H194.83C194.83 279.294 205.839 262.685 225.086 248.365Z" fill="#F1F1F1"/>
<path opacity="0.2" d="M56.0865 206.834L140.134 227.488L225.086 248.365L423 297H0C0 264.171 20.4056 233.384 56.0865 206.834Z" fill="black"/>
<path d="M107.175 188.136L104.319 188.136L102.96 177.114H107.176L107.175 188.136Z" fill="#FFB7B7"/>
<path d="M107.904 190.906L98.6948 190.906V190.789C98.6949 189.838 99.0726 188.926 99.7448 188.253C100.417 187.581 101.329 187.203 102.279 187.203H102.279L107.904 187.203L107.904 190.906Z" fill="#2F2E41"/>
<path d="M132.406 186.031L129.648 186.772L125.479 176.479L129.55 175.385L132.406 186.031Z" fill="#FFB7B7"/>
<path d="M133.827 188.518L124.933 190.906L124.903 190.794C124.656 189.875 124.785 188.896 125.26 188.072C125.735 187.248 126.517 186.647 127.435 186.4L127.436 186.4L132.868 184.941L133.827 188.518Z" fill="#2F2E41"/>
<path d="M95.2822 137.018C93.6315 139.142 98.8194 156.838 99.0552 157.074C99.2911 157.31 98.8194 158.726 98.8194 158.726C98.8184 158.981 98.9012 159.23 99.0552 159.434C99.291 159.67 99.0552 159.906 99.0552 160.377C99.0552 160.849 99.0552 160.849 99.5269 161.793C99.8094 162.463 99.8913 163.201 99.7627 163.917L102.828 181.849C102.602 181.947 102.411 182.113 102.284 182.325C102.157 182.536 102.1 182.783 102.121 183.029C102.121 183.973 106.837 184.445 108.488 184.209C110.139 183.973 107.309 162.973 107.309 162.973C107.309 162.973 107.309 157.546 107.78 157.074C108.252 156.602 107.78 156.602 107.78 155.658C107.78 154.715 107.073 153.299 107.309 152.591C107.545 151.883 107.78 141.737 107.78 141.737C107.78 141.737 113.204 151.883 113.204 153.299C113.204 154.715 114.855 157.074 114.855 157.074L125.702 179.216C125.702 179.216 124.995 180.631 125.702 181.811C126.41 182.991 129.475 182.047 132.541 180.867C135.606 179.688 131.362 177.8 131.362 177.8L124.759 158.962C124.775 158.248 124.854 157.538 124.995 156.838C125.231 155.658 124.287 156.13 123.58 155.658C122.872 155.186 123.108 155.186 123.58 154.243C124.052 153.299 122.872 151.175 122.872 151.175L119.807 133.715C119.807 133.715 96.9329 134.895 95.2822 137.018Z" fill="#2F2E41"/>
<path d="M102.88 94.4861C106.266 94.4861 109.011 91.7394 109.011 88.3513C109.011 84.9632 106.266 82.2166 102.88 82.2166C99.494 82.2166 96.749 84.9632 96.749 88.3513C96.749 91.7394 99.494 94.4861 102.88 94.4861Z" fill="#FFB8B8"/>
<path d="M100.6 96.3559C100.6 96.3559 92.2359 100.191 91.5284 102.078C90.821 103.966 95.99 121.445 95.99 121.445C95.99 121.445 96.3037 128.795 95.3604 131.626C94.4172 134.458 94.5751 134.895 94.5751 134.895V137.018C94.5751 138.198 102.121 137.254 105.894 136.074C109.667 134.895 119.336 135.131 120.279 134.895C121.222 134.659 118.702 131.626 118.702 131.626C122.003 131.39 118.702 124.477 118.702 124.477C118.702 124.477 118.364 102.097 117.421 99.03C116.478 95.9627 107.746 95.4026 107.746 95.4026L103.3 96.9065L100.6 96.3559Z" fill="#6C63FF"/>
<path d="M110.308 86.7368C110.623 85.2017 110.324 83.6041 109.473 82.2881C108.968 81.5159 108.307 80.8574 107.534 80.3546C106.76 79.8518 105.89 79.5158 104.98 79.3678C103.178 79.1103 101.341 79.4216 99.7248 80.2584C98.7463 80.7387 97.6876 81.383 96.6632 81.0313L96.9641 81.5715L96.202 81.5805L96.4804 82.2125L95.7529 82.3165L96.3156 82.6543C95.5634 83.9947 95.0565 85.4587 94.8185 86.9774C94.6753 87.5778 94.7223 88.2079 94.9531 88.7803C95.2285 89.3188 95.939 89.6333 96.3938 89.262C96.6791 89.029 96.7762 88.6202 96.9764 88.3003C97.1765 87.9805 97.6364 87.7574 97.8748 88.0451L98.4899 86.8148L98.9823 87.216C100.168 86.172 101.536 85.3566 103.018 84.8107C103.199 84.7166 103.398 84.6648 103.601 84.6593C103.804 84.6538 104.005 84.6946 104.19 84.7788C104.74 85.1311 104.66 86.0326 105.041 86.5863C105.66 87.4865 107.184 87.1127 107.771 88.0381C107.943 88.4058 108.059 88.7972 108.116 89.1993C108.221 89.5923 108.473 90.0053 108.852 90.0308C109.651 89.2065 109.956 88.0636 110.308 86.7368Z" fill="#2F2E41"/>
<path d="M125.106 135.454C124.793 135.242 124.53 134.963 124.336 134.639C124.142 134.314 124.022 133.95 123.983 133.574C123.945 133.198 123.989 132.817 124.114 132.46C124.238 132.103 124.439 131.777 124.703 131.506L120.58 123.285L125.323 123.847L128.511 131.567C128.937 132.041 129.175 132.654 129.179 133.291C129.183 133.928 128.954 134.545 128.534 135.024C128.114 135.503 127.534 135.811 126.902 135.89C126.27 135.97 125.631 135.814 125.106 135.454L125.106 135.454Z" fill="#FFB8B8"/>
<path d="M121.71 129.554L116.903 113.986L111.417 102.084C111.186 101.581 111.071 101.033 111.083 100.48C111.094 99.9265 111.231 99.3831 111.483 98.8906C111.735 98.3981 112.095 97.9693 112.537 97.6366C112.979 97.3039 113.491 97.076 114.033 96.9701C114.894 96.8066 115.784 96.9563 116.544 97.3922C117.303 97.8281 117.882 98.5215 118.176 99.3471L128.18 127.917C128.234 128.073 128.255 128.238 128.24 128.401C128.226 128.565 128.177 128.724 128.096 128.868C128.016 129.011 127.906 129.135 127.773 129.233C127.641 129.33 127.489 129.399 127.329 129.433L123.057 130.344C122.976 130.362 122.894 130.37 122.811 130.37C122.564 130.37 122.324 130.291 122.125 130.144C121.927 129.997 121.781 129.79 121.71 129.554Z" fill="#6C63FF"/>
<path d="M92.0111 140.83C92.2705 140.554 92.4663 140.226 92.5849 139.866C92.7034 139.507 92.7418 139.126 92.6973 138.75C92.6528 138.375 92.5266 138.013 92.3274 137.692C92.1282 137.37 91.861 137.096 91.5445 136.889L93.7759 127.967L89.2692 129.551L87.8411 137.78C87.5287 138.335 87.4305 138.986 87.5653 139.608C87.7001 140.231 88.0584 140.782 88.5724 141.158C89.0865 141.534 89.7204 141.708 90.3542 141.648C90.9879 141.587 91.5775 141.296 92.0111 140.83V140.83Z" fill="#FFB8B8"/>
<path d="M93.1427 135.368C93.0619 135.386 92.9794 135.396 92.8966 135.396L88.5292 135.439C88.3649 135.441 88.202 135.408 88.0516 135.341C87.9011 135.275 87.7665 135.177 87.6567 135.055C87.5469 134.933 87.4643 134.788 87.4146 134.632C87.3649 134.475 87.3491 134.309 87.3683 134.146L90.9022 104.08C91.0085 103.21 91.4222 102.407 92.0685 101.816C92.7149 101.225 93.5512 100.884 94.4265 100.856C94.9792 100.841 95.5282 100.952 96.0319 101.18C96.5356 101.408 96.9809 101.748 97.3342 102.174C97.6875 102.599 97.9395 103.1 98.0711 103.637C98.2028 104.175 98.2107 104.735 98.0943 105.276L95.3356 118.088L94.0392 134.331C94.0207 134.577 93.9236 134.811 93.7621 134.997C93.6007 135.184 93.3835 135.314 93.1427 135.368Z" fill="#6C63FF"/>
</g>
<defs>
<clipPath id="clip0">
<rect width="423" height="297" fill="white"/>
</clipPath>
</defs>
</svg>
