<svg width="267" height="203" viewBox="0 0 267 203" fill="none" xmlns="http://www.w3.org/2000/svg">
<g clip-path="url(#clip0_431:44)">
<path d="M94.9819 47.235C94.8711 47.2349 94.7644 47.1929 94.6834 47.1173C94.6023 47.0417 94.553 46.9383 94.5452 46.8278C94.2587 42.9372 92.5126 39.2981 89.6562 36.6389C86.7999 33.9797 83.044 32.4964 79.1402 32.4859C78.673 32.4859 78.1822 32.5096 77.6814 32.5565C77.5976 32.5643 77.5134 32.5479 77.4387 32.5092C77.364 32.4705 77.3021 32.4111 77.2602 32.3381C75.467 29.2015 72.7891 26.6621 69.5608 25.0368C66.3324 23.4114 62.6966 22.7722 59.1069 23.1988C55.5173 23.6255 52.1329 25.0991 49.3761 27.4358C46.6193 29.7724 44.6121 32.8687 43.6051 36.3381C43.5785 36.4311 43.5218 36.5126 43.4437 36.5698C43.3657 36.627 43.2709 36.6566 43.1742 36.6541L43.0576 36.6505C42.997 36.6485 42.9365 36.6464 42.8754 36.6464C39.9144 36.6556 37.0455 37.6763 34.7449 39.5391C32.4442 41.4019 30.8501 43.9948 30.2269 46.8875C30.2062 46.9858 30.1523 47.074 30.0742 47.1373C29.9961 47.2005 29.8986 47.2351 29.7981 47.2351H0.438061C0.322033 47.2348 0.210863 47.1885 0.128927 47.1064C0.0469908 47.0243 0.000976562 46.9131 0.000976562 46.7971C0.000976562 46.6812 0.0469908 46.57 0.128927 46.4879C0.210863 46.4058 0.322033 46.3595 0.438061 46.3592H29.4474C30.1777 43.3504 31.8954 40.6727 34.3265 38.7534C36.7577 36.8342 39.7621 35.784 42.8602 35.7705C43.9632 32.2052 46.0785 29.0368 48.9492 26.6501C51.8199 24.2633 55.3225 22.7611 59.0313 22.3258C62.7402 21.8905 66.4957 22.5409 69.8417 24.198C73.1876 25.8552 75.98 28.4476 77.8796 31.6605C78.3107 31.6269 78.7336 31.61 79.1402 31.61C83.2657 31.6212 87.2347 33.1888 90.2532 35.999C93.2717 38.8093 95.1169 42.6549 95.4196 46.7664C95.4236 46.8238 95.4163 46.8814 95.398 46.936C95.3798 46.9905 95.351 47.041 95.3132 47.0844C95.2755 47.1278 95.2295 47.1634 95.178 47.189C95.1265 47.2147 95.0704 47.23 95.013 47.234C95.0026 47.2347 94.9922 47.235 94.9819 47.235Z" fill="#CBCBCB"/>
<path d="M89.768 52.8502H17.8958C17.7795 52.8502 17.6681 52.8041 17.5859 52.722C17.5037 52.6398 17.4575 52.5285 17.4575 52.4123C17.4575 52.2962 17.5037 52.1848 17.5859 52.1026C17.6681 52.0205 17.7795 51.9744 17.8958 51.9744H89.768C89.8842 51.9744 89.9957 52.0205 90.0779 52.1026C90.1601 52.1848 90.2063 52.2962 90.2063 52.4123C90.2063 52.5285 90.1601 52.6398 90.0779 52.722C89.9957 52.8041 89.8842 52.8502 89.768 52.8502Z" fill="#CBCBCB"/>
<path d="M35.4257 59.2004H11.3222C11.2646 59.2006 11.2075 59.1894 11.1542 59.1674C11.1009 59.1455 11.0524 59.1132 11.0116 59.0725C10.9708 59.0319 10.9384 58.9835 10.9163 58.9303C10.8942 58.8771 10.8828 58.8201 10.8828 58.7625C10.8828 58.7049 10.8942 58.6478 10.9163 58.5946C10.9384 58.5414 10.9708 58.4931 11.0116 58.4524C11.0524 58.4117 11.1009 58.3795 11.1542 58.3575C11.2075 58.3356 11.2646 58.3244 11.3222 58.3245H35.4257C35.5417 58.3248 35.6529 58.3711 35.7348 58.4532C35.8168 58.5353 35.8628 58.6465 35.8628 58.7625C35.8628 58.8784 35.8168 58.9896 35.7348 59.0717C35.6529 59.1538 35.5417 59.2001 35.4257 59.2004Z" fill="#CBCBCB"/>
<path d="M57.9609 144.412C57.9609 162.217 39.2819 170.736 39.2819 170.736C39.2819 170.736 20.4114 162.217 20.0282 144.412C19.803 133.947 28.5197 125.459 38.9946 125.459C41.4853 125.459 43.9516 125.949 46.2527 126.902C48.5538 127.854 50.6446 129.25 52.4058 131.01C54.167 132.77 55.564 134.86 56.5172 137.159C57.4703 139.459 57.9609 141.923 57.9609 144.412Z" fill="#E5E5E5"/>
<path d="M45.6044 171.789H32.96L31.4272 165.663H47.1368L45.6044 171.789Z" fill="#CBCBCB"/>
<path d="M45.1728 182.266H33.3906V188.402H45.1728V182.266Z" fill="white"/>
<path d="M45.2687 188.498H33.2949V182.171H45.2687V188.498ZM33.4865 188.306H45.0771V182.362H33.4865V188.306Z" fill="#CBCBCB"/>
<path d="M41.6971 172.512H36.8668L36.3125 171.641H42.2514L41.6971 172.512Z" fill="#CBCBCB"/>
<path d="M33.2472 171.789H33.0557V181.17H33.2472V171.789Z" fill="#CBCBCB"/>
<path d="M45.5085 171.789H45.3169V181.17H45.5085V171.789Z" fill="#CBCBCB"/>
<path d="M41.2024 165.559L41.0854 165.408C46.62 161.143 53.2175 153.836 53.2175 143.247C53.2219 139.539 52.1305 135.912 50.0802 132.82C48.0298 129.729 45.1118 127.312 41.6921 125.872L41.7668 125.695C45.2212 127.15 48.1688 129.592 50.2399 132.715C52.311 135.837 53.4135 139.501 53.409 143.247C53.409 153.914 46.771 161.268 41.2024 165.559Z" fill="#CBCBCB"/>
<path d="M35.0716 165.559L34.9546 165.408C40.4892 161.143 47.0867 153.836 47.0867 143.247C47.0882 139.564 46.0099 135.96 43.985 132.882C41.96 129.804 39.0772 127.387 35.6926 125.928L35.7685 125.752C39.1875 127.226 42.0996 129.668 44.1451 132.777C46.1905 135.886 47.2798 139.526 47.2783 143.247C47.2783 153.914 40.6402 161.268 35.0716 165.559Z" fill="#CBCBCB"/>
<path d="M42.9176 165.559C37.349 161.268 30.7109 153.914 30.7109 143.247C30.7094 139.526 31.7987 135.886 33.8442 132.777C35.8897 129.668 38.8018 127.226 42.2208 125.752L42.2968 125.928C38.9121 127.387 36.0292 129.804 34.0043 132.882C31.9793 135.96 30.901 139.564 30.9025 143.247C30.9025 153.836 37.5 161.143 43.0345 165.408L42.9176 165.559Z" fill="#CBCBCB"/>
<path d="M36.7867 165.559C31.2181 161.268 24.5801 153.914 24.5801 143.247C24.5739 139.486 25.6841 135.808 27.7703 132.678C29.8566 129.548 32.825 127.106 36.3001 125.663L36.374 125.839C32.9338 127.269 29.9951 129.685 27.9298 132.784C25.8646 135.883 24.7655 139.524 24.7717 143.247C24.7717 153.836 31.3691 161.143 36.9037 165.408L36.7867 165.559Z" fill="#CBCBCB"/>
<path d="M39.0905 125.459H38.8989V165.663H39.0905V125.459Z" fill="#CBCBCB"/>
<path d="M36.8363 180.875L33.3232 184.386L33.4587 184.521L36.9717 181.011L36.8363 180.875Z" fill="#CBCBCB"/>
<path d="M38.5439 180.817L33.3218 186.305L33.4606 186.437L38.6827 180.949L38.5439 180.817Z" fill="#CBCBCB"/>
<path d="M46.2747 180.883H31.9062V182.606H46.2747V180.883Z" fill="white"/>
<path d="M46.3706 182.702H31.8105V180.787H46.3706V182.702ZM32.0021 182.51H46.179V180.979H32.0021V182.51Z" fill="#CBCBCB"/>
<path d="M94.1104 99.2901C94.1104 111.042 81.7814 116.665 81.7814 116.665C81.7814 116.665 69.326 111.042 69.0731 99.2901C68.9245 92.3826 74.6779 86.7801 81.5918 86.7801C84.9119 86.7801 88.0961 88.0981 90.4438 90.4442C92.7915 92.7903 94.1104 95.9723 94.1104 99.2901Z" fill="#E5E5E5"/>
<path d="M85.954 117.36H77.6081L76.5967 113.316H86.9658L85.954 117.36Z" fill="#CBCBCB"/>
<path d="M85.6698 124.275H77.8931V128.325H85.6698V124.275Z" fill="white"/>
<path d="M85.7328 128.388H77.8296V124.212H85.7328V128.388ZM77.956 128.262H85.6063V124.339H77.956V128.262Z" fill="#CBCBCB"/>
<path d="M83.3754 117.837H80.1871L79.8213 117.262H83.7413L83.3754 117.837Z" fill="#CBCBCB"/>
<path d="M77.7983 117.36H77.6719V123.552H77.7983V117.36Z" fill="#CBCBCB"/>
<path d="M85.8911 117.36H85.7646V123.552H85.8911V117.36Z" fill="#CBCBCB"/>
<path d="M83.0489 113.248L82.9717 113.148C86.6247 110.333 90.9793 105.51 90.9793 98.5211C90.9823 96.0733 90.2619 93.6792 88.9086 91.6389C87.5553 89.5987 85.6293 88.0031 83.3721 87.0524L83.4214 86.936C85.7014 87.8964 87.647 89.5081 89.014 91.5691C90.3811 93.6301 91.1087 96.0485 91.1058 98.5211C91.1058 105.561 86.7244 110.415 83.0489 113.248Z" fill="#CBCBCB"/>
<path d="M79.0025 113.248L78.9253 113.148C82.5784 110.333 86.933 105.51 86.933 98.5211C86.934 96.0898 86.2223 93.7114 84.8857 91.6798C83.5492 89.6482 81.6464 88.0524 79.4124 87.0894L79.4625 86.9734C81.7192 87.9462 83.6413 89.5582 84.9914 91.6104C86.3415 93.6626 87.0604 96.0651 87.0594 98.5211C87.0595 105.561 82.6781 110.416 79.0025 113.248Z" fill="#CBCBCB"/>
<path d="M84.1809 113.248C80.5054 110.416 76.124 105.561 76.124 98.5211C76.123 96.0651 76.842 93.6626 78.1921 91.6104C79.5422 89.5582 81.4643 87.9461 83.721 86.9734L83.7711 87.0894C81.5371 88.0523 79.6343 89.6482 78.2978 91.6798C76.9612 93.7114 76.2495 96.0898 76.2504 98.5211C76.2504 105.51 80.6051 110.333 84.2581 113.148L84.1809 113.248Z" fill="#CBCBCB"/>
<path d="M80.1346 113.248C76.459 110.416 72.0777 105.561 72.0777 98.5211C72.0735 96.0387 72.8063 93.6109 74.1833 91.5449C75.5603 89.4789 77.5197 87.8674 79.8134 86.9145L79.8621 87.0311C77.5914 87.9744 75.6518 89.5697 74.2886 91.615C72.9254 93.6603 72.2 96.0637 72.2041 98.5211C72.2041 105.51 76.5587 110.333 80.2118 113.148L80.1346 113.248Z" fill="#CBCBCB"/>
<path d="M81.6548 86.7801H81.5283V113.316H81.6548V86.7801Z" fill="#CBCBCB"/>
<path d="M80.1669 123.357L77.8481 125.674L77.9375 125.764L80.2563 123.446L80.1669 123.357Z" fill="#CBCBCB"/>
<path d="M81.294 123.319L77.8472 126.941L77.9388 127.028L81.3856 123.406L81.294 123.319Z" fill="#CBCBCB"/>
<path d="M86.3969 123.362H76.9131V124.5H86.3969V123.362Z" fill="white"/>
<path d="M86.4599 124.563H76.8496V123.299H86.4599V124.563ZM76.9761 124.436H86.3334V123.426H76.9761V124.436Z" fill="#CBCBCB"/>
<path d="M198.918 115.357C198.997 115.357 199.074 115.327 199.132 115.273C199.19 115.218 199.225 115.144 199.231 115.065C199.436 112.276 200.688 109.668 202.735 107.762C204.783 105.856 207.475 104.792 210.273 104.785C210.608 104.785 210.96 104.802 211.319 104.836C211.379 104.841 211.439 104.829 211.493 104.802C211.546 104.774 211.591 104.731 211.621 104.679C212.906 102.431 214.825 100.611 217.14 99.4455C219.454 98.2805 222.06 97.8223 224.633 98.1281C227.206 98.4339 229.632 99.4902 231.608 101.165C233.584 102.84 235.022 105.059 235.744 107.546C235.763 107.613 235.804 107.671 235.86 107.712C235.916 107.753 235.984 107.774 236.053 107.773L236.137 107.77C236.18 107.769 236.224 107.767 236.267 107.767C238.39 107.774 240.446 108.505 242.095 109.841C243.744 111.176 244.887 113.034 245.334 115.108C245.348 115.178 245.387 115.241 245.443 115.287C245.499 115.332 245.569 115.357 245.641 115.357H266.686C266.727 115.357 266.768 115.349 266.806 115.333C266.845 115.318 266.879 115.295 266.909 115.265C266.938 115.236 266.961 115.202 266.977 115.163C266.993 115.125 267.001 115.084 267.001 115.043C267.001 115.002 266.993 114.961 266.977 114.923C266.961 114.885 266.938 114.85 266.909 114.821C266.879 114.792 266.845 114.768 266.806 114.753C266.768 114.737 266.727 114.729 266.686 114.729H245.892C245.369 112.572 244.138 110.653 242.395 109.277C240.652 107.902 238.499 107.149 236.278 107.139C235.488 104.584 233.971 102.313 231.914 100.602C229.856 98.8911 227.345 97.8143 224.687 97.5023C222.028 97.1903 219.337 97.6565 216.938 98.8443C214.54 100.032 212.538 101.89 211.177 104.193C210.868 104.169 210.565 104.157 210.273 104.157C207.316 104.165 204.471 105.289 202.307 107.303C200.144 109.317 198.821 112.074 198.604 115.021C198.601 115.062 198.607 115.103 198.62 115.143C198.633 115.182 198.653 115.218 198.681 115.249C198.708 115.28 198.74 115.306 198.777 115.324C198.814 115.342 198.855 115.353 198.896 115.356C198.903 115.357 198.911 115.357 198.918 115.357Z" fill="#CBCBCB"/>
<path d="M202.655 119.382H254.173C254.256 119.382 254.336 119.349 254.395 119.29C254.454 119.231 254.487 119.151 254.487 119.068C254.487 118.985 254.454 118.905 254.395 118.846C254.336 118.787 254.256 118.754 254.173 118.754H202.655C202.572 118.754 202.492 118.787 202.433 118.846C202.374 118.905 202.341 118.985 202.341 119.068C202.341 119.151 202.374 119.231 202.433 119.29C202.492 119.349 202.572 119.382 202.655 119.382Z" fill="#CBCBCB"/>
<path d="M241.608 123.934H258.885C258.968 123.933 259.047 123.9 259.106 123.841C259.165 123.782 259.198 123.703 259.198 123.62C259.198 123.537 259.165 123.457 259.106 123.398C259.047 123.339 258.968 123.306 258.885 123.306H241.608C241.566 123.306 241.525 123.314 241.487 123.33C241.449 123.345 241.415 123.369 241.385 123.398C241.356 123.427 241.333 123.461 241.317 123.5C241.302 123.538 241.293 123.578 241.293 123.62C241.293 123.661 241.302 123.702 241.317 123.74C241.333 123.778 241.356 123.813 241.385 123.842C241.415 123.871 241.449 123.894 241.487 123.91C241.525 123.925 241.566 123.934 241.608 123.934Z" fill="#CBCBCB"/>
<path d="M161.326 199.677H160.291L159.799 195.691H161.326V199.677Z" fill="#9F616A"/>
<path d="M161.589 200.678H158.255V200.636C158.255 200.292 158.392 199.963 158.635 199.72C158.879 199.476 159.209 199.34 159.553 199.339H161.589V200.678Z" fill="#2F2E41"/>
<path d="M174.66 197.719L173.773 198.251L171.297 195.088L172.606 194.302L174.66 197.719Z" fill="#9F616A"/>
<path d="M172.544 200.157L172.522 200.121C172.345 199.826 172.293 199.473 172.376 199.14C172.459 198.806 172.672 198.519 172.966 198.342L174.712 197.294L175.402 198.442L172.544 200.157Z" fill="#2F2E41"/>
<path d="M161.594 198.854L161.576 198.854C161.073 198.853 160.571 198.824 160.071 198.768C159.88 198.749 159.674 198.728 159.425 198.708L159.416 198.706C159.246 198.656 159.242 197.064 159.314 191.613C159.35 188.822 159.392 185.657 159.342 183.642L159.342 183.623L159.357 183.61C160.256 182.822 161.329 182.258 162.489 181.964C163.648 181.669 164.86 181.654 166.027 181.917L166.045 181.921L166.055 181.937C167.071 183.655 168.605 186.131 170.089 188.524C173.496 194.019 174.47 195.635 174.363 195.757L174.35 195.767C174.118 195.883 173.943 195.973 173.794 196.049C173.207 196.353 172.603 196.625 171.986 196.864L171.958 196.875L171.939 196.853C168.482 193.069 165.606 188.841 163.827 184.933C163.619 186.267 163.367 188.009 163.1 189.85C162.333 195.144 161.815 198.629 161.607 198.841L161.594 198.854Z" fill="#2F2E41"/>
<path d="M162.525 184.05C164.586 184.04 166.633 184.383 168.579 185.062C168.647 181.798 167.552 178.617 165.49 176.084L165.475 176.066L165.482 176.044C166.025 174.476 166.587 172.856 167.088 171.243L167.08 171.216C166.729 169.967 165.974 168.704 164.773 167.356C164.642 167.221 164.466 167.141 164.278 167.132C164.091 167.122 163.907 167.184 163.764 167.305C162.711 168.267 161.892 169.455 161.367 170.78C160.842 172.105 160.626 173.532 160.734 174.953L160.735 174.961L160.733 174.969C159.792 178.153 159.451 179.789 159.149 181.232C158.93 182.284 158.739 183.196 158.357 184.498C159.727 184.2 161.124 184.05 162.525 184.05Z" fill="#CBCBCB"/>
<path opacity="0.1" d="M165.56 173.984L162.5 180.64L160.752 178.872L165.56 173.984Z" fill="black"/>
<path d="M164.252 166.708C165.454 166.708 166.428 165.735 166.428 164.533C166.428 163.332 165.454 162.358 164.252 162.358C163.049 162.358 162.075 163.332 162.075 164.533C162.075 165.735 163.049 166.708 164.252 166.708Z" fill="#9F616A"/>
<path d="M161.612 163.304H165.068V161.799C164.31 161.497 163.567 161.241 163.119 161.799C162.719 161.799 162.336 161.957 162.053 162.24C161.771 162.522 161.612 162.905 161.612 163.304Z" fill="#2F2E41"/>
<path d="M165.26 161.533C167.326 161.533 167.905 164.121 167.905 165.582C167.905 166.396 167.536 166.687 166.957 166.786L166.753 165.696L166.274 166.833C166.111 166.833 165.94 166.83 165.763 166.827L165.6 166.493L165.238 166.821C163.788 166.823 162.615 167.034 162.615 165.582C162.615 164.121 163.122 161.533 165.26 161.533Z" fill="#2F2E41"/>
<path d="M227.676 61.0342C227.676 118.369 167.525 145.804 167.525 145.804C167.525 145.804 106.757 118.369 105.524 61.0342C104.798 27.3337 132.868 0 166.6 0C200.331 0 227.676 27.3259 227.676 61.0342Z" fill="#6C63FF"/>
<path d="M168.816 199.226H167.547L166.944 194.339H168.816V199.226Z" fill="#FFB7B7"/>
<path d="M166.642 198.864H169.087V200.403H165.103C165.103 200.201 165.142 200.001 165.22 199.814C165.297 199.627 165.411 199.458 165.553 199.315C165.696 199.172 165.866 199.059 166.053 198.981C166.24 198.904 166.44 198.864 166.642 198.864Z" fill="#2F2E41"/>
<path d="M173.573 199.226H172.305L171.702 194.339H173.573L173.573 199.226Z" fill="#FFB7B7"/>
<path d="M171.399 198.864H173.844V200.403H169.859C169.859 199.995 170.022 199.603 170.31 199.315C170.599 199.026 170.991 198.864 171.399 198.864Z" fill="#2F2E41"/>
<path d="M173.418 184.671C173.281 184.583 173.165 184.467 173.079 184.329C172.992 184.192 172.937 184.037 172.917 183.876C172.896 183.715 172.911 183.552 172.961 183.397C173.011 183.243 173.094 183.101 173.204 182.982L172.37 171.143L174.774 171.376L174.84 182.97C175.028 183.169 175.136 183.429 175.145 183.703C175.153 183.976 175.061 184.242 174.885 184.452C174.71 184.662 174.464 184.8 174.193 184.84C173.923 184.881 173.647 184.82 173.418 184.671Z" fill="#FFB7B7"/>
<path d="M168.755 196.764L167.36 196.698C167.241 196.692 167.128 196.641 167.046 196.555C166.964 196.469 166.917 196.355 166.916 196.236L166.819 182.124C166.818 182.057 166.832 181.991 166.86 181.929C166.888 181.868 166.928 181.814 166.979 181.77C167.029 181.726 167.089 181.693 167.153 181.674C167.217 181.655 167.285 181.651 167.351 181.66L172.935 182.47C173.045 182.486 173.146 182.54 173.22 182.624C173.293 182.708 173.333 182.816 173.334 182.927L174.052 196.004C174.052 196.065 174.04 196.126 174.017 196.183C173.994 196.24 173.96 196.291 173.917 196.335C173.873 196.379 173.822 196.413 173.765 196.437C173.709 196.46 173.648 196.473 173.586 196.473H172.082C171.971 196.473 171.863 196.434 171.779 196.361C171.694 196.289 171.639 196.189 171.622 196.08C171.622 196.08 170.485 186.271 170.329 186.277C170.172 186.28 169.24 196.355 169.24 196.355C169.226 196.468 169.171 196.572 169.086 196.647C169.001 196.723 168.891 196.764 168.777 196.765C168.77 196.765 168.763 196.765 168.755 196.764Z" fill="#2F2E41"/>
<path d="M172.914 175.121C172.858 175.081 172.812 175.028 172.778 174.967C172.745 174.906 172.726 174.839 172.722 174.77L172.546 171.579C172.528 171.263 172.629 170.951 172.827 170.705C173.026 170.458 173.309 170.294 173.622 170.243C173.935 170.193 174.255 170.26 174.521 170.431C174.788 170.603 174.981 170.867 175.064 171.173L175.838 174.026C175.87 174.145 175.854 174.272 175.792 174.379C175.731 174.486 175.629 174.564 175.51 174.596L173.309 175.193C173.242 175.211 173.172 175.214 173.103 175.202C173.035 175.189 172.97 175.162 172.914 175.121Z" fill="#3F3D56"/>
<path d="M170.857 167.537C172.26 167.537 173.397 166.401 173.397 164.999C173.397 163.597 172.26 162.461 170.857 162.461C169.455 162.461 168.317 163.597 168.317 164.999C168.317 166.401 169.455 167.537 170.857 167.537Z" fill="#FFB7B7"/>
<path d="M172.655 167.007C172.549 167.122 172.412 167.203 172.261 167.243C172.11 167.282 171.951 167.278 171.802 167.23C171.653 167.182 171.521 167.093 171.422 166.973C171.322 166.853 171.259 166.707 171.239 166.552C171.234 166.498 171.235 166.444 171.24 166.391C171.272 166.086 171.449 165.809 171.406 165.486C171.397 165.406 171.367 165.33 171.319 165.264C170.942 164.759 170.055 165.49 169.699 165.033C169.481 164.752 169.737 164.311 169.57 163.997C169.348 163.584 168.693 163.788 168.282 163.561C167.824 163.309 167.852 162.608 168.153 162.181C168.349 161.929 168.598 161.723 168.883 161.578C169.167 161.434 169.48 161.353 169.8 161.343C170.439 161.328 171.074 161.452 171.66 161.706C172.353 161.931 172.965 162.355 173.419 162.924C173.653 163.298 173.802 163.719 173.854 164.157C173.906 164.595 173.86 165.039 173.719 165.457C173.566 165.969 173.042 166.595 172.655 167.007Z" fill="#2F2E41"/>
<path d="M173.393 169.233C173.349 169.201 173.304 169.17 173.258 169.14C173.014 168.977 172.75 168.848 172.472 168.755V168.088H170.507V168.707C169.856 168.886 169.272 169.253 168.827 169.762C168.383 170.27 168.098 170.899 168.008 171.568L166.67 181.494C166.662 181.556 166.666 181.619 166.682 181.68C166.699 181.74 166.728 181.797 166.767 181.846C166.805 181.894 166.852 181.935 166.907 181.965C166.961 181.994 167.021 182.013 167.082 182.019C168.02 182.14 168.923 182.449 169.738 182.928C170.33 183.255 170.996 183.425 171.673 183.421C172.21 183.419 172.742 183.324 173.247 183.141C173.333 183.109 173.407 183.053 173.461 182.98C173.515 182.906 173.545 182.818 173.549 182.727C173.597 181.659 173.879 176.16 174.699 172.806C174.859 172.148 174.82 171.458 174.587 170.822C174.355 170.186 173.939 169.633 173.393 169.233Z" fill="#3F3D56"/>
<path d="M187.884 149.195H147.166L142.231 129.466H192.819L187.884 149.195Z" fill="#3F3D56"/>
<path d="M186.496 182.933H148.555V202.692H186.496V182.933Z" fill="white"/>
<path d="M186.804 203H148.246V182.625H186.804V203ZM148.863 202.384H186.187V183.241H148.863V202.384Z" fill="#3F3D56"/>
<path d="M175.303 151.521H159.748L157.963 148.718H177.088L175.303 151.521Z" fill="#3F3D56"/>
<path d="M148.092 149.195H147.475V179.403H148.092V149.195Z" fill="#3F3D56"/>
<path d="M187.575 149.195H186.958V179.403H187.575V149.195Z" fill="#3F3D56"/>
<path d="M173.709 129.132L173.333 128.644C191.155 114.909 212.401 91.3798 212.401 57.2823C212.415 45.34 208.9 33.6594 202.298 23.7053C195.695 13.7513 186.298 5.96687 175.286 1.32843L175.527 0.760696C186.651 5.4462 196.143 13.3096 202.812 23.3647C209.482 33.4197 213.032 45.2189 213.018 57.2823C213.018 91.6302 191.641 115.313 173.709 129.132Z" fill="#3F3D56"/>
<path d="M153.967 129.132L153.59 128.644C171.413 114.91 192.659 91.3799 192.659 57.2823C192.663 45.4203 189.191 33.8168 182.67 23.905C176.15 13.9931 166.866 6.2072 155.967 1.50891L156.211 0.942978C167.221 5.68894 176.599 13.5539 183.186 23.5663C189.773 33.5787 193.28 45.3 193.276 57.2823C193.276 91.6304 171.899 115.313 153.967 129.132Z" fill="#3F3D56"/>
<path d="M179.232 129.132C161.3 115.313 139.924 91.6304 139.924 57.2823C139.919 45.2999 143.427 33.5785 150.014 23.5661C156.601 13.5536 165.978 5.68871 176.988 0.942841L177.233 1.50877C166.334 6.20698 157.05 13.9929 150.529 23.9048C144.008 33.8167 140.536 45.4203 140.541 57.2823C140.541 91.3798 161.786 114.909 179.609 128.644L179.232 129.132Z" fill="#3F3D56"/>
<path d="M159.491 129.132C141.558 115.313 120.182 91.6306 120.182 57.2823C120.162 45.1713 123.737 33.3265 130.455 23.2467C137.174 13.1668 146.733 5.3048 157.924 0.655502L158.161 1.22444C147.083 5.827 137.62 13.61 130.969 23.5886C124.318 33.5672 120.779 45.293 120.799 57.2823C120.799 91.3801 142.045 114.91 159.867 128.644L159.491 129.132Z" fill="#3F3D56"/>
<path d="M166.908 0H166.292V129.466H166.908V0Z" fill="#3F3D56"/>
<path d="M159.649 178.453L148.336 189.758L148.773 190.194L160.085 178.889L159.649 178.453Z" fill="#3F3D56"/>
<path d="M165.149 178.265L148.332 195.94L148.779 196.364L165.596 178.69L165.149 178.265Z" fill="#3F3D56"/>
<path d="M190.043 178.479H143.773V184.027H190.043V178.479Z" fill="white"/>
<path d="M190.352 184.335H143.465V178.17H190.352V184.335ZM144.082 183.719H189.735V178.787H144.082V183.719Z" fill="#3F3D56"/>
<path d="M158.738 181.059C158.862 181.051 158.982 181.015 159.091 180.955C159.199 180.895 159.293 180.812 159.366 180.712C159.439 180.611 159.489 180.496 159.512 180.375C159.536 180.253 159.532 180.128 159.502 180.007L162.023 178.357L160.585 177.736L158.412 179.399C158.213 179.463 158.045 179.597 157.939 179.777C157.833 179.957 157.797 180.169 157.837 180.374C157.877 180.579 157.991 180.761 158.157 180.888C158.323 181.014 158.53 181.075 158.738 181.059H158.738Z" fill="#9F616A"/>
<path d="M161.164 179.87L161.133 179.848C160.533 179.406 159.866 178.95 159.222 178.509L159.184 178.482L159.214 178.447C160.589 176.839 161.965 175.16 163.297 173.536L163.294 173.53L163.307 173.524L163.312 173.517L163.315 173.519L163.323 173.515L163.286 173.518L162.876 170.303C162.673 169.968 162.569 169.583 162.577 169.192C162.585 168.801 162.704 168.42 162.92 168.094C163.169 167.742 163.539 167.495 163.96 167.399C164.38 167.303 164.821 167.365 165.198 167.574C165.384 167.699 165.54 167.864 165.653 168.057C165.767 168.25 165.836 168.466 165.854 168.69C165.881 168.888 165.862 169.091 165.801 169.281C165.739 169.472 165.635 169.647 165.497 169.793C165.639 171.353 165.702 172.92 165.685 174.487L165.685 174.502L165.676 174.514C164.256 176.315 162.697 178.108 161.19 179.841L161.164 179.87Z" fill="#CBCBCB"/>
<path d="M161.652 169.986C161.665 170.042 161.673 170.098 161.677 170.155L166.12 172.717L167.2 172.095L168.351 173.601L166.041 175.247L160.972 171.251C160.766 171.328 160.541 171.339 160.327 171.285C160.113 171.23 159.922 171.112 159.777 170.946C159.632 170.78 159.542 170.573 159.517 170.355C159.492 170.136 159.535 169.915 159.639 169.721C159.744 169.526 159.905 169.369 160.101 169.268C160.297 169.168 160.519 169.13 160.738 169.158C160.956 169.187 161.161 169.282 161.324 169.43C161.488 169.578 161.602 169.772 161.652 169.986H161.652Z" fill="#FFB7B7"/>
<path d="M166.279 172.499C166.271 172.43 166.279 172.36 166.302 172.295C166.326 172.23 166.363 172.17 166.412 172.121L168.673 169.861C168.897 169.637 169.196 169.504 169.513 169.488C169.829 169.471 170.141 169.572 170.387 169.771C170.633 169.971 170.797 170.254 170.846 170.567C170.896 170.879 170.828 171.199 170.656 171.465L169.045 173.944C168.978 174.048 168.873 174.12 168.752 174.146C168.631 174.172 168.505 174.148 168.402 174.081L166.488 172.84C166.43 172.803 166.381 172.752 166.344 172.693C166.308 172.634 166.286 172.568 166.279 172.499Z" fill="#3F3D56"/>
<path d="M135.516 150.498C135.436 150.498 135.36 150.468 135.302 150.413C135.243 150.359 135.208 150.285 135.203 150.206C134.997 147.417 133.746 144.809 131.698 142.903C129.651 140.997 126.959 139.933 124.16 139.926C123.826 139.926 123.474 139.943 123.115 139.976C123.055 139.982 122.994 139.97 122.941 139.943C122.887 139.915 122.843 139.872 122.813 139.82C121.528 137.572 119.608 135.751 117.294 134.586C114.98 133.421 112.374 132.963 109.801 133.269C107.228 133.575 104.802 134.631 102.826 136.306C100.85 137.981 99.4111 140.2 98.6893 142.687C98.6703 142.754 98.6296 142.812 98.5737 142.853C98.5177 142.894 98.4498 142.915 98.3804 142.914L98.2969 142.911C98.2535 142.91 98.2101 142.908 98.1663 142.908C96.0438 142.915 93.9875 143.646 92.3384 144.981C90.6893 146.317 89.5467 148.175 89.1 150.249C89.0851 150.319 89.0465 150.382 88.9905 150.428C88.9346 150.473 88.8647 150.498 88.7926 150.498H67.7477C67.7064 150.498 67.6654 150.49 67.6272 150.474C67.589 150.459 67.5542 150.435 67.525 150.406C67.4957 150.377 67.4725 150.342 67.4566 150.304C67.4408 150.266 67.4326 150.225 67.4326 150.184C67.4326 150.143 67.4408 150.102 67.4566 150.064C67.4725 150.025 67.4957 149.991 67.525 149.962C67.5542 149.932 67.589 149.909 67.6272 149.894C67.6654 149.878 67.7064 149.87 67.7477 149.87H88.5412C89.0647 147.713 90.296 145.794 92.0386 144.418C93.7812 143.043 95.9347 142.29 98.1554 142.28C98.946 139.725 100.462 137.454 102.52 135.743C104.578 134.032 107.088 132.955 109.747 132.643C112.405 132.331 115.097 132.797 117.495 133.985C119.894 135.173 121.895 137.031 123.257 139.334C123.566 139.31 123.869 139.298 124.16 139.298C127.118 139.306 129.962 140.43 132.126 142.444C134.29 144.458 135.612 147.215 135.829 150.162C135.832 150.203 135.827 150.244 135.814 150.283C135.801 150.323 135.78 150.359 135.753 150.39C135.726 150.421 135.693 150.446 135.656 150.465C135.619 150.483 135.579 150.494 135.538 150.497C135.53 150.498 135.523 150.498 135.516 150.498Z" fill="#CBCBCB"/>
<path d="M131.778 154.523H80.2609C80.2196 154.523 80.1786 154.515 80.1404 154.499C80.1022 154.483 80.0674 154.46 80.0382 154.431C80.0089 154.402 79.9857 154.367 79.9698 154.329C79.954 154.291 79.9458 154.25 79.9458 154.209C79.9458 154.168 79.954 154.127 79.9698 154.089C79.9857 154.05 80.0089 154.016 80.0382 153.987C80.0674 153.957 80.1022 153.934 80.1404 153.919C80.1786 153.903 80.2196 153.895 80.2609 153.895H131.778C131.861 153.895 131.941 153.928 132 153.987C132.059 154.046 132.092 154.126 132.092 154.209C132.092 154.292 132.059 154.372 132 154.431C131.941 154.49 131.861 154.523 131.778 154.523Z" fill="#CBCBCB"/>
<path d="M92.8261 159.074H75.549C75.5077 159.075 75.4667 159.067 75.4285 159.051C75.3903 159.035 75.3555 159.012 75.3262 158.983C75.297 158.954 75.2737 158.919 75.2579 158.881C75.242 158.843 75.2339 158.802 75.2339 158.761C75.2339 158.719 75.242 158.678 75.2579 158.64C75.2737 158.602 75.297 158.567 75.3262 158.538C75.3555 158.509 75.3903 158.486 75.4285 158.47C75.4667 158.455 75.5077 158.447 75.549 158.447H92.8261C92.8674 158.447 92.9084 158.455 92.9466 158.47C92.9848 158.486 93.0196 158.509 93.0488 158.538C93.0781 158.567 93.1013 158.602 93.1172 158.64C93.133 158.678 93.1412 158.719 93.1412 158.761C93.1412 158.802 93.133 158.843 93.1172 158.881C93.1013 158.919 93.0781 158.954 93.0488 158.983C93.0196 159.012 92.9848 159.035 92.9466 159.051C92.9084 159.067 92.8674 159.075 92.8261 159.074Z" fill="#CBCBCB"/>
</g>
<defs>
<clipPath id="clip0_431:44">
<rect width="267" height="203" fill="white"/>
</clipPath>
</defs>
</svg>
