<svg width="347" height="270" viewBox="0 0 347 270" fill="none" xmlns="http://www.w3.org/2000/svg">
<g clip-path="url(#clip0_431:241)">
<path d="M219.528 269.313C219.528 269.313 214.209 256.193 230.165 246.353L219.528 269.313Z" fill="#E6E6E6"/>
<path d="M212.986 269.075C212.986 269.075 211.364 259.723 198.807 259.803L212.986 269.075Z" fill="#E6E6E6"/>
<path d="M332.948 269.313C332.948 269.313 325.921 251.98 347 238.98L332.948 269.313Z" fill="#E6E6E6"/>
<path d="M324.306 268.998C324.306 268.998 322.162 256.643 305.572 256.749L324.306 268.998Z" fill="#E6E6E6"/>
<path d="M201.526 75.0521L194.587 71.3582L195.106 71.0815L202.045 74.7758L201.526 75.0521Z" fill="#CBCBCB"/>
<path d="M195.473 75.0521L194.954 74.7758L201.893 71.0815L202.412 71.3582L195.473 75.0521Z" fill="#CBCBCB"/>
<path d="M143.825 46.4191L143.49 47.074L145.451 48.0807L145.785 47.4258L143.825 46.4191Z" fill="#CBCBCB"/>
<path d="M184.469 68.1179L180.567 66.1143L180.902 65.4593L184.803 67.463L184.469 68.1179ZM176.665 64.1105L172.763 62.1067L173.098 61.4517L177 63.4556L176.665 64.1105ZM168.861 60.103L164.96 58.0993L165.295 57.4443L169.196 59.448L168.861 60.103ZM161.058 56.0956L157.156 54.0919L157.491 53.4369L161.393 55.4406L161.058 56.0956ZM153.254 52.0882L149.353 50.0845L149.687 49.4295L153.589 51.4332L153.254 52.0882Z" fill="#CBCBCB"/>
<path d="M188.705 69.4667L188.37 70.1216L190.33 71.1283L190.665 70.4734L188.705 69.4667Z" fill="#CBCBCB"/>
<path d="M40.6923 95.6788C40.6923 95.9087 40.6849 96.1366 40.67 96.3626C40.5867 97.666 40.2581 98.9419 39.7016 100.123C39.6973 100.133 39.6922 100.142 39.688 100.152C39.662 100.207 39.6354 100.261 39.6081 100.315C39.4426 100.649 39.259 100.974 39.0581 101.288C38.1405 102.729 36.8829 103.922 35.3962 104.76C33.9096 105.599 32.2397 106.057 30.5343 106.095L30.6371 112.021L31.9779 111.313L32.2174 111.769L30.6472 112.598L30.8391 123.603L30.8413 123.75L29.8046 123.981L29.8067 123.833L30.1331 106.096C28.7604 106.076 27.4053 105.783 26.1464 105.234C24.8875 104.686 23.75 103.891 22.7999 102.898C22.7345 102.831 22.6697 102.761 22.6065 102.692L22.5993 102.684C21.8076 101.818 21.1674 100.826 20.7056 99.7468C20.7156 99.7583 20.7264 99.7691 20.7365 99.7807C19.6927 97.3345 19.6219 94.581 20.5386 92.0842C21.4553 89.5875 23.2901 87.5366 25.667 86.3519C25.703 86.3339 25.7396 86.3166 25.7756 86.2986C28.1268 85.1636 30.8176 84.9554 33.3148 85.7151C35.812 86.4748 37.9332 88.1471 39.258 90.4004C39.3213 90.5071 39.3824 90.6159 39.4413 90.7254C40.2643 92.246 40.6943 93.9489 40.6923 95.6788Z" fill="#E5E5E5"/>
<path d="M39.2929 100.157C46.8188 100.157 52.9198 94.0432 52.9198 86.501C52.9198 78.9588 46.8188 72.8446 39.2929 72.8446C31.767 72.8446 25.666 78.9588 25.666 86.501C25.666 94.0432 31.767 100.157 39.2929 100.157Z" fill="#E5E5E5"/>
<path opacity="0.2" d="M29.2312 77.3796C27.9601 80.3593 27.7877 83.6949 28.7447 86.7903C29.7017 89.8857 31.7259 92.5392 34.4554 94.2767C37.185 96.0142 40.442 96.7223 43.6446 96.2747C46.8472 95.8271 49.7866 94.2528 51.9376 91.8331C51.1611 93.6536 49.999 95.2831 48.5317 96.6088C47.0645 97.9345 45.3271 98.9247 43.4401 99.5107C41.5531 100.097 39.5615 100.265 37.6033 100.003C35.6452 99.7406 33.7672 99.0552 32.0996 97.9937C30.432 96.9322 29.0147 95.5201 27.9457 93.8551C26.8768 92.1902 26.1818 90.3122 25.9089 88.3514C25.6361 86.3905 25.7919 84.3937 26.3655 82.4992C26.9392 80.6047 27.917 78.8578 29.2312 77.3796Z" fill="black"/>
<path d="M40.0299 124.545L38.6382 124.154L38.6411 124.004L39.0582 101.288L39.079 100.155L39.0794 100.122L39.1524 96.1534L39.2579 90.4011V90.4003L39.3297 86.5012H39.368L39.4414 90.7254L39.5369 96.2237L39.6053 100.125V100.154L39.6082 100.315V100.315L39.7405 107.92L39.7542 108.676L40.0274 124.394L40.0299 124.545Z" fill="#3F3D56"/>
<path d="M41.4977 106.993L39.2451 108.182L39.559 108.779L41.8116 107.591L41.4977 106.993Z" fill="#3F3D56"/>
<path d="M215.937 42.3041C198.738 41.285 181.487 41.5508 164.327 43.0992C156.056 43.8484 147.653 44.6576 139.535 46.4657C132.997 47.922 125.408 50.3834 121.333 56.1164C120.48 57.2716 119.905 58.6089 119.653 60.0238C119.401 61.4387 119.48 62.8928 119.882 64.2723C120.853 67.5405 123.27 70.2609 125.843 72.3916C131.767 77.2955 139.116 80.1492 145.681 84.0452C157.667 91.1587 168.637 100.747 175.678 112.926C178.776 118.286 181.723 125.412 178.273 131.318C174.893 137.104 167.348 139.097 161.195 140.037C153.483 141.215 145.538 140.896 137.794 140.236C129.303 139.442 120.86 138.203 112.499 136.523C96.1195 133.371 79.8889 129.362 63.2816 127.538C54.9546 126.557 46.5574 126.313 38.1877 126.811C30.6289 127.322 23.0053 128.52 15.9044 131.252C10.4325 133.356 4.59973 136.541 1.64403 141.852C-1.20513 146.971 -0.0938693 152.875 3.00851 157.598C6.74131 163.282 12.5621 167.176 18.6138 170.022C25.5042 173.263 32.8741 175.364 40.2534 177.151C43.996 178.057 47.7588 178.876 51.522 179.691C52.3071 179.861 52.6425 178.652 51.8546 178.482C44.2658 176.838 36.6551 175.19 29.2548 172.811C22.4066 170.609 15.3984 167.789 9.79031 163.167C5.25337 159.427 0.939675 153.965 1.20746 147.754C1.47742 141.493 6.71898 137.122 11.8564 134.431C18.2768 131.069 25.5712 129.431 32.7189 128.575C40.9031 127.661 49.1568 127.548 57.3628 128.239C73.9309 129.502 90.1289 133.285 106.373 136.584C122.154 139.789 138.428 142.756 154.601 141.934C161.011 141.609 167.88 140.688 173.539 137.445C176.131 135.961 178.467 133.867 179.785 131.142C180.971 128.55 181.346 125.658 180.861 122.848C179.943 116.675 176.284 110.951 172.634 106.034C168.632 100.701 163.99 95.8818 158.813 91.6861C153.131 87.1033 147.004 83.1036 140.525 79.747C137.09 77.9342 133.605 76.191 130.331 74.0912C127.191 72.078 124.094 69.6556 122.177 66.3873C120.519 63.5605 120.215 60.3343 121.942 57.4674C123.689 54.5676 126.698 52.5453 129.666 51.0674C136.817 47.5067 145.131 46.5536 152.954 45.5769C169.753 43.4871 186.683 42.6412 203.606 43.046C207.719 43.143 211.83 43.3136 215.937 43.5579C216.742 43.6054 216.739 42.3513 215.937 42.3041V42.3041Z" fill="black"/>
<path d="M205.026 2.11157L207.624 0.0291637C205.606 -0.193992 204.777 0.90912 204.437 1.78224C202.861 1.12609 201.144 1.986 201.144 1.986L206.342 3.87719C206.08 3.17524 205.623 2.56276 205.026 2.11157Z" fill="#3F3D56"/>
<path d="M192.418 8.7041L195.016 6.62169C192.998 6.39854 192.169 7.50164 191.829 8.37476C190.253 7.71862 188.536 8.57854 188.536 8.57854L193.734 10.4697C193.472 9.76777 193.016 9.15529 192.418 8.7041Z" fill="#3F3D56"/>
<path d="M205.026 19.1423L207.624 17.0599C205.606 16.8367 204.777 17.9398 204.437 18.8129C202.861 18.1568 201.144 19.0167 201.144 19.0167L206.342 20.9079C206.08 20.2059 205.623 19.5935 205.026 19.1423Z" fill="#3F3D56"/>
<path d="M166.078 22.2275C170.401 22.2275 173.906 18.7155 173.906 14.3831C173.906 10.0508 170.401 6.5387 166.078 6.5387C161.755 6.5387 158.251 10.0508 158.251 14.3831C158.251 18.7155 161.755 22.2275 166.078 22.2275Z" fill="#FF6583"/>
<path d="M190.624 38.5554H152.225C152.177 38.556 152.128 38.5522 152.081 38.544L170.243 7.01991C170.353 6.82354 170.514 6.66017 170.709 6.5465C170.903 6.43282 171.124 6.37292 171.349 6.37292C171.574 6.37292 171.795 6.43282 171.99 6.5465C172.184 6.66017 172.345 6.82354 172.456 7.01991L184.644 28.1743L185.228 29.1864L190.624 38.5554Z" fill="#6C63FF"/>
<path d="M212.003 38.5557H178.792L185.227 29.1875L185.69 28.5124L194.076 16.3039C194.224 16.1171 194.41 15.9637 194.621 15.8537C194.833 15.7436 195.065 15.6794 195.303 15.6651C195.54 15.6509 195.779 15.687 196.001 15.7711C196.224 15.8551 196.427 15.9853 196.597 16.1531C196.64 16.2007 196.68 16.2511 196.717 16.3039L212.003 38.5557Z" fill="#6C63FF"/>
<path d="M157.218 110.857C160.858 112.68 163.074 115.088 163.074 117.729C163.074 123.418 152.801 128.03 140.13 128.03C134.62 128.03 129.566 127.157 125.611 125.704C129.812 127.809 135.91 129.134 142.699 129.134C155.371 129.134 165.644 124.522 165.644 118.832C165.644 115.617 162.36 112.746 157.218 110.857Z" fill="#F1F1F1"/>
<path d="M165.315 114.765C169.422 116.822 171.922 119.539 171.922 122.519C171.922 128.938 160.331 134.143 146.032 134.143C139.816 134.143 134.112 133.158 129.649 131.518C134.39 133.893 141.271 135.388 148.932 135.388C163.23 135.388 174.822 130.184 174.822 123.764C174.822 120.136 171.117 116.896 165.315 114.765Z" fill="#F1F1F1"/>
<path d="M154.12 112.578C156.684 113.862 158.245 115.559 158.245 117.419C158.245 121.428 151.008 124.677 142.08 124.677C138.602 124.722 135.142 124.168 131.852 123.039C134.811 124.521 139.108 125.455 143.891 125.455C152.818 125.455 160.056 122.205 160.056 118.197C160.056 115.931 157.742 113.909 154.12 112.578Z" fill="#F1F1F1"/>
<path d="M118.091 111.842C118.091 111.842 118.654 120.096 134.807 120.096C150.96 120.096 155.782 111.842 155.782 111.842H118.091Z" fill="#3F3D56"/>
<path d="M141.018 90.1856C138.686 88.4102 135.759 87.6079 132.85 87.9466C135.449 88.5746 137.745 90.1002 139.334 92.2555C140.923 94.4108 141.704 97.0581 141.54 99.7329C141.375 102.408 140.276 104.939 138.435 106.882C136.594 108.826 134.129 110.058 131.472 110.361C134.013 110.976 136.689 110.695 139.048 109.566C141.407 108.437 143.306 106.528 144.426 104.161C145.546 101.793 145.818 99.1117 145.198 96.5666C144.577 94.0216 143.101 91.7683 141.018 90.1856Z" fill="#3F3D56"/>
<path d="M135.725 86.457H134.624V112.729H135.725V86.457Z" fill="#3F3D56"/>
<path d="M208.103 66.9369L208.097 66.9268L208.082 66.285L211.532 61.2648L208.086 65.8047L208.074 65.9403L207.956 60.8091L210.936 55.6043L207.947 59.9076L207.978 49.277L207.978 49.2416L207.977 49.2764L207.779 57.6548L205.063 54.2515L207.771 58.3766L207.711 62.9664L205.212 58.4869L207.702 63.6412L207.669 66.1933L207.578 73.264L207.571 73.7924C207.801 73.7941 208.029 73.7903 208.255 73.7808L208.098 66.9893L208.103 66.9369Z" fill="#CBCBCB"/>
<path d="M191.583 69.1443L191.577 69.1342L191.562 68.4924L195.012 63.4722L191.566 68.0121L191.554 68.1477L191.436 63.0165L194.416 57.8117L191.427 62.115L191.458 51.4844L191.458 51.449L191.457 51.4838L191.259 59.8622L188.543 56.4589L191.251 60.584L191.191 65.1738L188.692 60.6943L191.182 65.8486L191.149 68.4007L191.058 75.4714L191.051 75.9998C191.281 76.0015 191.509 75.9977 191.735 75.9882L191.578 69.1967L191.583 69.1443Z" fill="#CBCBCB"/>
<path d="M199.659 62.1542L199.653 62.144L199.639 61.5023L203.089 56.4821L199.643 61.022L199.63 61.1576L199.512 56.0264L202.492 50.8215L199.504 55.1249L199.535 44.4943L199.535 44.4589L199.534 44.4937L199.336 52.8721L196.62 49.4688L199.327 53.5939L199.268 58.1837L196.769 53.7042L199.259 58.8584L199.226 61.4106L199.134 68.4813L199.128 69.0096C199.358 69.0114 199.586 69.0075 199.811 68.9981L199.655 62.2066L199.659 62.1542Z" fill="#CBCBCB"/>
<path d="M63.2212 184.319C65.6542 184.319 67.6265 182.342 67.6265 179.904C67.6265 177.466 65.6542 175.489 63.2212 175.489C60.7882 175.489 58.8159 177.466 58.8159 179.904C58.8159 182.342 60.7882 184.319 63.2212 184.319Z" fill="#6C63FF"/>
<path d="M298.359 261.398L294.281 262.916L286.496 247.874L292.515 245.633L298.359 261.398Z" fill="#FFB7B7"/>
<path d="M300.868 264.972L287.718 269.869L287.656 269.702C287.151 268.342 287.207 266.836 287.81 265.517C288.413 264.198 289.515 263.172 290.872 262.667L290.873 262.667L298.904 259.676L300.868 264.972Z" fill="#2F2E41"/>
<path d="M258.223 265.642L253.873 265.642L251.803 248.824L258.224 248.825L258.223 265.642Z" fill="#FFB7B7"/>
<path d="M258.978 269.869L244.95 269.868V269.69C244.95 268.239 245.525 266.847 246.549 265.821C247.573 264.795 248.962 264.218 250.41 264.218H250.41L258.979 264.219L258.978 269.869Z" fill="#2F2E41"/>
<path d="M278.143 149.004L276.723 146.158L264.657 152.204L265.012 154.694L262.705 157.717C262.705 157.717 258.802 159.851 259.512 166.964L260.221 173.721L261.108 182.434L254.898 203.951L251.704 232.403L249.397 255.342L260.576 254.809L270.868 217.466L288.967 257.654L301.387 254.453L284.353 214.621L282.224 197.905C282.224 197.905 283.643 189.014 276.901 182.968L277.965 179.767V175.823L281.514 157.006L278.143 149.004Z" fill="#2F2E41"/>
<path opacity="0.2" d="M278.474 189.669L270.667 217.409L271.068 217.522L278.876 189.782L278.474 189.669Z" fill="black"/>
<path d="M277.788 182.434H260.398V184.213H277.788V182.434Z" fill="#3F3D56"/>
<path d="M260.399 185.28C260.791 185.28 261.108 184.483 261.108 183.501C261.108 182.519 260.791 181.723 260.399 181.723C260.007 181.723 259.689 182.519 259.689 183.501C259.689 184.483 260.007 185.28 260.399 185.28Z" fill="#3F3D56"/>
<path d="M272.778 144.404C277.362 141.893 279.046 136.133 276.541 131.538C274.035 126.944 268.287 125.256 263.703 127.767C259.119 130.279 257.434 136.039 259.94 140.633C262.446 145.227 268.194 146.915 272.778 144.404Z" fill="#FFB7B7"/>
<path d="M282.716 132.701C287.337 132.701 291.084 128.947 291.084 124.315C291.084 119.683 287.337 115.928 282.716 115.928C278.094 115.928 274.347 119.683 274.347 124.315C274.347 128.947 278.094 132.701 282.716 132.701Z" fill="#2F2E41"/>
<path d="M293.335 123.417C293.665 124.528 293.762 125.695 293.619 126.846C293.476 127.996 293.097 129.105 292.505 130.101C291.913 131.097 291.121 131.959 290.18 132.633C289.239 133.307 288.168 133.779 287.036 134.017C285.904 134.256 284.735 134.256 283.602 134.019C282.47 133.782 281.399 133.312 280.457 132.639C279.515 131.966 278.722 131.105 278.129 130.109C277.536 129.114 277.155 128.006 277.011 126.856C277.61 128.873 278.945 130.591 280.75 131.668C282.555 132.745 284.698 133.103 286.753 132.67C288.809 132.237 290.627 131.045 291.846 129.33C293.066 127.616 293.597 125.505 293.335 123.417Z" fill="#2F2E41"/>
<path d="M260.275 133.454C260.029 135.622 260.504 137.81 261.625 139.68C262.747 141.55 264.452 142.997 266.478 143.797C268.503 144.597 270.735 144.706 272.828 144.105C274.921 143.505 276.758 142.23 278.055 140.477C279.351 138.724 280.035 136.592 279.999 134.41C279.963 132.229 279.211 130.12 277.858 128.411C276.505 126.701 274.628 125.487 272.516 124.955C270.405 124.424 268.177 124.605 266.179 125.471C264.526 124.135 262.478 124.549 260.812 125.959C258.928 127.553 258.369 128.648 256.908 131.269C258.345 131.471 258.838 133.252 260.275 133.454Z" fill="#2F2E41"/>
<path d="M295.047 161.963C294.941 164.772 294.731 170.302 294.731 170.585C294.731 170.882 290.548 179.562 288.741 183.298V183.3C288.612 183.563 288.497 183.802 288.395 184.012C288.255 184.302 288.035 184.546 287.761 184.715C287.488 184.883 287.171 184.97 286.85 184.963L278.952 184.821C278.518 184.814 278.104 184.639 277.795 184.332C277.487 184.026 277.309 183.612 277.298 183.177L276.417 148.355C276.414 148.24 276.434 148.126 276.476 148.019C276.518 147.912 276.581 147.815 276.661 147.732C276.741 147.65 276.836 147.585 276.942 147.54C277.047 147.495 277.161 147.472 277.275 147.472H287.461C287.891 147.472 288.312 147.594 288.677 147.823C289.041 148.052 289.334 148.38 289.521 148.768L294.41 158.903C294.868 159.856 295.087 160.906 295.047 161.963V161.963Z" fill="#6C63FF"/>
<path d="M277.161 180.787C275.134 179.557 273.313 178.014 271.764 176.217C268.165 172.161 265.977 167.044 265.527 161.635C265.125 157.007 266.042 153.567 268.25 151.411C271.058 148.669 274.879 149.068 275.04 149.086L275.211 149.106L277.8 151.301L277.068 152.169L274.751 150.204C274.042 150.169 271.147 150.161 269.033 152.234C267.086 154.142 266.287 157.272 266.657 161.537C267.085 166.687 269.164 171.56 272.582 175.428C274.057 177.138 275.786 178.61 277.708 179.792L277.161 180.787Z" fill="#6C63FF"/>
<path d="M291.857 167.558L278.058 170.398L278.134 170.77L291.934 167.929L291.857 167.558Z" fill="#3F3D56"/>
<path d="M282.762 147.465L282.384 147.48L283.28 169.486L283.658 169.47L282.762 147.465Z" fill="#3F3D56"/>
<path d="M295.046 161.963C294.941 164.772 294.731 170.302 294.731 170.585C294.731 170.882 290.547 179.562 288.74 183.298L292.109 163.696C292.239 162.942 292.567 162.236 293.059 161.651C293.551 161.065 294.189 160.621 294.908 160.364C295.022 160.889 295.068 161.426 295.046 161.963Z" fill="#3F3D56"/>
<path d="M274.35 203.043C274.648 202.658 274.858 202.212 274.966 201.737C275.074 201.261 275.076 200.768 274.973 200.291C274.87 199.815 274.664 199.367 274.369 198.979C274.074 198.591 273.698 198.272 273.268 198.046L273.952 190.456L269.451 188.914L268.635 199.646C268.303 200.397 268.257 201.243 268.506 202.025C268.755 202.807 269.282 203.47 269.987 203.889C270.691 204.307 271.524 204.453 272.329 204.297C273.133 204.141 273.852 203.695 274.35 203.043Z" fill="#FFB7B7"/>
<path d="M274.938 195.699L266.962 195.409L267.3 156.864C267.294 155.774 267.631 154.709 268.262 153.82C268.893 152.931 269.787 152.264 270.817 151.912C271.78 151.592 272.82 151.591 273.783 151.91C274.876 152.28 275.814 153.005 276.45 153.969C277.086 154.934 277.383 156.083 277.296 157.235L274.938 195.699Z" fill="#CBCBCB"/>
<path d="M344.903 270H186.006C185.895 270 185.789 269.956 185.711 269.878C185.633 269.799 185.589 269.693 185.589 269.582C185.589 269.471 185.633 269.365 185.711 269.286C185.789 269.208 185.895 269.164 186.006 269.164H344.903C345.014 269.164 345.12 269.208 345.198 269.286C345.276 269.365 345.32 269.471 345.32 269.582C345.32 269.693 345.276 269.799 345.198 269.878C345.12 269.956 345.014 270 344.903 270Z" fill="#CBCBCB"/>
</g>
<defs>
<clipPath id="clip0_431:241">
<rect width="347" height="270" fill="white"/>
</clipPath>
</defs>
</svg>
