<svg width="323" height="169" viewBox="0 0 323 169" fill="none" xmlns="http://www.w3.org/2000/svg">
<path d="M24.9202 160.077C19.828 162.824 17.6421 168.655 17.6421 168.655C17.6421 168.655 23.7121 170.032 28.8043 167.284C33.8965 164.537 36.0824 158.706 36.0824 158.706C36.0824 158.706 30.0124 157.33 24.9202 160.077Z" fill="#F1F1F1"/>
<path d="M26.5953 161.965C23.6128 166.925 17.6889 168.836 17.6889 168.836C17.6889 168.836 16.6004 162.704 19.5829 157.744C22.5653 152.784 28.4893 150.874 28.4893 150.874C28.4893 150.874 29.5777 157.005 26.5953 161.965Z" fill="#F1F1F1"/>
<path d="M305.806 3.71967H159.082V4.37098H305.806V3.71967Z" fill="#CBCBCB"/>
<path d="M179.393 3.96503H178.742V24.6648H179.393V3.96503Z" fill="#CBCBCB"/>
<path d="M232.778 41.0726H199.238V3.94467H199.889V40.4213H232.778V41.0726Z" fill="#CBCBCB"/>
<path d="M221.933 3.96503H221.282V24.6648H221.933V3.96503Z" fill="#CBCBCB"/>
<path d="M232.855 40.7641H232.204V61.4639H232.855V40.7641Z" fill="#CBCBCB"/>
<path d="M266.56 3.96503H265.909V24.6648H266.56V3.96503Z" fill="#CBCBCB"/>
<path d="M288.874 3.96503H288.223V24.6648H288.874V3.96503Z" fill="#CBCBCB"/>
<path d="M185.326 27.8311H172.965V32.6497H185.326V27.8311Z" fill="#6C63FF"/>
<path d="M227.637 27.8311H215.276V32.6497H227.637V27.8311Z" fill="#3F3D56"/>
<path d="M272.552 27.8311H260.191V32.6497H272.552V27.8311Z" fill="#CBCBCB"/>
<path d="M294.033 27.8311H281.672V32.6497H294.033V27.8311Z" fill="#6C63FF"/>
<path d="M323 1.77866H310.639V6.59728H323V1.77866Z" fill="#3F3D56"/>
<path d="M238.703 64.3045H226.342V69.1231H238.703V64.3045Z" fill="#3F3D56"/>
<path d="M154.879 0H135.064V7.72462H154.879V0Z" fill="#6C63FF"/>
<path d="M91.939 78.5328L93.2334 90.2163L109.768 90.5013L107.772 76.5248L91.939 78.5328Z" fill="#FFB7B7"/>
<path d="M84.4897 104.519C84.7402 104.219 84.9218 103.867 85.0219 103.489C85.122 103.111 85.138 102.716 85.0688 102.331C84.9997 101.946 84.847 101.581 84.6216 101.262C84.3962 100.943 84.1036 100.676 83.7643 100.482L84.5318 94.4188L80.9628 93.0534L79.9991 101.632C79.7112 102.224 79.6502 102.901 79.8278 103.534C80.0054 104.168 80.4092 104.715 80.9627 105.071C81.5162 105.427 82.181 105.567 82.831 105.465C83.4811 105.364 84.0712 105.027 84.4897 104.519Z" fill="#FFB7B7"/>
<path d="M114.558 165.249H118.053L119.716 151.761L114.557 151.761L114.558 165.249Z" fill="#FFB7B7"/>
<path d="M113.667 164.108L120.549 164.107H120.55C121.713 164.107 122.829 164.57 123.651 165.393C124.474 166.216 124.936 167.332 124.936 168.496V168.639L113.667 168.639L113.667 164.108Z" fill="#2F2E41"/>
<path d="M74.6476 165.249H78.1425L79.805 151.761L74.647 151.761L74.6476 165.249Z" fill="#FFB7B7"/>
<path d="M73.7559 164.108L80.6387 164.107H80.639C81.8023 164.107 82.9179 164.57 83.7405 165.393C84.563 166.216 85.0252 167.332 85.0253 168.496V168.639L73.7561 168.639L73.7559 164.108Z" fill="#2F2E41"/>
<path d="M79.6787 99.7847L81.2159 81.9922L85.7003 65.7416C86.0335 64.553 86.717 63.4926 87.6618 62.6987C88.6065 61.9048 89.7685 61.4145 90.9961 61.2916L91.1424 61.2775L91.9392 73.4747L86.2044 85.2655L84.3088 99.4109L79.6787 99.7847Z" fill="#6C63FF"/>
<path d="M92.9715 83.4178L90.6174 87.6577C90.6174 87.6577 81.4362 96.9444 80.73 111.291L72.2065 160.12L80.1059 159.924L96.0998 114.16L107.413 133.578L113.069 158.949L122.041 157.29L118.043 127.821L110.338 100.401L109.558 85.4715L92.9715 83.4178Z" fill="#2F2E41"/>
<path d="M101.13 55.3905C104.997 55.3905 108.131 52.2539 108.131 48.3848C108.131 44.5156 104.997 41.3791 101.13 41.3791C97.2627 41.3791 94.1279 44.5156 94.1279 48.3848C94.1279 52.2539 97.2627 55.3905 101.13 55.3905Z" fill="#FFB7B7"/>
<path d="M73.4924 64.2969C74.7932 61.7545 75.2372 58.8676 76.2383 56.1929C77.2396 53.5181 79.0585 50.8644 81.8164 50.1272C83.3806 49.7091 85.0429 49.9643 86.6498 49.7652C88.0627 49.5902 89.5838 48.8685 90.1249 47.6129C90.0161 46.3683 90.1714 45.1147 90.5807 43.9344C91.5886 41.0689 93.9923 38.8068 96.7944 37.6374C99.0706 36.6875 101.692 36.4192 104.016 37.2441C106.341 38.069 108.292 40.0851 108.71 42.5171C109.128 44.9492 107.788 47.6648 105.478 48.5287C103.819 49.1489 101.683 48.9424 100.6 50.3441C99.5025 51.7641 100.289 53.8336 101.285 55.326L101.217 55.3953C97.9626 55.4334 94.4443 54.8042 92.2025 52.4429C91.9591 52.1851 91.7353 51.9095 91.5328 51.6184C91.4642 51.7287 91.3922 51.8362 91.3148 51.9389C90.186 53.4387 88.4187 54.2896 86.735 55.1186C85.0511 55.9475 83.3049 56.8779 82.2937 58.4595C80.4661 61.3178 81.6658 65.1673 80.6207 68.3953C80.1555 69.8323 79.2585 71.0907 78.0521 71.9988C76.8457 72.9069 75.3887 73.4204 73.8799 73.4694C72.371 73.5183 70.8838 73.1003 69.6212 72.2723C68.3586 71.4443 67.382 70.2467 66.8247 68.8429C69.6694 69.0807 72.1916 66.8393 73.4924 64.2969Z" fill="#2F2E41"/>
<path d="M118.328 104.286C118.411 103.904 118.409 103.509 118.323 103.127C118.237 102.746 118.069 102.388 117.83 102.079C117.59 101.77 117.286 101.517 116.939 101.338C116.591 101.159 116.209 101.058 115.818 101.043L113.696 95.3122L109.9 95.7534L113.011 103.805C113.03 104.463 113.289 105.091 113.739 105.571C114.19 106.051 114.8 106.349 115.456 106.408C116.111 106.468 116.765 106.284 117.295 105.893C117.824 105.502 118.191 104.931 118.328 104.286Z" fill="#FFB7B7"/>
<path d="M91.8638 85.1421L89.8377 75.3889L89.201 67.9596C88.8403 63.7461 90.0174 59.5445 92.5144 56.1325L93.162 55.2474L104.066 59.1254L109.383 66.1375C112.627 69.4013 110.087 72.5259 109.733 72.9284L109.624 82.7836L109.502 82.8L91.8638 85.1421Z" fill="#6C63FF"/>
<path d="M111.943 102.245L103.834 83.5482L102.655 66.4189L102.418 62.8187C102.359 61.9281 102.648 61.0495 103.225 60.3683C103.801 59.6872 104.62 59.2569 105.508 59.1683C106.395 59.0797 107.283 59.3397 107.982 59.8934C108.682 60.4471 109.139 61.2512 109.258 62.1359L111.81 81.231L116.204 100.281L111.943 102.245Z" fill="#6C63FF"/>
<path d="M175.103 168.929H0.32547C0.23915 168.929 0.156365 168.894 0.0953278 168.833C0.0342903 168.772 0 168.689 0 168.603C0 168.517 0.0342903 168.434 0.0953278 168.373C0.156365 168.312 0.23915 168.277 0.32547 168.277H175.103C175.189 168.277 175.272 168.312 175.333 168.373C175.394 168.434 175.428 168.517 175.428 168.603C175.428 168.689 175.394 168.772 175.333 168.833C175.272 168.894 175.189 168.929 175.103 168.929Z" fill="#CBCBCB"/>
</svg>
