<svg width="325" height="234" viewBox="0 0 325 234" fill="none" xmlns="http://www.w3.org/2000/svg">
<g clip-path="url(#clip0)">
<path d="M310.903 128.501C311.087 168.344 283.054 200.774 283.054 200.774C283.054 200.774 254.725 168.604 254.541 128.76C254.357 88.9166 282.389 56.4871 282.389 56.4871C282.389 56.4871 310.719 88.6569 310.903 128.501Z" fill="#E6E6E6"/>
<path d="M284.281 113.98H281.396V227.925H284.281V113.98Z" fill="#3F3D56"/>
<path d="M240.294 175.061C240.389 195.553 225.971 212.233 225.971 212.233C225.971 212.233 211.4 195.687 211.306 175.194C211.212 154.702 225.629 138.023 225.629 138.023C225.629 138.023 240.2 154.568 240.294 175.061Z" fill="#E6E6E6"/>
<path d="M226.602 167.592H225.118V226.197H226.602V167.592Z" fill="#3F3D56"/>
<path d="M255.846 234C278.046 234 296.043 231.241 296.043 227.838C296.043 224.435 278.046 221.677 255.846 221.677C233.645 221.677 215.648 224.435 215.648 227.838C215.648 231.241 233.645 234 255.846 234Z" fill="#3F3D56"/>
<path d="M259.161 84.2329C255.755 78.4785 249.017 78.2103 249.017 78.2103C249.017 78.2103 242.452 77.3707 238.24 86.1348C234.315 94.3036 228.897 102.191 237.368 104.103L238.898 99.3404L239.846 104.458C241.052 104.544 242.262 104.565 243.47 104.519C252.543 104.227 261.182 104.605 260.904 101.35C260.534 97.022 262.438 89.7698 259.161 84.2329Z" fill="#2F2E41"/>
<path d="M246.896 95.0697C246.896 95.0697 251.298 101.231 248.657 106.219C246.016 111.207 254.819 116.489 254.819 116.489L261.274 102.405C261.274 102.405 253.645 97.417 255.699 92.7224L246.896 95.0697Z" fill="#FBBEBE"/>
<path d="M249.831 97.7104C254.044 97.7104 257.459 94.2949 257.459 90.0817C257.459 85.8685 254.044 82.453 249.831 82.453C245.617 82.453 242.202 85.8685 242.202 90.0817C242.202 94.2949 245.617 97.7104 249.831 97.7104Z" fill="#FBBEBE"/>
<path d="M223.43 98.9004L229.805 90.675C229.805 90.675 232.05 82.0532 235.301 82.4903C238.552 82.9273 234.017 92.83 234.017 92.83L227.682 101.935L223.43 98.9004Z" fill="#FBBEBE"/>
<path d="M255.699 208.327L257.753 219.183L262.154 220.356L260.98 207.446L255.699 208.327Z" fill="#FBBEBE"/>
<path d="M300.004 196.59L307.926 207.446L311.154 208.913L313.794 204.512L305.872 194.243L300.004 196.59Z" fill="#FBBEBE"/>
<path d="M253.938 111.794L249.044 105.351C249.044 105.351 239.561 107.1 238.681 107.98C237.801 108.86 241.028 124.998 241.028 124.998C241.028 124.998 241.615 129.399 244.256 131.746L246.896 133.507L268.609 129.105L269.425 119.445C269.723 115.926 269.282 112.384 268.131 109.045C266.979 105.707 265.144 102.645 262.741 100.058L258.963 100.574L253.938 111.794Z" fill="#575A89"/>
<path d="M239.855 108.567L238.388 107.98L231.639 107.393C231.639 107.393 229.292 106.806 229.879 105.632C230.465 104.459 231.052 104.165 229.879 103.872C228.705 103.579 228.412 103.285 228.705 102.405C228.998 101.525 230.759 99.7643 230.759 99.7643L225.771 95.6565C225.771 95.6565 225.501 95.8474 225.064 96.2007C222.588 98.2058 214.752 105.44 220.489 112.674C227.238 121.183 235.16 126.171 241.615 124.411L239.855 108.567Z" fill="#575A89"/>
<path d="M246.31 132.04V136.147C246.31 136.147 243.669 141.135 244.549 145.83C245.43 150.524 245.723 152.872 245.723 152.872C245.819 156.864 246.511 160.82 247.777 164.608C249.831 170.476 243.082 208.913 251.591 209.5C260.1 210.087 264.795 210.674 267.435 207.74C270.076 204.806 263.034 154.339 263.034 154.339C263.034 154.339 287.094 204.512 292.082 202.458C297.07 200.404 309.687 195.71 308.22 193.069C306.752 190.428 269.783 131.746 269.783 131.746L268.609 129.105L246.31 132.04Z" fill="#2F2E41"/>
<path d="M260.393 217.129C260.393 217.129 255.699 216.835 255.699 218.302C255.699 219.77 253.352 224.758 253.352 224.758C253.352 224.758 251.591 230.626 256.286 230.039C260.98 229.452 263.914 224.171 263.914 224.171L262.741 218.596L260.393 217.129Z" fill="#2F2E41"/>
<path d="M309.393 206.859C309.393 206.859 305.285 204.219 305.579 205.979C305.872 207.74 306.166 212.434 308.219 212.728C310.273 213.021 316.435 214.782 316.728 215.368C317.022 215.955 324.064 218.302 324.064 214.488C324.064 210.674 319.662 207.74 319.662 207.74L314.674 203.925C314.674 203.925 311.447 203.632 310.86 205.686C310.273 207.74 309.393 206.859 309.393 206.859Z" fill="#2F2E41"/>
<path d="M249.842 83.1112C252.533 83.1112 254.714 80.9301 254.714 78.2395C254.714 75.5489 252.533 73.3677 249.842 73.3677C247.152 73.3677 244.97 75.5489 244.97 78.2395C244.97 80.9301 247.152 83.1112 249.842 83.1112Z" fill="#2F2E41"/>
<path d="M244.458 76.9574C244.458 75.7542 244.903 74.5936 245.708 73.6992C246.513 72.8048 247.62 72.2398 248.817 72.1131C248.646 72.095 248.475 72.0859 248.304 72.0857C247.012 72.0857 245.773 72.599 244.859 73.5126C243.945 74.4262 243.432 75.6654 243.432 76.9574C243.432 78.2495 243.945 79.4886 244.859 80.4023C245.773 81.3159 247.012 81.8292 248.304 81.8292C248.475 81.829 248.646 81.8198 248.817 81.8018C247.62 81.6751 246.513 81.1101 245.708 80.2157C244.903 79.3212 244.458 78.1606 244.458 76.9574Z" fill="#2F2E41"/>
<path d="M257.655 83.6783L250.999 80.1914L241.806 81.6179L239.904 90.0177L244.639 89.8355L245.961 86.7497V89.7847L248.146 89.7008L249.414 84.7877L250.206 90.0177L257.972 89.8593L257.655 83.6783Z" fill="#2F2E41"/>
<path d="M257.256 132.719L246.991 132.997C246.991 132.997 238.231 134.701 238.723 131.166C239.214 127.63 247.76 128.867 247.76 128.867L257.114 127.44L257.256 132.719Z" fill="#FBBEBE"/>
<path d="M265.379 99.5603C265.895 99.4822 266.422 99.5908 266.865 99.8667C267.308 100.143 267.638 100.567 267.795 101.065C269.805 107.398 275.996 128.591 269.845 131.498C262.6 134.923 257.312 134.772 257.312 134.772L254.482 127.805L257.058 125.387L259.809 107.701L261.127 100.204L265.379 99.5603Z" fill="#575A89"/>
<path opacity="0.4" d="M263.474 111.354L262.301 123.09L252.031 127.492L263.474 124.851V111.354Z" fill="black"/>
<path d="M208.092 72.6084C211.399 73.4848 214.261 75.5637 216.117 78.4383L217.077 79.9247L217.125 79.9861L233.962 84.9129C234.271 85.0032 234.532 85.2111 234.689 85.4918C234.846 85.7724 234.886 86.1035 234.802 86.4138L233.495 91.2066C233.452 91.3628 233.379 91.5089 233.28 91.6367C233.18 91.7645 233.057 91.8714 232.916 91.9512C232.775 92.0311 232.62 92.0823 232.46 92.1019C232.299 92.1216 232.136 92.1093 231.98 92.0657L215.139 87.3583L215.138 87.3587L213.447 87.9982C210.332 89.1758 206.916 89.2919 203.728 88.3285L208.092 72.6084Z" fill="#3F3D56"/>
<path d="M225.823 86.5082C225.983 85.9633 225.284 85.2791 224.262 84.98C223.24 84.681 222.282 84.8805 222.123 85.4254C221.963 85.9704 222.662 86.6547 223.684 86.9537C224.706 87.2527 225.664 87.0532 225.823 86.5082Z" fill="#575A89"/>
<path d="M224.963 87.0109C225.354 87.0109 225.67 86.6944 225.67 86.304C225.67 85.9136 225.354 85.5971 224.963 85.5971C224.573 85.5971 224.256 85.9136 224.256 86.304C224.256 86.6944 224.573 87.0109 224.963 87.0109Z" fill="#3F3D56"/>
<path d="M209.499 81.6867C210.903 77.3567 210.454 73.3318 208.496 72.6969C206.538 72.062 203.812 75.0574 202.408 79.3874C201.004 83.7174 201.453 87.7423 203.412 88.3772C205.37 89.0122 208.095 86.0167 209.499 81.6867Z" fill="#6C63FF"/>
<path opacity="0.4" d="M208.976 81.5335C210.329 77.3613 209.961 73.4729 208.18 72.627C208.288 72.6404 208.393 72.6638 208.496 72.6968C210.454 73.3318 210.903 77.3567 209.499 81.6867C208.095 86.0167 205.37 89.0121 203.411 88.3772C203.341 88.354 203.271 88.3262 203.204 88.2939C205.13 88.5392 207.646 85.6355 208.976 81.5335Z" fill="black"/>
<path d="M208.313 72.6237L170.1 42.9818C163.342 37.7023 156.858 32.0825 150.671 26.1442C139.778 15.7611 124.991 7.45955 107.774 3.03975C65.9452 -7.69841 32.808 11.3417 17.7363 39.299C-5.29487 82.0209 -22.9452 151.347 79.1749 114.445C101.508 106.374 124.115 105.516 141.257 101.265L203.325 88.4679L208.313 72.6237Z" fill="#6C63FF"/>
<path d="M93.589 22.7438C94.7234 22.7438 95.6429 21.8243 95.6429 20.6899C95.6429 19.5556 94.7234 18.636 93.589 18.636C92.4547 18.636 91.5352 19.5556 91.5352 20.6899C91.5352 21.8243 92.4547 22.7438 93.589 22.7438Z" fill="#F2F2F2"/>
<path d="M133.487 25.4373H132.953V24.9027H132.848V25.4373H132.314V25.5417H132.848V26.0763H132.953V25.5417H133.487V25.4373Z" fill="#F2F2F2"/>
<path d="M187.181 70.0358H186.647V69.5012H186.542V70.0358H186.008V70.1403H186.542V70.6749H186.647V70.1403H187.181V70.0358Z" fill="#F2F2F2"/>
<path d="M183.367 83.8262H182.832V83.2916H182.728V83.8262H182.193V83.9306H182.728V84.4652H182.832V83.9306H183.367V83.8262Z" fill="#F2F2F2"/>
<path d="M19.3502 95.5626H18.8156V95.028H18.7111V95.5626H18.1765V95.6671H18.7111V96.2017H18.8156V95.6671H19.3502V95.5626Z" fill="#F2F2F2"/>
<path d="M42.8231 31.5989H42.2885V31.0643H42.184V31.5989H41.6494V31.7034H42.184V32.238H42.2885V31.7034H42.8231V31.5989Z" fill="#F2F2F2"/>
<path d="M134.074 86.1735H133.539V85.6389H133.435V86.1735H132.9V86.2779H133.435V86.8125H133.539V86.2779H134.074V86.1735Z" fill="#F2F2F2"/>
<path d="M78.0324 12.8206H77.4978V12.286H77.3934V12.8206H76.8588V12.9251H77.3934V13.4597H77.4978V12.9251H78.0324V12.8206Z" fill="#F2F2F2"/>
<path d="M78.2379 55.0654L77.5719 55.1681C77.7802 56.5002 77.9445 57.8616 78.0648 59.2084L78.7367 59.1497C78.6164 57.7853 78.4492 56.4122 78.2379 55.0654Z" fill="#E6E6E6"/>
<path d="M76.4159 47.0435L75.7704 47.2401C76.1606 48.5311 76.5098 49.8544 76.8061 51.1718L77.4663 51.0222C77.1641 49.6901 76.8091 48.3521 76.4159 47.0435Z" fill="#E6E6E6"/>
<path d="M73.5081 39.3503L72.8949 39.6319C73.4582 40.8613 73.9864 42.123 74.4647 43.3847L75.0955 43.147C74.6114 41.8706 74.0803 40.5914 73.5081 39.3503Z" fill="#E6E6E6"/>
<path d="M69.5764 32.1382L69.0072 32.4991C69.7319 33.6375 70.4273 34.8171 71.0728 35.9995L71.6655 35.6768C71.0141 34.4796 70.3099 33.2884 69.5764 32.1382Z" fill="#E6E6E6"/>
<path d="M64.6882 25.5276L64.1747 25.9648C65.049 26.9918 65.8999 28.0657 66.7039 29.1513L67.2438 28.7493C66.4339 27.6519 65.5742 26.5663 64.6882 25.5276Z" fill="#E6E6E6"/>
<path d="M58.9432 19.6418L58.4943 20.1436C59.5036 21.0444 60.4924 21.9921 61.4342 22.9574L61.9184 22.485C60.9648 21.5079 59.9643 20.5514 58.9432 19.6418Z" fill="#E6E6E6"/>
<path d="M52.453 14.5893L52.0745 15.1468C53.1953 15.9008 54.3044 16.7048 55.3695 17.5351L55.7861 17.0041C54.7064 16.1649 53.5855 15.3522 52.453 14.5893Z" fill="#E6E6E6"/>
<path d="M46.5466 11.0801V11.8429C47.2479 12.2097 47.9433 12.5941 48.624 12.9873L48.9614 12.4034C48.1692 11.9456 47.3643 11.5045 46.5466 11.0801Z" fill="#E6E6E6"/>
<path d="M78.2834 63.3706L78.9579 63.3584C78.9703 64.0394 78.9712 64.7241 78.9607 65.3935L78.2863 65.383C78.2965 64.7211 78.2956 64.0441 78.2834 63.3706Z" fill="#E6E6E6"/>
<path d="M38.6273 112.867L37.9613 112.97C38.1696 114.302 38.3339 115.664 38.4542 117.01L39.1261 116.952C39.0058 115.587 38.8386 114.214 38.6273 112.867Z" fill="#E6E6E6"/>
<path d="M36.8053 104.846L36.1598 105.042C36.55 106.333 36.8992 107.656 37.1955 108.974L37.8557 108.824C37.5535 107.492 37.1985 106.154 36.8053 104.846Z" fill="#E6E6E6"/>
<path d="M33.8975 97.1523L33.2843 97.434C33.8477 98.6634 34.3758 99.9251 34.854 101.187L35.4849 100.949C35.0008 99.6727 34.4697 98.3935 33.8975 97.1523Z" fill="#E6E6E6"/>
<path d="M29.9658 89.9402L29.3966 90.3011C30.1213 91.4396 30.8167 92.6191 31.4622 93.8015L32.0549 93.4788C31.4036 92.2817 30.6994 91.0904 29.9658 89.9402Z" fill="#E6E6E6"/>
<path d="M25.0776 83.3297L24.5641 83.7669C25.4385 84.7938 26.2893 85.8677 27.0933 86.9533L27.6332 86.5514C26.8233 85.454 25.9636 84.3684 25.0776 83.3297Z" fill="#E6E6E6"/>
<path d="M19.3326 77.4439L18.8837 77.9456C19.893 78.8464 20.8818 79.7941 21.8236 80.7595L22.3078 80.2871C21.3542 79.31 20.3537 78.3535 19.3326 77.4439Z" fill="#E6E6E6"/>
<path d="M12.8424 72.3913L12.4639 72.9488C13.5847 73.7028 14.6938 74.5068 15.7589 75.3371L16.1755 74.8061C15.0958 73.9669 13.9749 73.1542 12.8424 72.3913Z" fill="#E6E6E6"/>
<path d="M6.93604 68.8821V69.645C7.63729 70.0118 8.33267 70.3961 9.01339 70.7893L9.35081 70.2054C8.55859 69.7477 7.75367 69.3066 6.93604 68.8821Z" fill="#E6E6E6"/>
<path d="M38.6729 121.173L39.3473 121.16C39.3597 121.841 39.3606 122.526 39.3501 123.196L38.6757 123.185C38.6859 122.523 38.685 121.846 38.6729 121.173Z" fill="#E6E6E6"/>
<path d="M174.183 83.8197L173.517 83.9224C173.726 85.2545 173.89 86.6159 174.01 87.9627L174.682 87.904C174.562 86.5397 174.395 85.1665 174.183 83.8197Z" fill="#E6E6E6"/>
<path d="M172.361 75.7979L171.716 75.9944C172.106 77.2855 172.455 78.6087 172.752 79.9262L173.412 79.7765C173.11 78.4444 172.755 77.1065 172.361 75.7979Z" fill="#E6E6E6"/>
<path d="M169.454 68.1046L168.841 68.3863C169.404 69.6156 169.932 70.8773 170.41 72.139L171.041 71.9013C170.557 70.625 170.026 69.3457 169.454 68.1046Z" fill="#E6E6E6"/>
<path d="M165.522 60.8925L164.953 61.2534C165.677 62.3919 166.373 63.5714 167.018 64.7538L167.611 64.4311C166.96 63.234 166.255 62.0427 165.522 60.8925Z" fill="#E6E6E6"/>
<path d="M160.634 54.282L160.12 54.7192C160.995 55.7461 161.845 56.82 162.649 57.9056L163.189 57.5036C162.379 56.4063 161.52 55.3207 160.634 54.282Z" fill="#E6E6E6"/>
<path d="M154.889 48.3962L154.44 48.8979C155.449 49.7987 156.438 50.7464 157.38 51.7117L157.864 51.2393C156.91 50.2623 155.91 49.3057 154.889 48.3962Z" fill="#E6E6E6"/>
<path d="M148.399 43.3436L148.02 43.9011C149.141 44.6551 150.25 45.4591 151.315 46.2894L151.732 45.7584C150.652 44.9192 149.531 44.1065 148.399 43.3436Z" fill="#E6E6E6"/>
<path d="M142.492 39.8344V40.5973C143.193 40.964 143.889 41.3484 144.569 41.7416L144.907 41.1577C144.115 40.7 143.31 40.2589 142.492 39.8344Z" fill="#E6E6E6"/>
<path d="M174.229 92.1249L174.903 92.1127C174.916 92.7937 174.917 93.4784 174.906 94.1478L174.232 94.1373C174.242 93.4754 174.241 92.7984 174.229 92.1249Z" fill="#E6E6E6"/>
<path d="M43.8048 58.6515H43.3075V58.1538H43.2104V58.6515H42.7128V58.7483H43.2104V59.2459H43.3075V58.7483H43.8048V58.6515Z" fill="#F2F2F2"/>
<path d="M38.0713 88.6842H37.574V88.1866H37.4769V88.6842H36.9792V88.7813H37.4769V89.2787H37.574V88.7813H38.0713V88.6842Z" fill="#F2F2F2"/>
<path d="M21.248 115.005H20.7503V114.508H20.6532V115.005H20.1559V115.102H20.6532V115.6H20.7503V115.102H21.248V115.005Z" fill="#F2F2F2"/>
<path d="M68.0477 81.622C63.2377 74.4721 61.1492 65.8352 62.1609 57.2776C63.1727 48.7199 67.2177 40.8081 73.5624 34.9771C79.9072 29.146 88.1315 25.7817 96.7439 25.4942C105.356 25.2068 113.787 28.0153 120.506 33.4104C127.226 38.8054 131.789 46.4299 133.369 54.9011C134.949 63.3722 133.441 72.1291 129.119 79.5838C124.796 87.0385 117.945 92.6973 109.808 95.5341C101.671 98.3708 92.787 98.1977 84.7668 95.046C84.2468 96.9019 83.2748 98.5999 81.9376 99.988C80.6005 101.376 78.94 102.411 77.1049 103C75.2697 103.589 73.3172 103.714 71.422 103.363C69.5268 103.012 67.7482 102.197 66.2453 100.99C64.7424 99.7837 63.5622 98.2232 62.8103 96.4485C62.0585 94.6739 61.7584 92.7405 61.937 90.8214C62.1156 88.9023 62.7672 87.0575 63.8337 85.4521C64.9001 83.8466 66.348 82.5307 68.0477 81.622Z" fill="#F8F8F8"/>
<path d="M97.7435 40.9124C106.004 40.9124 111.688 45.4943 111.688 52.0809C111.688 56.4425 109.573 59.4604 105.498 61.8615C101.665 64.0864 100.365 65.7165 100.365 68.5362C100.365 68.7647 100.32 68.991 100.232 69.2022C100.145 69.4133 100.017 69.6051 99.8552 69.7667C99.6936 69.9283 99.5018 70.0565 99.2906 70.144C99.0795 70.2314 98.8532 70.2764 98.6247 70.2764H94.4016C93.9506 70.2764 93.5171 70.1013 93.1927 69.788C92.8683 69.4747 92.6781 69.0476 92.6624 68.5969L92.6549 68.382C92.2804 63.8441 93.8665 61.0245 97.8537 58.6894C101.576 56.4645 103.141 55.0547 103.141 52.3232C103.141 49.5916 100.497 47.587 97.2148 47.587C94.7201 47.587 92.7458 48.8014 91.8402 50.7839C91.5219 51.4551 91.0181 52.021 90.3883 52.4148C89.7585 52.8086 89.0291 53.0138 88.2864 53.0061C85.4251 53.0061 83.5348 49.9632 84.873 47.434C86.9898 43.4332 91.456 40.9124 97.7435 40.9124ZM91.95 78.6693C91.95 76.136 94.0647 74.1314 96.6641 74.1314C99.2855 74.1314 101.4 76.114 101.4 78.6693C101.4 81.2246 99.2855 83.2072 96.6641 83.2072C94.0427 83.2072 91.95 81.2246 91.95 78.6693Z" fill="#6C63FF"/>
</g>
<defs>
<clipPath id="clip0">
<rect width="324.064" height="234" fill="white"/>
</clipPath>
</defs>
</svg>
