<?xml version="1.0" encoding="UTF-8"?>
<svg xmlns="http://www.w3.org/2000/svg" xmlns:xlink="http://www.w3.org/1999/xlink" width="160pt" height="160pt" viewBox="0 0 160 160" version="1.1">
<g id="surface1">
<path style=" stroke:none;fill-rule:evenodd;fill:rgb(31.372549%,71.764706%,28.235294%);fill-opacity:1;" d="M 120 40 L 160 40 L 160 0 L 120 0 Z M 120 40 "/>
<path style=" stroke:none;fill-rule:evenodd;fill:rgb(31.372549%,71.764706%,28.235294%);fill-opacity:1;" d="M 0 0 L 0 145 L 20 125.117188 L 20 0 Z M 0 0 "/>
<path style=" stroke:none;fill-rule:evenodd;fill:rgb(31.372549%,71.764706%,28.235294%);fill-opacity:1;" d="M 34.882812 140 L 15 160 L 160 160 L 160 140 Z M 34.882812 140 "/>
<path style=" stroke:none;fill-rule:evenodd;fill:rgb(31.372549%,71.764706%,28.235294%);fill-opacity:1;" d="M 40 0 L 40 105 L 60 85.164062 L 60 0 Z M 40 0 "/>
<path style=" stroke:none;fill-rule:evenodd;fill:rgb(31.372549%,71.764706%,28.235294%);fill-opacity:1;" d="M 74.839844 100 L 55 120 L 160 120 L 160 100 Z M 74.839844 100 "/>
<path style=" stroke:none;fill-rule:evenodd;fill:rgb(31.372549%,71.764706%,28.235294%);fill-opacity:1;" d="M 80 0 L 80 65 L 100 45.261719 L 100 0 Z M 80 0 "/>
<path style=" stroke:none;fill-rule:evenodd;fill:rgb(31.372549%,71.764706%,28.235294%);fill-opacity:1;" d="M 114.742188 60 L 95 80 L 160 80 L 160 60 Z M 114.742188 60 "/>
</g>
</svg>
